<ttFont>
    <TTGlyph name=".notdef" xMin="97" yMin="247" xMax="221" yMax="363">
      <contour>
        <pt x="97" y="247" on="1"/>
        <pt x="118" y="363" on="1"/>
        <pt x="221" y="363" on="1"/>
        <pt x="200" y="247" on="1"/>
      </contour>
    </TTGlyph>
    <TTGlyph name="A" xMin="-39" yMin="0" xMax="514" yMax="700">
      <contour>
        <pt x="402" y="0" on="1"/>
        <pt x="379" y="182" on="1"/>
        <pt x="160" y="182" on="1"/>
        <pt x="72" y="0" on="1"/>
        <pt x="-39" y="0" on="1"/>
        <pt x="309" y="700" on="1"/>
        <pt x="412" y="700" on="1"/>
        <pt x="514" y="0" on="1"/>
      </contour>
      <contour>
        <pt x="333" y="543" on="1"/>
        <pt x="213" y="281" on="1"/>
        <pt x="360" y="281" on="1"/>
      </contour>
    </TTGlyph>
    <TTGlyph name="A.sc" xMin="-40" yMin="0" xMax="446" yMax="567">
      <contour>
        <pt x="339" y="0" on="1"/>
        <pt x="317" y="138" on="1"/>
        <pt x="137" y="138" on="1"/>
        <pt x="67" y="0" on="1"/>
        <pt x="-40" y="0" on="1"/>
        <pt x="255" y="567" on="1"/>
        <pt x="352" y="567" on="1"/>
        <pt x="446" y="0" on="1"/>
      </contour>
      <contour>
        <pt x="274" y="406" on="1"/>
        <pt x="190" y="237" on="1"/>
        <pt x="299" y="237" on="1"/>
      </contour>
    </TTGlyph>
    <TTGlyph name="AE" xMin="-53" yMin="0" xMax="819" yMax="700">
      <contour>
        <pt x="426" y="0" on="1"/>
        <pt x="312" y="0" on="1"/>
        <pt x="342" y="176" on="1"/>
        <pt x="163" y="176" on="1"/>
        <pt x="56" y="0" on="1"/>
        <pt x="-53" y="0" on="1"/>
        <pt x="378" y="700" on="1"/>
        <pt x="819" y="700" on="1"/>
        <pt x="801" y="600" on="1"/>
        <pt x="531" y="600" on="1"/>
        <pt x="498" y="415" on="1"/>
        <pt x="707" y="415" on="1"/>
        <pt x="689" y="316" on="1"/>
        <pt x="481" y="316" on="1"/>
        <pt x="442" y="99" on="1"/>
        <pt x="721" y="99" on="1"/>
        <pt x="704" y="0" on="1"/>
      </contour>
      <contour>
        <pt x="417" y="598" on="1"/>
        <pt x="230" y="279" on="1"/>
        <pt x="361" y="279" on="1"/>
      </contour>
    </TTGlyph>
    <TTGlyph name="AE.sc" xMin="-56" yMin="0" xMax="700" yMax="567">
      <contour>
        <pt x="369" y="0" on="1"/>
        <pt x="265" y="0" on="1"/>
        <pt x="289" y="137" on="1"/>
        <pt x="139" y="137" on="1"/>
        <pt x="52" y="0" on="1"/>
        <pt x="-56" y="0" on="1"/>
        <pt x="312" y="567" on="1"/>
        <pt x="700" y="567" on="1"/>
        <pt x="682" y="468" on="1"/>
        <pt x="451" y="468" on="1"/>
        <pt x="430" y="345" on="1"/>
        <pt x="607" y="345" on="1"/>
        <pt x="590" y="246" on="1"/>
        <pt x="413" y="246" on="1"/>
        <pt x="387" y="99" on="1"/>
        <pt x="624" y="99" on="1"/>
        <pt x="607" y="0" on="1"/>
      </contour>
      <contour>
        <pt x="347" y="466" on="1"/>
        <pt x="204" y="237" on="1"/>
        <pt x="307" y="237" on="1"/>
      </contour>
    </TTGlyph>
    <TTGlyph name="Aacute" xMin="-39" yMin="0" xMax="514" yMax="945">
      <component glyphName="A" x="0" y="0" flags="0x204"/>
      <component glyphName="acute" x="135" y="207" flags="0x4"/>
    </TTGlyph>
    <TTGlyph name="Acircumflex" xMin="-39" yMin="0" xMax="520" yMax="954">
      <component glyphName="A" x="0" y="0" flags="0x204"/>
      <component glyphName="circumflex" x="72" y="207" flags="0x4"/>
    </TTGlyph>
    <TTGlyph name="Adieresis" xMin="-39" yMin="0" xMax="514" yMax="907">
      <component glyphName="A" x="0" y="0" flags="0x204"/>
      <component glyphName="dieresis" x="83" y="207" flags="0x4"/>
    </TTGlyph>
    <TTGlyph name="Agrave" xMin="-39" yMin="0" xMax="514" yMax="945">
      <component glyphName="A" x="0" y="0" flags="0x204"/>
      <component glyphName="grave" x="136" y="207" flags="0x4"/>
    </TTGlyph>
    <TTGlyph name="Aring" xMin="-39" yMin="0" xMax="514" yMax="962">
      <component glyphName="A" x="0" y="0" flags="0x204"/>
      <component glyphName="ring" x="141" y="207" flags="0x4"/>
    </TTGlyph>
    <TTGlyph name="Atilde" xMin="-39" yMin="0" xMax="562" yMax="916">
      <component glyphName="A" x="0" y="0" flags="0x204"/>
      <component glyphName="tilde" x="32" y="207" flags="0x4"/>
    </TTGlyph>
    <TTGlyph name="B" xMin="27" yMin="0" xMax="526" yMax="700">
      <contour>
        <pt x="137" y="0" on="1"/>
        <pt x="27" y="0" on="1"/>
        <pt x="150" y="700" on="1"/>
        <pt x="313" y="700" on="1"/>
        <pt x="361" y="700" on="0"/>
        <pt x="440" y="690" on="0"/>
        <pt x="495" y="660" on="0"/>
        <pt x="526" y="607" on="0"/>
        <pt x="526" y="564" on="1"/>
        <pt x="526" y="529" on="0"/>
        <pt x="515" y="475" on="0"/>
        <pt x="493" y="431" on="0"/>
        <pt x="462" y="392" on="0"/>
        <pt x="442" y="373" on="1"/>
        <pt x="485" y="353" on="0"/>
        <pt x="525" y="287" on="0"/>
        <pt x="525" y="241" on="1"/>
        <pt x="525" y="167" on="0"/>
        <pt x="477" y="73" on="0"/>
        <pt x="400" y="20" on="0"/>
        <pt x="307" y="0" on="0"/>
        <pt x="262" y="0" on="1"/>
      </contour>
      <contour>
        <pt x="240" y="607" on="1"/>
        <pt x="206" y="412" on="1"/>
        <pt x="316" y="412" on="1"/>
        <pt x="334" y="412" on="0"/>
        <pt x="371" y="420" on="0"/>
        <pt x="402" y="446" on="0"/>
        <pt x="421" y="497" on="0"/>
        <pt x="421" y="540" on="1"/>
        <pt x="421" y="562" on="0"/>
        <pt x="408" y="588" on="0"/>
        <pt x="386" y="602" on="0"/>
        <pt x="354" y="607" on="0"/>
        <pt x="336" y="607" on="1"/>
      </contour>
      <contour>
        <pt x="190" y="321" on="1"/>
        <pt x="150" y="94" on="1"/>
        <pt x="255" y="94" on="1"/>
        <pt x="292" y="94" on="0"/>
        <pt x="352" y="104" on="0"/>
        <pt x="392" y="134" on="0"/>
        <pt x="414" y="188" on="0"/>
        <pt x="414" y="232" on="1"/>
        <pt x="414" y="259" on="0"/>
        <pt x="398" y="293" on="0"/>
        <pt x="371" y="313" on="0"/>
        <pt x="335" y="321" on="0"/>
        <pt x="314" y="321" on="1"/>
      </contour>
    </TTGlyph>
    <TTGlyph name="B.sc" xMin="21" yMin="0" xMax="464" yMax="567">
      <contour>
        <pt x="124" y="0" on="1"/>
        <pt x="21" y="0" on="1"/>
        <pt x="121" y="567" on="1"/>
        <pt x="271" y="567" on="1"/>
        <pt x="313" y="567" on="0"/>
        <pt x="382" y="559" on="0"/>
        <pt x="432" y="534" on="0"/>
        <pt x="459" y="489" on="0"/>
        <pt x="459" y="452" on="1"/>
        <pt x="459" y="395" on="0"/>
        <pt x="417" y="325" on="0"/>
        <pt x="388" y="303" on="1"/>
        <pt x="425" y="287" on="0"/>
        <pt x="464" y="235" on="0"/>
        <pt x="464" y="194" on="1"/>
        <pt x="464" y="137" on="0"/>
        <pt x="421" y="62" on="0"/>
        <pt x="355" y="18" on="0"/>
        <pt x="273" y="0" on="0"/>
        <pt x="234" y="0" on="1"/>
      </contour>
      <contour>
        <pt x="208" y="480" on="1"/>
        <pt x="183" y="339" on="1"/>
        <pt x="281" y="339" on="1"/>
        <pt x="293" y="339" on="0"/>
        <pt x="321" y="346" on="0"/>
        <pt x="345" y="365" on="0"/>
        <pt x="361" y="399" on="0"/>
        <pt x="361" y="426" on="1"/>
        <pt x="361" y="458" on="0"/>
        <pt x="327" y="480" on="0"/>
        <pt x="298" y="480" on="1"/>
      </contour>
      <contour>
        <pt x="169" y="258" on="1"/>
        <pt x="139" y="88" on="1"/>
        <pt x="240" y="88" on="1"/>
        <pt x="295" y="88" on="0"/>
        <pt x="357" y="133" on="0"/>
        <pt x="357" y="190" on="1"/>
        <pt x="357" y="229" on="0"/>
        <pt x="310" y="258" on="0"/>
        <pt x="272" y="258" on="1"/>
      </contour>
    </TTGlyph>
    <TTGlyph name="C" xMin="45" yMin="-14" xMax="600" yMax="714">
      <contour>
        <pt x="301" y="-14" on="1"/>
        <pt x="242" y="-14" on="0"/>
        <pt x="148" y="27" on="0"/>
        <pt x="81" y="103" on="0"/>
        <pt x="45" y="211" on="0"/>
        <pt x="45" y="278" on="1"/>
        <pt x="45" y="374" on="0"/>
        <pt x="106" y="535" on="0"/>
        <pt x="211" y="650" on="0"/>
        <pt x="351" y="714" on="0"/>
        <pt x="429" y="714" on="1"/>
        <pt x="478" y="714" on="0"/>
        <pt x="569" y="691" on="0"/>
        <pt x="600" y="673" on="1"/>
        <pt x="571" y="573" on="1"/>
        <pt x="535" y="589" on="0"/>
        <pt x="461" y="615" on="0"/>
        <pt x="412" y="615" on="1"/>
        <pt x="353" y="615" on="0"/>
        <pt x="260" y="561" on="0"/>
        <pt x="196" y="469" on="0"/>
        <pt x="162" y="350" on="0"/>
        <pt x="162" y="286" on="1"/>
        <pt x="162" y="243" on="0"/>
        <pt x="181" y="169" on="0"/>
        <pt x="220" y="115" on="0"/>
        <pt x="279" y="85" on="0"/>
        <pt x="319" y="85" on="1"/>
        <pt x="368" y="85" on="0"/>
        <pt x="452" y="111" on="0"/>
        <pt x="492" y="126" on="1"/>
        <pt x="485" y="26" on="1"/>
        <pt x="448" y="9" on="0"/>
        <pt x="350" y="-14" on="0"/>
      </contour>
    </TTGlyph>
    <TTGlyph name="C.sc" xMin="34" yMin="-11" xMax="512" yMax="579">
      <contour>
        <pt x="258" y="-11" on="1"/>
        <pt x="207" y="-11" on="0"/>
        <pt x="124" y="23" on="0"/>
        <pt x="66" y="86" on="0"/>
        <pt x="34" y="174" on="0"/>
        <pt x="34" y="229" on="1"/>
        <pt x="34" y="306" on="0"/>
        <pt x="86" y="434" on="0"/>
        <pt x="176" y="527" on="0"/>
        <pt x="295" y="579" on="0"/>
        <pt x="362" y="579" on="1"/>
        <pt x="406" y="579" on="0"/>
        <pt x="485" y="561" on="0"/>
        <pt x="512" y="545" on="1"/>
        <pt x="484" y="448" on="1"/>
        <pt x="452" y="462" on="0"/>
        <pt x="388" y="480" on="0"/>
        <pt x="345" y="480" on="1"/>
        <pt x="297" y="480" on="0"/>
        <pt x="224" y="441" on="0"/>
        <pt x="173" y="375" on="0"/>
        <pt x="147" y="287" on="0"/>
        <pt x="147" y="238" on="1"/>
        <pt x="147" y="172" on="0"/>
        <pt x="209" y="87" on="0"/>
        <pt x="275" y="87" on="1"/>
        <pt x="319" y="87" on="0"/>
        <pt x="389" y="105" on="0"/>
        <pt x="426" y="119" on="1"/>
        <pt x="420" y="22" on="1"/>
        <pt x="388" y="7" on="0"/>
        <pt x="301" y="-11" on="0"/>
      </contour>
    </TTGlyph>
    <TTGlyph name="Ccaron" xMin="45" yMin="-14" xMax="600" yMax="950">
      <component glyphName="C" x="0" y="0" flags="0x4"/>
      <component glyphName="caron" x="79" y="207" flags="0x4"/>
    </TTGlyph>
    <TTGlyph name="Ccedilla" xMin="45" yMin="-193" xMax="600" yMax="714">
      <component glyphName="C" x="0" y="0" flags="0x204"/>
      <component glyphName="cedilla" x="37" y="0" flags="0x4"/>
    </TTGlyph>
    <TTGlyph name="D" xMin="27" yMin="0" xMax="643" yMax="700">
      <contour>
        <pt x="132" y="0" on="1"/>
        <pt x="27" y="0" on="1"/>
        <pt x="150" y="700" on="1"/>
        <pt x="385" y="700" on="1"/>
        <pt x="443" y="700" on="0"/>
        <pt x="539" y="662" on="0"/>
        <pt x="606" y="590" on="0"/>
        <pt x="643" y="486" on="0"/>
        <pt x="643" y="420" on="1"/>
        <pt x="643" y="324" on="0"/>
        <pt x="583" y="168" on="0"/>
        <pt x="479" y="59" on="0"/>
        <pt x="341" y="0" on="0"/>
        <pt x="262" y="0" on="1"/>
      </contour>
      <contour>
        <pt x="239" y="601" on="1"/>
        <pt x="151" y="99" on="1"/>
        <pt x="279" y="99" on="1"/>
        <pt x="339" y="99" on="0"/>
        <pt x="431" y="148" on="0"/>
        <pt x="494" y="233" on="0"/>
        <pt x="526" y="347" on="0"/>
        <pt x="526" y="412" on="1"/>
        <pt x="526" y="498" on="0"/>
        <pt x="448" y="601" on="0"/>
        <pt x="368" y="601" on="1"/>
      </contour>
    </TTGlyph>
    <TTGlyph name="D.sc" xMin="21" yMin="0" xMax="553" yMax="567">
      <contour>
        <pt x="122" y="0" on="1"/>
        <pt x="21" y="0" on="1"/>
        <pt x="121" y="567" on="1"/>
        <pt x="327" y="567" on="1"/>
        <pt x="378" y="567" on="0"/>
        <pt x="461" y="536" on="0"/>
        <pt x="521" y="476" on="0"/>
        <pt x="553" y="391" on="0"/>
        <pt x="553" y="337" on="1"/>
        <pt x="553" y="260" on="0"/>
        <pt x="502" y="135" on="0"/>
        <pt x="413" y="47" on="0"/>
        <pt x="294" y="0" on="0"/>
        <pt x="227" y="0" on="1"/>
      </contour>
      <contour>
        <pt x="207" y="469" on="1"/>
        <pt x="141" y="99" on="1"/>
        <pt x="245" y="99" on="1"/>
        <pt x="293" y="99" on="0"/>
        <pt x="366" y="133" on="0"/>
        <pt x="415" y="194" on="0"/>
        <pt x="440" y="278" on="0"/>
        <pt x="440" y="327" on="1"/>
        <pt x="440" y="393" on="0"/>
        <pt x="375" y="469" on="0"/>
        <pt x="309" y="469" on="1"/>
      </contour>
    </TTGlyph>
    <TTGlyph name="E" xMin="27" yMin="0" xMax="548" yMax="700">
      <contour>
        <pt x="137" y="0" on="1"/>
        <pt x="27" y="0" on="1"/>
        <pt x="150" y="700" on="1"/>
        <pt x="548" y="700" on="1"/>
        <pt x="531" y="601" on="1"/>
        <pt x="241" y="601" on="1"/>
        <pt x="208" y="415" on="1"/>
        <pt x="435" y="415" on="1"/>
        <pt x="417" y="316" on="1"/>
        <pt x="191" y="316" on="1"/>
        <pt x="153" y="99" on="1"/>
        <pt x="451" y="99" on="1"/>
        <pt x="434" y="0" on="1"/>
      </contour>
    </TTGlyph>
    <TTGlyph name="E.sc" xMin="21" yMin="0" xMax="474" yMax="567">
      <contour>
        <pt x="125" y="0" on="1"/>
        <pt x="21" y="0" on="1"/>
        <pt x="121" y="567" on="1"/>
        <pt x="474" y="567" on="1"/>
        <pt x="457" y="468" on="1"/>
        <pt x="209" y="468" on="1"/>
        <pt x="188" y="345" on="1"/>
        <pt x="379" y="345" on="1"/>
        <pt x="362" y="246" on="1"/>
        <pt x="170" y="246" on="1"/>
        <pt x="144" y="99" on="1"/>
        <pt x="399" y="99" on="1"/>
        <pt x="382" y="0" on="1"/>
      </contour>
    </TTGlyph>
    <TTGlyph name="Eacute" xMin="27" yMin="0" xMax="548" yMax="945">
      <component glyphName="E" x="0" y="0" flags="0x204"/>
      <component glyphName="acute" x="102" y="207" flags="0x4"/>
    </TTGlyph>
    <TTGlyph name="Ecircumflex" xMin="27" yMin="0" xMax="548" yMax="954">
      <component glyphName="E" x="0" y="0" flags="0x204"/>
      <component glyphName="circumflex" x="37" y="207" flags="0x4"/>
    </TTGlyph>
    <TTGlyph name="Edieresis" xMin="27" yMin="0" xMax="548" yMax="907">
      <component glyphName="E" x="0" y="0" flags="0x204"/>
      <component glyphName="dieresis" x="49" y="207" flags="0x4"/>
    </TTGlyph>
    <TTGlyph name="Egrave" xMin="27" yMin="0" xMax="548" yMax="945">
      <component glyphName="E" x="0" y="0" flags="0x204"/>
      <component glyphName="grave" x="103" y="207" flags="0x4"/>
    </TTGlyph>
    <TTGlyph name="Eth" xMin="6" yMin="0" xMax="650" yMax="700">
      <contour>
        <pt x="140" y="0" on="1"/>
        <pt x="36" y="0" on="1"/>
        <pt x="90" y="308" on="1"/>
        <pt x="6" y="308" on="1"/>
        <pt x="19" y="383" on="1"/>
        <pt x="103" y="383" on="1"/>
        <pt x="159" y="700" on="1"/>
        <pt x="393" y="700" on="1"/>
        <pt x="451" y="700" on="0"/>
        <pt x="546" y="662" on="0"/>
        <pt x="614" y="590" on="0"/>
        <pt x="650" y="487" on="0"/>
        <pt x="650" y="421" on="1"/>
        <pt x="650" y="324" on="0"/>
        <pt x="590" y="168" on="0"/>
        <pt x="487" y="59" on="0"/>
        <pt x="348" y="0" on="0"/>
        <pt x="270" y="0" on="1"/>
      </contour>
      <contour>
        <pt x="247" y="601" on="1"/>
        <pt x="208" y="383" on="1"/>
        <pt x="321" y="383" on="1"/>
        <pt x="308" y="308" on="1"/>
        <pt x="195" y="308" on="1"/>
        <pt x="158" y="99" on="1"/>
        <pt x="287" y="99" on="1"/>
        <pt x="347" y="99" on="0"/>
        <pt x="439" y="148" on="0"/>
        <pt x="502" y="232" on="0"/>
        <pt x="534" y="346" on="0"/>
        <pt x="534" y="412" on="1"/>
        <pt x="534" y="498" on="0"/>
        <pt x="456" y="601" on="0"/>
        <pt x="376" y="601" on="1"/>
      </contour>
    </TTGlyph>
    <TTGlyph name="Euro" xMin="18" yMin="17" xMax="650" yMax="683">
      <contour>
        <pt x="377" y="17" on="1"/>
        <pt x="286" y="17" on="0"/>
        <pt x="164" y="119" on="0"/>
        <pt x="147" y="213" on="1"/>
        <pt x="18" y="213" on="1"/>
        <pt x="56" y="288" on="1"/>
        <pt x="142" y="288" on="1"/>
        <pt x="144" y="306" on="0"/>
        <pt x="148" y="342" on="0"/>
        <pt x="152" y="365" on="1"/>
        <pt x="69" y="365" on="1"/>
        <pt x="109" y="440" on="1"/>
        <pt x="175" y="440" on="1"/>
        <pt x="197" y="497" on="0"/>
        <pt x="265" y="587" on="0"/>
        <pt x="348" y="650" on="0"/>
        <pt x="444" y="683" on="0"/>
        <pt x="495" y="683" on="1"/>
        <pt x="537" y="683" on="0"/>
        <pt x="618" y="666" on="0"/>
        <pt x="650" y="648" on="1"/>
        <pt x="620" y="545" on="1"/>
        <pt x="587" y="562" on="0"/>
        <pt x="520" y="583" on="0"/>
        <pt x="477" y="583" on="1"/>
        <pt x="411" y="583" on="0"/>
        <pt x="319" y="508" on="0"/>
        <pt x="290" y="440" on="1"/>
        <pt x="518" y="440" on="1"/>
        <pt x="478" y="365" on="1"/>
        <pt x="266" y="365" on="1"/>
        <pt x="264" y="357" on="0"/>
        <pt x="261" y="335" on="0"/>
        <pt x="258" y="313" on="0"/>
        <pt x="256" y="293" on="0"/>
        <pt x="256" y="288" on="1"/>
        <pt x="473" y="288" on="1"/>
        <pt x="435" y="213" on="1"/>
        <pt x="266" y="213" on="1"/>
        <pt x="294" y="117" on="0"/>
        <pt x="395" y="117" on="1"/>
        <pt x="438" y="117" on="0"/>
        <pt x="512" y="138" on="0"/>
        <pt x="551" y="155" on="1"/>
        <pt x="545" y="52" on="1"/>
        <pt x="507" y="34" on="0"/>
        <pt x="420" y="17" on="0"/>
      </contour>
    </TTGlyph>
    <TTGlyph name="F" xMin="27" yMin="0" xMax="537" yMax="700">
      <contour>
        <pt x="239" y="601" on="1"/>
        <pt x="206" y="415" on="1"/>
        <pt x="423" y="415" on="1"/>
        <pt x="405" y="316" on="1"/>
        <pt x="189" y="316" on="1"/>
        <pt x="133" y="0" on="1"/>
        <pt x="27" y="0" on="1"/>
        <pt x="150" y="700" on="1"/>
        <pt x="537" y="700" on="1"/>
        <pt x="520" y="601" on="1"/>
      </contour>
    </TTGlyph>
    <TTGlyph name="F.sc" xMin="21" yMin="0" xMax="459" yMax="567">
      <contour>
        <pt x="207" y="468" on="1"/>
        <pt x="185" y="345" on="1"/>
        <pt x="366" y="345" on="1"/>
        <pt x="349" y="246" on="1"/>
        <pt x="167" y="246" on="1"/>
        <pt x="123" y="0" on="1"/>
        <pt x="21" y="0" on="1"/>
        <pt x="121" y="567" on="1"/>
        <pt x="459" y="567" on="1"/>
        <pt x="442" y="468" on="1"/>
      </contour>
    </TTGlyph>
    <TTGlyph name="G" xMin="45" yMin="-14" xMax="613" yMax="714">
      <contour>
        <pt x="297" y="-14" on="1"/>
        <pt x="240" y="-14" on="0"/>
        <pt x="147" y="27" on="0"/>
        <pt x="81" y="104" on="0"/>
        <pt x="45" y="212" on="0"/>
        <pt x="45" y="279" on="1"/>
        <pt x="45" y="375" on="0"/>
        <pt x="106" y="535" on="0"/>
        <pt x="211" y="650" on="0"/>
        <pt x="351" y="714" on="0"/>
        <pt x="431" y="714" on="1"/>
        <pt x="454" y="714" on="0"/>
        <pt x="505" y="708" on="0"/>
        <pt x="554" y="697" on="0"/>
        <pt x="597" y="683" on="0"/>
        <pt x="613" y="674" on="1"/>
        <pt x="585" y="577" on="1"/>
        <pt x="550" y="593" on="0"/>
        <pt x="459" y="615" on="0"/>
        <pt x="417" y="615" on="1"/>
        <pt x="353" y="615" on="0"/>
        <pt x="258" y="560" on="0"/>
        <pt x="194" y="468" on="0"/>
        <pt x="162" y="351" on="0"/>
        <pt x="162" y="288" on="1"/>
        <pt x="162" y="244" on="0"/>
        <pt x="182" y="169" on="0"/>
        <pt x="224" y="115" on="0"/>
        <pt x="288" y="85" on="0"/>
        <pt x="331" y="85" on="1"/>
        <pt x="351" y="85" on="0"/>
        <pt x="401" y="92" on="0"/>
        <pt x="426" y="101" on="1"/>
        <pt x="454" y="258" on="1"/>
        <pt x="376" y="258" on="1"/>
        <pt x="392" y="351" on="1"/>
        <pt x="577" y="351" on="1"/>
        <pt x="560" y="255" on="1"/>
        <pt x="522" y="39" on="1"/>
        <pt x="502" y="28" on="0"/>
        <pt x="447" y="9" on="0"/>
        <pt x="386" y="-6" on="0"/>
        <pt x="324" y="-14" on="0"/>
      </contour>
    </TTGlyph>
    <TTGlyph name="G.sc" xMin="34" yMin="-11" xMax="524" yMax="579">
      <contour>
        <pt x="256" y="-11" on="1"/>
        <pt x="206" y="-11" on="0"/>
        <pt x="124" y="23" on="0"/>
        <pt x="66" y="86" on="0"/>
        <pt x="34" y="175" on="0"/>
        <pt x="34" y="230" on="1"/>
        <pt x="34" y="306" on="0"/>
        <pt x="86" y="435" on="0"/>
        <pt x="175" y="527" on="0"/>
        <pt x="296" y="579" on="0"/>
        <pt x="365" y="579" on="1"/>
        <pt x="385" y="579" on="0"/>
        <pt x="429" y="574" on="0"/>
        <pt x="472" y="566" on="0"/>
        <pt x="510" y="553" on="0"/>
        <pt x="524" y="546" on="1"/>
        <pt x="495" y="448" on="1"/>
        <pt x="466" y="462" on="0"/>
        <pt x="387" y="480" on="0"/>
        <pt x="350" y="480" on="1"/>
        <pt x="299" y="480" on="0"/>
        <pt x="223" y="441" on="0"/>
        <pt x="172" y="375" on="0"/>
        <pt x="147" y="288" on="0"/>
        <pt x="147" y="241" on="1"/>
        <pt x="147" y="173" on="0"/>
        <pt x="215" y="87" on="0"/>
        <pt x="284" y="87" on="1"/>
        <pt x="320" y="87" on="0"/>
        <pt x="360" y="97" on="1"/>
        <pt x="379" y="199" on="1"/>
        <pt x="321" y="199" on="1"/>
        <pt x="336" y="284" on="1"/>
        <pt x="496" y="284" on="1"/>
        <pt x="481" y="198" on="1"/>
        <pt x="451" y="31" on="1"/>
        <pt x="435" y="22" on="0"/>
        <pt x="387" y="7" on="0"/>
        <pt x="334" y="-4" on="0"/>
        <pt x="279" y="-11" on="0"/>
      </contour>
    </TTGlyph>
    <TTGlyph name="H" xMin="27" yMin="0" xMax="678" yMax="700">
      <contour>
        <pt x="448" y="0" on="1"/>
        <pt x="504" y="315" on="1"/>
        <pt x="189" y="315" on="1"/>
        <pt x="133" y="0" on="1"/>
        <pt x="27" y="0" on="1"/>
        <pt x="150" y="700" on="1"/>
        <pt x="256" y="700" on="1"/>
        <pt x="206" y="417" on="1"/>
        <pt x="522" y="417" on="1"/>
        <pt x="572" y="700" on="1"/>
        <pt x="678" y="700" on="1"/>
        <pt x="554" y="0" on="1"/>
      </contour>
    </TTGlyph>
    <TTGlyph name="H.sc" xMin="21" yMin="0" xMax="581" yMax="567">
      <contour>
        <pt x="378" y="0" on="1"/>
        <pt x="421" y="246" on="1"/>
        <pt x="167" y="246" on="1"/>
        <pt x="123" y="0" on="1"/>
        <pt x="21" y="0" on="1"/>
        <pt x="121" y="567" on="1"/>
        <pt x="224" y="567" on="1"/>
        <pt x="185" y="346" on="1"/>
        <pt x="438" y="346" on="1"/>
        <pt x="478" y="567" on="1"/>
        <pt x="581" y="567" on="1"/>
        <pt x="480" y="0" on="1"/>
      </contour>
    </TTGlyph>
    <TTGlyph name="I" xMin="27" yMin="0" xMax="257" yMax="700">
      <contour>
        <pt x="27" y="0" on="1"/>
        <pt x="150" y="700" on="1"/>
        <pt x="257" y="700" on="1"/>
        <pt x="134" y="0" on="1"/>
      </contour>
    </TTGlyph>
    <TTGlyph name="I.sc" xMin="21" yMin="0" xMax="223" yMax="567">
      <contour>
        <pt x="21" y="0" on="1"/>
        <pt x="121" y="567" on="1"/>
        <pt x="223" y="567" on="1"/>
        <pt x="123" y="0" on="1"/>
      </contour>
    </TTGlyph>
    <TTGlyph name="Iacute" xMin="27" yMin="0" xMax="333" yMax="945">
      <component glyphName="I" x="0" y="0" flags="0x204"/>
      <component glyphName="acute" x="-19" y="207" flags="0x4"/>
    </TTGlyph>
    <TTGlyph name="Icircumflex" xMin="27" yMin="0" xMax="365" yMax="954">
      <component glyphName="I" x="0" y="0" flags="0x204"/>
      <component glyphName="circumflex" x="-83" y="207" flags="0x4"/>
    </TTGlyph>
    <TTGlyph name="Idieresis" xMin="27" yMin="0" xMax="352" yMax="907">
      <component glyphName="I" x="0" y="0" flags="0x204"/>
      <component glyphName="dieresis" x="-74" y="207" flags="0x4"/>
    </TTGlyph>
    <TTGlyph name="Igrave" xMin="27" yMin="0" xMax="316" yMax="945">
      <component glyphName="I" x="0" y="0" flags="0x204"/>
      <component glyphName="grave" x="-19" y="207" flags="0x4"/>
    </TTGlyph>
    <TTGlyph name="J" xMin="-74" yMin="-172" xMax="253" yMax="700">
      <contour>
        <pt x="-74" y="-172" on="1"/>
        <pt x="-71" y="-102" on="1"/>
        <pt x="-53" y="-102" on="1"/>
        <pt x="-18" y="-102" on="0"/>
        <pt x="13" y="-54" on="0"/>
        <pt x="23" y="-1" on="1"/>
        <pt x="147" y="700" on="1"/>
        <pt x="253" y="700" on="1"/>
        <pt x="125" y="-29" on="1"/>
        <pt x="112" y="-100" on="0"/>
        <pt x="23" y="-172" on="0"/>
        <pt x="-47" y="-172" on="1"/>
      </contour>
    </TTGlyph>
    <TTGlyph name="J.sc" xMin="-59" yMin="-140" xMax="222" yMax="567">
      <contour>
        <pt x="-59" y="-140" on="1"/>
        <pt x="-54" y="-63" on="1"/>
        <pt x="-31" y="-63" on="1"/>
        <pt x="-9" y="-63" on="0"/>
        <pt x="13" y="-31" on="0"/>
        <pt x="19" y="3" on="1"/>
        <pt x="119" y="567" on="1"/>
        <pt x="222" y="567" on="1"/>
        <pt x="118" y="-20" on="1"/>
        <pt x="107" y="-81" on="0"/>
        <pt x="28" y="-140" on="0"/>
        <pt x="-30" y="-140" on="1"/>
      </contour>
    </TTGlyph>
    <TTGlyph name="K" xMin="27" yMin="0" xMax="625" yMax="700">
      <contour>
        <pt x="384" y="0" on="1"/>
        <pt x="225" y="371" on="1"/>
        <pt x="507" y="700" on="1"/>
        <pt x="625" y="700" on="1"/>
        <pt x="343" y="371" on="1"/>
        <pt x="502" y="0" on="1"/>
      </contour>
      <contour>
        <pt x="27" y="0" on="1"/>
        <pt x="150" y="700" on="1"/>
        <pt x="257" y="700" on="1"/>
        <pt x="134" y="0" on="1"/>
      </contour>
    </TTGlyph>
    <TTGlyph name="K.sc" xMin="21" yMin="0" xMax="548" yMax="567">
      <contour>
        <pt x="333" y="0" on="1"/>
        <pt x="195" y="300" on="1"/>
        <pt x="432" y="567" on="1"/>
        <pt x="548" y="567" on="1"/>
        <pt x="311" y="300" on="1"/>
        <pt x="448" y="0" on="1"/>
      </contour>
      <contour>
        <pt x="21" y="0" on="1"/>
        <pt x="121" y="567" on="1"/>
        <pt x="223" y="567" on="1"/>
        <pt x="123" y="0" on="1"/>
      </contour>
    </TTGlyph>
    <TTGlyph name="L" xMin="27" yMin="0" xMax="419" yMax="700">
      <contour>
        <pt x="27" y="0" on="1"/>
        <pt x="150" y="700" on="1"/>
        <pt x="256" y="700" on="1"/>
        <pt x="151" y="99" on="1"/>
        <pt x="419" y="99" on="1"/>
        <pt x="401" y="0" on="1"/>
      </contour>
    </TTGlyph>
    <TTGlyph name="L.sc" xMin="21" yMin="0" xMax="365" yMax="567">
      <contour>
        <pt x="21" y="0" on="1"/>
        <pt x="121" y="567" on="1"/>
        <pt x="224" y="567" on="1"/>
        <pt x="141" y="99" on="1"/>
        <pt x="365" y="99" on="1"/>
        <pt x="347" y="0" on="1"/>
      </contour>
    </TTGlyph>
    <TTGlyph name="M" xMin="-4" yMin="0" xMax="698" yMax="700">
      <contour>
        <pt x="547" y="0" on="1"/>
        <pt x="582" y="497" on="1"/>
        <pt x="354" y="148" on="1"/>
        <pt x="247" y="497" on="1"/>
        <pt x="107" y="0" on="1"/>
        <pt x="-4" y="0" on="1"/>
        <pt x="203" y="700" on="1"/>
        <pt x="291" y="700" on="1"/>
        <pt x="389" y="351" on="1"/>
        <pt x="610" y="700" on="1"/>
        <pt x="698" y="700" on="1"/>
        <pt x="659" y="0" on="1"/>
      </contour>
    </TTGlyph>
    <TTGlyph name="M.sc" xMin="-6" yMin="0" xMax="604" yMax="567">
      <contour>
        <pt x="473" y="0" on="1"/>
        <pt x="494" y="382" on="1"/>
        <pt x="308" y="120" on="1"/>
        <pt x="214" y="381" on="1"/>
        <pt x="101" y="0" on="1"/>
        <pt x="-6" y="0" on="1"/>
        <pt x="170" y="567" on="1"/>
        <pt x="254" y="567" on="1"/>
        <pt x="342" y="308" on="1"/>
        <pt x="520" y="567" on="1"/>
        <pt x="604" y="567" on="1"/>
        <pt x="580" y="0" on="1"/>
      </contour>
    </TTGlyph>
    <TTGlyph name="N" xMin="27" yMin="0" xMax="646" yMax="700">
      <contour>
        <pt x="434" y="0" on="1"/>
        <pt x="227" y="528" on="1"/>
        <pt x="133" y="0" on="1"/>
        <pt x="27" y="0" on="1"/>
        <pt x="150" y="700" on="1"/>
        <pt x="258" y="700" on="1"/>
        <pt x="451" y="201" on="1"/>
        <pt x="539" y="700" on="1"/>
        <pt x="646" y="700" on="1"/>
        <pt x="522" y="0" on="1"/>
      </contour>
    </TTGlyph>
    <TTGlyph name="N.sc" xMin="21" yMin="0" xMax="556" yMax="567">
      <contour>
        <pt x="370" y="0" on="1"/>
        <pt x="193" y="392" on="1"/>
        <pt x="123" y="0" on="1"/>
        <pt x="21" y="0" on="1"/>
        <pt x="121" y="567" on="1"/>
        <pt x="221" y="567" on="1"/>
        <pt x="388" y="199" on="1"/>
        <pt x="453" y="567" on="1"/>
        <pt x="556" y="567" on="1"/>
        <pt x="455" y="0" on="1"/>
      </contour>
    </TTGlyph>
    <TTGlyph name="Ntilde" xMin="27" yMin="0" xMax="646" yMax="916">
      <component glyphName="N" x="0" y="0" flags="0x204"/>
      <component glyphName="tilde" x="69" y="207" flags="0x4"/>
    </TTGlyph>
    <TTGlyph name="O" xMin="45" yMin="-14" xMax="682" yMax="714">
      <contour>
        <pt x="299" y="-14" on="1"/>
        <pt x="241" y="-14" on="0"/>
        <pt x="147" y="27" on="0"/>
        <pt x="81" y="104" on="0"/>
        <pt x="45" y="211" on="0"/>
        <pt x="45" y="277" on="1"/>
        <pt x="45" y="373" on="0"/>
        <pt x="106" y="534" on="0"/>
        <pt x="210" y="650" on="0"/>
        <pt x="350" y="714" on="0"/>
        <pt x="428" y="714" on="1"/>
        <pt x="486" y="714" on="0"/>
        <pt x="580" y="673" on="0"/>
        <pt x="646" y="596" on="0"/>
        <pt x="682" y="489" on="0"/>
        <pt x="682" y="423" on="1"/>
        <pt x="682" y="327" on="0"/>
        <pt x="621" y="166" on="0"/>
        <pt x="516" y="50" on="0"/>
        <pt x="377" y="-14" on="0"/>
      </contour>
      <contour>
        <pt x="411" y="615" on="1"/>
        <pt x="352" y="615" on="0"/>
        <pt x="260" y="561" on="0"/>
        <pt x="196" y="469" on="0"/>
        <pt x="162" y="350" on="0"/>
        <pt x="162" y="286" on="1"/>
        <pt x="162" y="243" on="0"/>
        <pt x="181" y="170" on="0"/>
        <pt x="219" y="116" on="0"/>
        <pt x="277" y="85" on="0"/>
        <pt x="317" y="85" on="1"/>
        <pt x="375" y="85" on="0"/>
        <pt x="468" y="139" on="0"/>
        <pt x="531" y="231" on="0"/>
        <pt x="565" y="349" on="0"/>
        <pt x="565" y="414" on="1"/>
        <pt x="565" y="457" on="0"/>
        <pt x="546" y="530" on="0"/>
        <pt x="508" y="584" on="0"/>
        <pt x="450" y="615" on="0"/>
      </contour>
    </TTGlyph>
    <TTGlyph name="O.sc" xMin="34" yMin="-11" xMax="587" yMax="579">
      <contour>
        <pt x="259" y="-11" on="1"/>
        <pt x="208" y="-11" on="0"/>
        <pt x="124" y="23" on="0"/>
        <pt x="66" y="86" on="0"/>
        <pt x="34" y="175" on="0"/>
        <pt x="34" y="229" on="1"/>
        <pt x="34" y="306" on="0"/>
        <pt x="86" y="435" on="0"/>
        <pt x="176" y="528" on="0"/>
        <pt x="295" y="579" on="0"/>
        <pt x="362" y="579" on="1"/>
        <pt x="413" y="579" on="0"/>
        <pt x="497" y="545" on="0"/>
        <pt x="555" y="482" on="0"/>
        <pt x="587" y="393" on="0"/>
        <pt x="587" y="338" on="1"/>
        <pt x="587" y="261" on="0"/>
        <pt x="535" y="133" on="0"/>
        <pt x="445" y="40" on="0"/>
        <pt x="326" y="-11" on="0"/>
      </contour>
      <contour>
        <pt x="345" y="480" on="1"/>
        <pt x="298" y="480" on="0"/>
        <pt x="224" y="441" on="0"/>
        <pt x="173" y="375" on="0"/>
        <pt x="147" y="288" on="0"/>
        <pt x="147" y="239" on="1"/>
        <pt x="147" y="173" on="0"/>
        <pt x="210" y="87" on="0"/>
        <pt x="276" y="87" on="1"/>
        <pt x="324" y="87" on="0"/>
        <pt x="397" y="126" on="0"/>
        <pt x="447" y="192" on="0"/>
        <pt x="473" y="280" on="0"/>
        <pt x="473" y="329" on="1"/>
        <pt x="473" y="395" on="0"/>
        <pt x="411" y="480" on="0"/>
      </contour>
    </TTGlyph>
    <TTGlyph name="OE" xMin="45" yMin="-14" xMax="1001" yMax="714">
      <contour>
        <pt x="609" y="0" on="1"/>
        <pt x="501" y="0" on="1"/>
        <pt x="513" y="73" on="1"/>
        <pt x="458" y="26" on="0"/>
        <pt x="353" y="-14" on="0"/>
        <pt x="297" y="-14" on="1"/>
        <pt x="240" y="-14" on="0"/>
        <pt x="147" y="27" on="0"/>
        <pt x="81" y="104" on="0"/>
        <pt x="45" y="212" on="0"/>
        <pt x="45" y="278" on="1"/>
        <pt x="45" y="374" on="0"/>
        <pt x="106" y="535" on="0"/>
        <pt x="210" y="650" on="0"/>
        <pt x="348" y="714" on="0"/>
        <pt x="426" y="714" on="1"/>
        <pt x="482" y="714" on="0"/>
        <pt x="573" y="674" on="0"/>
        <pt x="611" y="627" on="1"/>
        <pt x="624" y="699" on="1"/>
        <pt x="1001" y="699" on="1"/>
        <pt x="984" y="601" on="1"/>
        <pt x="713" y="601" on="1"/>
        <pt x="681" y="415" on="1"/>
        <pt x="888" y="415" on="1"/>
        <pt x="871" y="316" on="1"/>
        <pt x="663" y="316" on="1"/>
        <pt x="625" y="99" on="1"/>
        <pt x="903" y="99" on="1"/>
        <pt x="886" y="0" on="1"/>
      </contour>
      <contour>
        <pt x="408" y="615" on="1"/>
        <pt x="349" y="615" on="0"/>
        <pt x="257" y="561" on="0"/>
        <pt x="194" y="469" on="0"/>
        <pt x="161" y="350" on="0"/>
        <pt x="161" y="285" on="1"/>
        <pt x="161" y="242" on="0"/>
        <pt x="180" y="169" on="0"/>
        <pt x="218" y="115" on="0"/>
        <pt x="276" y="85" on="0"/>
        <pt x="315" y="85" on="1"/>
        <pt x="374" y="85" on="0"/>
        <pt x="466" y="139" on="0"/>
        <pt x="529" y="231" on="0"/>
        <pt x="562" y="350" on="0"/>
        <pt x="562" y="415" on="1"/>
        <pt x="562" y="458" on="0"/>
        <pt x="543" y="531" on="0"/>
        <pt x="505" y="585" on="0"/>
        <pt x="447" y="615" on="0"/>
      </contour>
    </TTGlyph>
    <TTGlyph name="OE.sc" xMin="34" yMin="-11" xMax="862" yMax="579">
      <contour>
        <pt x="532" y="0" on="1"/>
        <pt x="425" y="0" on="1"/>
        <pt x="433" y="45" on="1"/>
        <pt x="396" y="18" on="0"/>
        <pt x="307" y="-11" on="0"/>
        <pt x="259" y="-11" on="1"/>
        <pt x="208" y="-11" on="0"/>
        <pt x="125" y="23" on="0"/>
        <pt x="66" y="86" on="0"/>
        <pt x="34" y="175" on="0"/>
        <pt x="34" y="229" on="1"/>
        <pt x="34" y="306" on="0"/>
        <pt x="86" y="435" on="0"/>
        <pt x="176" y="528" on="0"/>
        <pt x="296" y="579" on="0"/>
        <pt x="363" y="579" on="1"/>
        <pt x="411" y="579" on="0"/>
        <pt x="490" y="549" on="0"/>
        <pt x="518" y="522" on="1"/>
        <pt x="526" y="567" on="1"/>
        <pt x="862" y="567" on="1"/>
        <pt x="845" y="468" on="1"/>
        <pt x="614" y="468" on="1"/>
        <pt x="592" y="345" on="1"/>
        <pt x="770" y="345" on="1"/>
        <pt x="752" y="246" on="1"/>
        <pt x="575" y="246" on="1"/>
        <pt x="549" y="99" on="1"/>
        <pt x="787" y="99" on="1"/>
        <pt x="770" y="0" on="1"/>
      </contour>
      <contour>
        <pt x="346" y="480" on="1"/>
        <pt x="298" y="480" on="0"/>
        <pt x="225" y="442" on="0"/>
        <pt x="174" y="376" on="0"/>
        <pt x="148" y="288" on="0"/>
        <pt x="148" y="239" on="1"/>
        <pt x="148" y="172" on="0"/>
        <pt x="211" y="87" on="0"/>
        <pt x="277" y="87" on="1"/>
        <pt x="324" y="87" on="0"/>
        <pt x="398" y="126" on="0"/>
        <pt x="449" y="192" on="0"/>
        <pt x="475" y="279" on="0"/>
        <pt x="475" y="328" on="1"/>
        <pt x="475" y="395" on="0"/>
        <pt x="411" y="480" on="0"/>
      </contour>
    </TTGlyph>
    <TTGlyph name="Oacute" xMin="45" yMin="-14" xMax="682" yMax="945">
      <component glyphName="O" x="0" y="0" flags="0x204"/>
      <component glyphName="acute" x="199" y="207" flags="0x4"/>
    </TTGlyph>
    <TTGlyph name="Ocircumflex" xMin="45" yMin="-14" xMax="682" yMax="954">
      <component glyphName="O" x="0" y="0" flags="0x204"/>
      <component glyphName="circumflex" x="136" y="207" flags="0x4"/>
    </TTGlyph>
    <TTGlyph name="Odieresis" xMin="45" yMin="-14" xMax="682" yMax="907">
      <component glyphName="O" x="0" y="0" flags="0x204"/>
      <component glyphName="dieresis" x="147" y="207" flags="0x4"/>
    </TTGlyph>
    <TTGlyph name="Ograve" xMin="45" yMin="-14" xMax="682" yMax="945">
      <component glyphName="O" x="0" y="0" flags="0x204"/>
      <component glyphName="grave" x="200" y="207" flags="0x4"/>
    </TTGlyph>
    <TTGlyph name="Oslash" xMin="5" yMin="-30" xMax="708" yMax="716">
      <contour>
        <pt x="301" y="-13" on="1"/>
        <pt x="219" y="-13" on="0"/>
        <pt x="159" y="28" on="1"/>
        <pt x="116" y="-30" on="1"/>
        <pt x="5" y="-30" on="1"/>
        <pt x="96" y="79" on="1"/>
        <pt x="72" y="117" on="0"/>
        <pt x="47" y="221" on="0"/>
        <pt x="47" y="278" on="1"/>
        <pt x="47" y="374" on="0"/>
        <pt x="108" y="534" on="0"/>
        <pt x="212" y="650" on="0"/>
        <pt x="351" y="714" on="0"/>
        <pt x="429" y="714" on="1"/>
        <pt x="509" y="714" on="0"/>
        <pt x="567" y="675" on="1"/>
        <pt x="598" y="716" on="1"/>
        <pt x="708" y="716" on="1"/>
        <pt x="631" y="623" on="1"/>
        <pt x="657" y="585" on="0"/>
        <pt x="684" y="480" on="0"/>
        <pt x="684" y="421" on="1"/>
        <pt x="684" y="325" on="0"/>
        <pt x="623" y="166" on="0"/>
        <pt x="519" y="51" on="0"/>
        <pt x="379" y="-13" on="0"/>
      </contour>
      <contour>
        <pt x="234" y="112" on="1"/>
        <pt x="254" y="98" on="0"/>
        <pt x="295" y="87" on="0"/>
        <pt x="319" y="87" on="1"/>
        <pt x="378" y="87" on="0"/>
        <pt x="470" y="141" on="0"/>
        <pt x="534" y="233" on="0"/>
        <pt x="567" y="355" on="0"/>
        <pt x="567" y="422" on="1"/>
        <pt x="567" y="448" on="0"/>
        <pt x="559" y="512" on="0"/>
        <pt x="551" y="532" on="1"/>
      </contour>
      <contour>
        <pt x="411" y="613" on="1"/>
        <pt x="352" y="613" on="0"/>
        <pt x="261" y="559" on="0"/>
        <pt x="198" y="468" on="0"/>
        <pt x="165" y="349" on="0"/>
        <pt x="165" y="284" on="1"/>
        <pt x="165" y="258" on="0"/>
        <pt x="171" y="198" on="0"/>
        <pt x="177" y="172" on="1"/>
        <pt x="493" y="589" on="1"/>
        <pt x="473" y="603" on="0"/>
        <pt x="434" y="613" on="0"/>
      </contour>
    </TTGlyph>
    <TTGlyph name="Otilde" xMin="45" yMin="-14" xMax="682" yMax="916">
      <component glyphName="O" x="0" y="0" flags="0x204"/>
      <component glyphName="tilde" x="97" y="207" flags="0x4"/>
    </TTGlyph>
    <TTGlyph name="P" xMin="27" yMin="0" xMax="559" yMax="700">
      <contour>
        <pt x="177" y="240" on="1"/>
        <pt x="135" y="0" on="1"/>
        <pt x="27" y="0" on="1"/>
        <pt x="150" y="700" on="1"/>
        <pt x="337" y="700" on="1"/>
        <pt x="388" y="700" on="0"/>
        <pt x="470" y="688" on="0"/>
        <pt x="528" y="653" on="0"/>
        <pt x="559" y="590" on="0"/>
        <pt x="559" y="538" on="1"/>
        <pt x="559" y="451" on="0"/>
        <pt x="506" y="336" on="0"/>
        <pt x="426" y="268" on="0"/>
        <pt x="335" y="240" on="0"/>
        <pt x="297" y="240" on="1"/>
      </contour>
      <contour>
        <pt x="243" y="607" on="1"/>
        <pt x="195" y="337" on="1"/>
        <pt x="299" y="337" on="1"/>
        <pt x="342" y="337" on="0"/>
        <pt x="399" y="364" on="0"/>
        <pt x="434" y="412" on="0"/>
        <pt x="448" y="478" on="0"/>
        <pt x="448" y="517" on="1"/>
        <pt x="448" y="565" on="0"/>
        <pt x="398" y="607" on="0"/>
        <pt x="337" y="607" on="1"/>
      </contour>
    </TTGlyph>
    <TTGlyph name="P.sc" xMin="21" yMin="0" xMax="487" yMax="567">
      <contour>
        <pt x="156" y="187" on="1"/>
        <pt x="124" y="0" on="1"/>
        <pt x="21" y="0" on="1"/>
        <pt x="121" y="567" on="1"/>
        <pt x="274" y="567" on="1"/>
        <pt x="325" y="567" on="0"/>
        <pt x="404" y="557" on="0"/>
        <pt x="459" y="528" on="0"/>
        <pt x="487" y="476" on="0"/>
        <pt x="487" y="433" on="1"/>
        <pt x="487" y="358" on="0"/>
        <pt x="439" y="263" on="0"/>
        <pt x="367" y="208" on="0"/>
        <pt x="285" y="187" on="0"/>
        <pt x="252" y="187" on="1"/>
      </contour>
      <contour>
        <pt x="209" y="481" on="1"/>
        <pt x="173" y="283" on="1"/>
        <pt x="256" y="283" on="1"/>
        <pt x="293" y="283" on="0"/>
        <pt x="341" y="299" on="0"/>
        <pt x="369" y="332" on="0"/>
        <pt x="381" y="381" on="0"/>
        <pt x="381" y="414" on="1"/>
        <pt x="381" y="449" on="0"/>
        <pt x="341" y="481" on="0"/>
        <pt x="290" y="481" on="1"/>
      </contour>
    </TTGlyph>
    <TTGlyph name="Q" xMin="45" yMin="-14" xMax="682" yMax="714">
      <contour>
        <pt x="548" y="-1" on="1"/>
        <pt x="496" y="54" on="1"/>
        <pt x="451" y="19" on="0"/>
        <pt x="352" y="-14" on="0"/>
        <pt x="299" y="-14" on="1"/>
        <pt x="241" y="-14" on="0"/>
        <pt x="147" y="27" on="0"/>
        <pt x="81" y="104" on="0"/>
        <pt x="45" y="211" on="0"/>
        <pt x="45" y="277" on="1"/>
        <pt x="45" y="373" on="0"/>
        <pt x="106" y="534" on="0"/>
        <pt x="210" y="650" on="0"/>
        <pt x="350" y="714" on="0"/>
        <pt x="428" y="714" on="1"/>
        <pt x="486" y="714" on="0"/>
        <pt x="580" y="673" on="0"/>
        <pt x="646" y="596" on="0"/>
        <pt x="682" y="489" on="0"/>
        <pt x="682" y="423" on="1"/>
        <pt x="682" y="338" on="0"/>
        <pt x="628" y="192" on="0"/>
        <pt x="574" y="118" on="1"/>
        <pt x="621" y="68" on="1"/>
      </contour>
      <contour>
        <pt x="411" y="615" on="1"/>
        <pt x="352" y="615" on="0"/>
        <pt x="259" y="561" on="0"/>
        <pt x="195" y="469" on="0"/>
        <pt x="162" y="350" on="0"/>
        <pt x="162" y="286" on="1"/>
        <pt x="162" y="242" on="0"/>
        <pt x="181" y="169" on="0"/>
        <pt x="219" y="115" on="0"/>
        <pt x="277" y="85" on="0"/>
        <pt x="317" y="85" on="1"/>
        <pt x="344" y="85" on="0"/>
        <pt x="400" y="99" on="0"/>
        <pt x="426" y="119" on="1"/>
        <pt x="360" y="198" on="1"/>
        <pt x="432" y="269" on="1"/>
        <pt x="501" y="183" on="1"/>
        <pt x="514" y="206" on="0"/>
        <pt x="538" y="254" on="0"/>
        <pt x="557" y="308" on="0"/>
        <pt x="568" y="372" on="0"/>
        <pt x="568" y="413" on="1"/>
        <pt x="568" y="456" on="0"/>
        <pt x="549" y="530" on="0"/>
        <pt x="510" y="584" on="0"/>
        <pt x="451" y="615" on="0"/>
      </contour>
    </TTGlyph>
    <TTGlyph name="Q.sc" xMin="34" yMin="-11" xMax="587" yMax="579">
      <contour>
        <pt x="470" y="-7" on="1"/>
        <pt x="424" y="38" on="1"/>
        <pt x="389" y="14" on="0"/>
        <pt x="304" y="-11" on="0"/>
        <pt x="259" y="-11" on="1"/>
        <pt x="208" y="-11" on="0"/>
        <pt x="124" y="23" on="0"/>
        <pt x="66" y="86" on="0"/>
        <pt x="34" y="175" on="0"/>
        <pt x="34" y="229" on="1"/>
        <pt x="34" y="306" on="0"/>
        <pt x="86" y="435" on="0"/>
        <pt x="176" y="528" on="0"/>
        <pt x="295" y="579" on="0"/>
        <pt x="362" y="579" on="1"/>
        <pt x="413" y="579" on="0"/>
        <pt x="497" y="545" on="0"/>
        <pt x="555" y="482" on="0"/>
        <pt x="587" y="393" on="0"/>
        <pt x="587" y="338" on="1"/>
        <pt x="587" y="270" on="0"/>
        <pt x="540" y="155" on="0"/>
        <pt x="501" y="105" on="1"/>
        <pt x="543" y="63" on="1"/>
      </contour>
      <contour>
        <pt x="345" y="480" on="1"/>
        <pt x="298" y="480" on="0"/>
        <pt x="224" y="441" on="0"/>
        <pt x="173" y="375" on="0"/>
        <pt x="147" y="287" on="0"/>
        <pt x="147" y="238" on="1"/>
        <pt x="147" y="172" on="0"/>
        <pt x="210" y="87" on="0"/>
        <pt x="276" y="87" on="1"/>
        <pt x="318" y="87" on="0"/>
        <pt x="353" y="107" on="1"/>
        <pt x="299" y="164" on="1"/>
        <pt x="371" y="236" on="1"/>
        <pt x="428" y="175" on="1"/>
        <pt x="435" y="187" on="0"/>
        <pt x="451" y="216" on="0"/>
        <pt x="464" y="252" on="0"/>
        <pt x="472" y="299" on="0"/>
        <pt x="472" y="330" on="1"/>
        <pt x="472" y="396" on="0"/>
        <pt x="411" y="480" on="0"/>
      </contour>
    </TTGlyph>
    <TTGlyph name="R" xMin="27" yMin="0" xMax="559" yMax="700">
      <contour>
        <pt x="389" y="0" on="1"/>
        <pt x="303" y="269" on="1"/>
        <pt x="181" y="269" on="1"/>
        <pt x="134" y="0" on="1"/>
        <pt x="27" y="0" on="1"/>
        <pt x="150" y="700" on="1"/>
        <pt x="373" y="700" on="1"/>
        <pt x="413" y="700" on="0"/>
        <pt x="482" y="684" on="0"/>
        <pt x="531" y="646" on="0"/>
        <pt x="559" y="586" on="0"/>
        <pt x="559" y="541" on="1"/>
        <pt x="559" y="496" on="0"/>
        <pt x="535" y="422" on="0"/>
        <pt x="495" y="361" on="0"/>
        <pt x="440" y="314" on="0"/>
        <pt x="409" y="297" on="1"/>
        <pt x="501" y="0" on="1"/>
      </contour>
      <contour>
        <pt x="242" y="613" on="1"/>
        <pt x="199" y="370" on="1"/>
        <pt x="300" y="370" on="1"/>
        <pt x="372" y="370" on="0"/>
        <pt x="446" y="442" on="0"/>
        <pt x="446" y="523" on="1"/>
        <pt x="446" y="565" on="0"/>
        <pt x="398" y="613" on="0"/>
        <pt x="339" y="613" on="1"/>
      </contour>
    </TTGlyph>
    <TTGlyph name="R.sc" xMin="21" yMin="0" xMax="487" yMax="567">
      <contour>
        <pt x="337" y="0" on="1"/>
        <pt x="261" y="211" on="1"/>
        <pt x="161" y="211" on="1"/>
        <pt x="124" y="0" on="1"/>
        <pt x="21" y="0" on="1"/>
        <pt x="121" y="567" on="1"/>
        <pt x="324" y="567" on="1"/>
        <pt x="359" y="567" on="0"/>
        <pt x="419" y="554" on="0"/>
        <pt x="462" y="523" on="0"/>
        <pt x="487" y="473" on="0"/>
        <pt x="487" y="436" on="1"/>
        <pt x="487" y="397" on="0"/>
        <pt x="467" y="336" on="0"/>
        <pt x="433" y="289" on="0"/>
        <pt x="387" y="253" on="0"/>
        <pt x="362" y="238" on="1"/>
        <pt x="444" y="0" on="1"/>
      </contour>
      <contour>
        <pt x="208" y="482" on="1"/>
        <pt x="178" y="308" on="1"/>
        <pt x="246" y="308" on="1"/>
        <pt x="288" y="308" on="0"/>
        <pt x="339" y="325" on="0"/>
        <pt x="367" y="354" on="0"/>
        <pt x="377" y="394" on="0"/>
        <pt x="377" y="418" on="1"/>
        <pt x="377" y="448" on="0"/>
        <pt x="337" y="482" on="0"/>
        <pt x="283" y="482" on="1"/>
      </contour>
    </TTGlyph>
    <TTGlyph name="S" xMin="6" yMin="-14" xMax="535" yMax="714">
      <contour>
        <pt x="206" y="-14" on="1"/>
        <pt x="137" y="-14" on="0"/>
        <pt x="32" y="13" on="0"/>
        <pt x="6" y="33" on="1"/>
        <pt x="41" y="155" on="1"/>
        <pt x="65" y="125" on="0"/>
        <pt x="160" y="85" on="0"/>
        <pt x="226" y="85" on="1"/>
        <pt x="289" y="85" on="0"/>
        <pt x="368" y="142" on="0"/>
        <pt x="368" y="196" on="1"/>
        <pt x="368" y="218" on="0"/>
        <pt x="348" y="251" on="0"/>
        <pt x="312" y="278" on="0"/>
        <pt x="265" y="302" on="0"/>
        <pt x="238" y="315" on="1"/>
        <pt x="207" y="330" on="0"/>
        <pt x="149" y="360" on="0"/>
        <pt x="105" y="398" on="0"/>
        <pt x="78" y="447" on="0"/>
        <pt x="78" y="482" on="1"/>
        <pt x="78" y="524" on="0"/>
        <pt x="109" y="607" on="0"/>
        <pt x="173" y="673" on="0"/>
        <pt x="274" y="714" on="0"/>
        <pt x="344" y="714" on="1"/>
        <pt x="374" y="714" on="0"/>
        <pt x="433" y="706" on="0"/>
        <pt x="483" y="692" on="0"/>
        <pt x="523" y="674" on="0"/>
        <pt x="535" y="664" on="1"/>
        <pt x="504" y="555" on="1"/>
        <pt x="457" y="587" on="0"/>
        <pt x="375" y="616" on="0"/>
        <pt x="332" y="616" on="1"/>
        <pt x="308" y="616" on="0"/>
        <pt x="258" y="602" on="0"/>
        <pt x="218" y="575" on="0"/>
        <pt x="192" y="535" on="0"/>
        <pt x="192" y="509" on="1"/>
        <pt x="192" y="489" on="0"/>
        <pt x="210" y="461" on="0"/>
        <pt x="240" y="439" on="0"/>
        <pt x="280" y="420" on="0"/>
        <pt x="303" y="411" on="1"/>
        <pt x="337" y="396" on="0"/>
        <pt x="403" y="365" on="0"/>
        <pt x="456" y="322" on="0"/>
        <pt x="489" y="262" on="0"/>
        <pt x="489" y="219" on="1"/>
        <pt x="489" y="171" on="0"/>
        <pt x="462" y="86" on="0"/>
        <pt x="397" y="23" on="0"/>
        <pt x="288" y="-14" on="0"/>
      </contour>
    </TTGlyph>
    <TTGlyph name="S.sc" xMin="4" yMin="-11" xMax="459" yMax="579">
      <contour>
        <pt x="179" y="-11" on="1"/>
        <pt x="116" y="-11" on="0"/>
        <pt x="25" y="14" on="0"/>
        <pt x="4" y="30" on="1"/>
        <pt x="37" y="147" on="1"/>
        <pt x="55" y="124" on="0"/>
        <pt x="137" y="87" on="0"/>
        <pt x="200" y="87" on="1"/>
        <pt x="250" y="87" on="0"/>
        <pt x="306" y="119" on="0"/>
        <pt x="306" y="161" on="1"/>
        <pt x="306" y="179" on="0"/>
        <pt x="288" y="206" on="0"/>
        <pt x="257" y="227" on="0"/>
        <pt x="218" y="243" on="0"/>
        <pt x="197" y="251" on="1"/>
        <pt x="173" y="260" on="0"/>
        <pt x="124" y="282" on="0"/>
        <pt x="85" y="312" on="0"/>
        <pt x="61" y="355" on="0"/>
        <pt x="61" y="386" on="1"/>
        <pt x="61" y="416" on="0"/>
        <pt x="86" y="483" on="0"/>
        <pt x="142" y="541" on="0"/>
        <pt x="230" y="579" on="0"/>
        <pt x="292" y="579" on="1"/>
        <pt x="320" y="579" on="0"/>
        <pt x="373" y="571" on="0"/>
        <pt x="417" y="558" on="0"/>
        <pt x="450" y="542" on="0"/>
        <pt x="459" y="535" on="1"/>
        <pt x="431" y="430" on="1"/>
        <pt x="390" y="455" on="0"/>
        <pt x="317" y="481" on="0"/>
        <pt x="278" y="481" on="1"/>
        <pt x="261" y="481" on="0"/>
        <pt x="223" y="475" on="0"/>
        <pt x="191" y="459" on="0"/>
        <pt x="169" y="433" on="0"/>
        <pt x="169" y="412" on="1"/>
        <pt x="169" y="397" on="0"/>
        <pt x="185" y="375" on="0"/>
        <pt x="211" y="358" on="0"/>
        <pt x="246" y="344" on="0"/>
        <pt x="265" y="338" on="1"/>
        <pt x="292" y="329" on="0"/>
        <pt x="348" y="306" on="0"/>
        <pt x="395" y="271" on="0"/>
        <pt x="424" y="219" on="0"/>
        <pt x="424" y="181" on="1"/>
        <pt x="424" y="152" on="0"/>
        <pt x="404" y="85" on="0"/>
        <pt x="350" y="28" on="0"/>
        <pt x="254" y="-11" on="0"/>
      </contour>
    </TTGlyph>
    <TTGlyph name="Scaron" xMin="6" yMin="-14" xMax="535" yMax="950">
      <component glyphName="S" x="0" y="0" flags="0x204"/>
      <component glyphName="caron" x="52" y="207" flags="0x4"/>
    </TTGlyph>
    <TTGlyph name="T" xMin="86" yMin="0" xMax="570" yMax="700">
      <contour>
        <pt x="372" y="601" on="1"/>
        <pt x="267" y="0" on="1"/>
        <pt x="160" y="0" on="1"/>
        <pt x="266" y="601" on="1"/>
        <pt x="86" y="601" on="1"/>
        <pt x="104" y="700" on="1"/>
        <pt x="570" y="700" on="1"/>
        <pt x="552" y="601" on="1"/>
      </contour>
    </TTGlyph>
    <TTGlyph name="T.sc" xMin="56" yMin="0" xMax="486" yMax="567">
      <contour>
        <pt x="314" y="468" on="1"/>
        <pt x="231" y="0" on="1"/>
        <pt x="128" y="0" on="1"/>
        <pt x="210" y="468" on="1"/>
        <pt x="56" y="468" on="1"/>
        <pt x="74" y="567" on="1"/>
        <pt x="486" y="567" on="1"/>
        <pt x="469" y="468" on="1"/>
      </contour>
    </TTGlyph>
    <TTGlyph name="Thorn" xMin="27" yMin="0" xMax="538" yMax="700">
      <contour>
        <pt x="156" y="121" on="1"/>
        <pt x="135" y="0" on="1"/>
        <pt x="27" y="0" on="1"/>
        <pt x="150" y="700" on="1"/>
        <pt x="258" y="700" on="1"/>
        <pt x="237" y="581" on="1"/>
        <pt x="315" y="581" on="1"/>
        <pt x="366" y="581" on="0"/>
        <pt x="448" y="569" on="0"/>
        <pt x="506" y="534" on="0"/>
        <pt x="538" y="471" on="0"/>
        <pt x="538" y="419" on="1"/>
        <pt x="538" y="332" on="0"/>
        <pt x="485" y="217" on="0"/>
        <pt x="405" y="149" on="0"/>
        <pt x="314" y="121" on="0"/>
        <pt x="276" y="121" on="1"/>
      </contour>
      <contour>
        <pt x="221" y="489" on="1"/>
        <pt x="174" y="218" on="1"/>
        <pt x="278" y="218" on="1"/>
        <pt x="321" y="218" on="0"/>
        <pt x="378" y="245" on="0"/>
        <pt x="413" y="293" on="0"/>
        <pt x="427" y="360" on="0"/>
        <pt x="427" y="399" on="1"/>
        <pt x="427" y="447" on="0"/>
        <pt x="377" y="489" on="0"/>
        <pt x="316" y="489" on="1"/>
      </contour>
    </TTGlyph>
    <TTGlyph name="U" xMin="64" yMin="-14" xMax="666" yMax="700">
      <contour>
        <pt x="279" y="-14" on="1"/>
        <pt x="169" y="-14" on="0"/>
        <pt x="64" y="103" on="0"/>
        <pt x="64" y="205" on="1"/>
        <pt x="64" y="248" on="0"/>
        <pt x="73" y="298" on="1"/>
        <pt x="144" y="700" on="1"/>
        <pt x="250" y="700" on="1"/>
        <pt x="187" y="343" on="1"/>
        <pt x="182" y="314" on="0"/>
        <pt x="175" y="257" on="0"/>
        <pt x="175" y="231" on="1"/>
        <pt x="175" y="199" on="0"/>
        <pt x="187" y="146" on="0"/>
        <pt x="215" y="107" on="0"/>
        <pt x="261" y="85" on="0"/>
        <pt x="296" y="85" on="1"/>
        <pt x="345" y="85" on="0"/>
        <pt x="413" y="128" on="0"/>
        <pt x="459" y="199" on="0"/>
        <pt x="487" y="292" on="0"/>
        <pt x="496" y="343" on="1"/>
        <pt x="559" y="700" on="1"/>
        <pt x="666" y="700" on="1"/>
        <pt x="595" y="298" on="1"/>
        <pt x="582" y="226" on="0"/>
        <pt x="530" y="111" on="0"/>
        <pt x="451" y="30" on="0"/>
        <pt x="345" y="-14" on="0"/>
      </contour>
    </TTGlyph>
    <TTGlyph name="U.sc" xMin="51" yMin="-11" xMax="570" yMax="567">
      <contour>
        <pt x="240" y="-11" on="1"/>
        <pt x="143" y="-11" on="0"/>
        <pt x="51" y="86" on="0"/>
        <pt x="51" y="171" on="1"/>
        <pt x="51" y="208" on="0"/>
        <pt x="58" y="243" on="1"/>
        <pt x="116" y="567" on="1"/>
        <pt x="217" y="567" on="1"/>
        <pt x="167" y="278" on="1"/>
        <pt x="159" y="232" on="0"/>
        <pt x="159" y="198" on="1"/>
        <pt x="159" y="148" on="0"/>
        <pt x="201" y="87" on="0"/>
        <pt x="258" y="87" on="1"/>
        <pt x="297" y="87" on="0"/>
        <pt x="350" y="117" on="0"/>
        <pt x="387" y="169" on="0"/>
        <pt x="409" y="238" on="0"/>
        <pt x="416" y="278" on="1"/>
        <pt x="467" y="567" on="1"/>
        <pt x="570" y="567" on="1"/>
        <pt x="512" y="243" on="1"/>
        <pt x="501" y="185" on="0"/>
        <pt x="458" y="91" on="0"/>
        <pt x="390" y="25" on="0"/>
        <pt x="298" y="-11" on="0"/>
      </contour>
    </TTGlyph>
    <TTGlyph name="Uacute" xMin="64" yMin="-14" xMax="666" yMax="945">
      <component glyphName="U" x="0" y="0" flags="0x204"/>
      <component glyphName="acute" x="179" y="207" flags="0x4"/>
    </TTGlyph>
    <TTGlyph name="Ucircumflex" xMin="64" yMin="-14" xMax="666" yMax="954">
      <component glyphName="U" x="0" y="0" flags="0x204"/>
      <component glyphName="circumflex" x="115" y="207" flags="0x4"/>
    </TTGlyph>
    <TTGlyph name="Udieresis" xMin="64" yMin="-14" xMax="666" yMax="907">
      <component glyphName="U" x="0" y="0" flags="0x204"/>
      <component glyphName="dieresis" x="127" y="207" flags="0x4"/>
    </TTGlyph>
    <TTGlyph name="Ugrave" xMin="64" yMin="-14" xMax="666" yMax="945">
      <component glyphName="U" x="0" y="0" flags="0x204"/>
      <component glyphName="grave" x="180" y="207" flags="0x4"/>
    </TTGlyph>
    <TTGlyph name="V" xMin="73" yMin="0" xMax="657" yMax="700">
      <contour>
        <pt x="305" y="0" on="1"/>
        <pt x="180" y="0" on="1"/>
        <pt x="73" y="700" on="1"/>
        <pt x="184" y="700" on="1"/>
        <pt x="265" y="130" on="1"/>
        <pt x="546" y="700" on="1"/>
        <pt x="657" y="700" on="1"/>
      </contour>
    </TTGlyph>
    <TTGlyph name="V.sc" xMin="51" yMin="0" xMax="565" yMax="567">
      <contour>
        <pt x="274" y="0" on="1"/>
        <pt x="148" y="0" on="1"/>
        <pt x="51" y="567" on="1"/>
        <pt x="158" y="567" on="1"/>
        <pt x="234" y="135" on="1"/>
        <pt x="459" y="567" on="1"/>
        <pt x="565" y="567" on="1"/>
      </contour>
    </TTGlyph>
    <TTGlyph name="W" xMin="90" yMin="0" xMax="962" yMax="700">
      <contour>
        <pt x="650" y="0" on="1"/>
        <pt x="549" y="0" on="1"/>
        <pt x="497" y="537" on="1"/>
        <pt x="253" y="0" on="1"/>
        <pt x="148" y="0" on="1"/>
        <pt x="90" y="700" on="1"/>
        <pt x="202" y="700" on="1"/>
        <pt x="236" y="147" on="1"/>
        <pt x="484" y="691" on="1"/>
        <pt x="565" y="691" on="1"/>
        <pt x="623" y="152" on="1"/>
        <pt x="851" y="700" on="1"/>
        <pt x="962" y="700" on="1"/>
      </contour>
    </TTGlyph>
    <TTGlyph name="W.sc" xMin="68" yMin="0" xMax="810" yMax="567">
      <contour>
        <pt x="549" y="0" on="1"/>
        <pt x="460" y="0" on="1"/>
        <pt x="407" y="382" on="1"/>
        <pt x="218" y="0" on="1"/>
        <pt x="123" y="0" on="1"/>
        <pt x="68" y="567" on="1"/>
        <pt x="175" y="567" on="1"/>
        <pt x="212" y="161" on="1"/>
        <pt x="404" y="567" on="1"/>
        <pt x="473" y="567" on="1"/>
        <pt x="530" y="171" on="1"/>
        <pt x="703" y="567" on="1"/>
        <pt x="810" y="567" on="1"/>
      </contour>
    </TTGlyph>
    <TTGlyph name="X" xMin="-43" yMin="0" xMax="626" yMax="700">
      <contour>
        <pt x="392" y="0" on="1"/>
        <pt x="279" y="276" on="1"/>
        <pt x="78" y="0" on="1"/>
        <pt x="-43" y="0" on="1"/>
        <pt x="237" y="349" on="1"/>
        <pt x="88" y="700" on="1"/>
        <pt x="211" y="700" on="1"/>
        <pt x="315" y="436" on="1"/>
        <pt x="507" y="700" on="1"/>
        <pt x="626" y="700" on="1"/>
        <pt x="355" y="362" on="1"/>
        <pt x="512" y="0" on="1"/>
      </contour>
    </TTGlyph>
    <TTGlyph name="X.sc" xMin="-41" yMin="0" xMax="545" yMax="567">
      <contour>
        <pt x="337" y="0" on="1"/>
        <pt x="243" y="209" on="1"/>
        <pt x="79" y="0" on="1"/>
        <pt x="-41" y="0" on="1"/>
        <pt x="204" y="283" on="1"/>
        <pt x="69" y="567" on="1"/>
        <pt x="188" y="567" on="1"/>
        <pt x="278" y="367" on="1"/>
        <pt x="426" y="567" on="1"/>
        <pt x="545" y="567" on="1"/>
        <pt x="318" y="294" on="1"/>
        <pt x="457" y="0" on="1"/>
      </contour>
    </TTGlyph>
    <TTGlyph name="Y" xMin="75" yMin="0" xMax="615" yMax="700">
      <contour>
        <pt x="332" y="319" on="1"/>
        <pt x="276" y="0" on="1"/>
        <pt x="168" y="0" on="1"/>
        <pt x="224" y="319" on="1"/>
        <pt x="75" y="700" on="1"/>
        <pt x="188" y="700" on="1"/>
        <pt x="295" y="414" on="1"/>
        <pt x="502" y="700" on="1"/>
        <pt x="615" y="700" on="1"/>
      </contour>
    </TTGlyph>
    <TTGlyph name="Y.sc" xMin="51" yMin="0" xMax="534" yMax="567">
      <contour>
        <pt x="288" y="252" on="1"/>
        <pt x="243" y="0" on="1"/>
        <pt x="141" y="0" on="1"/>
        <pt x="186" y="252" on="1"/>
        <pt x="51" y="567" on="1"/>
        <pt x="160" y="567" on="1"/>
        <pt x="253" y="343" on="1"/>
        <pt x="425" y="567" on="1"/>
        <pt x="534" y="567" on="1"/>
      </contour>
    </TTGlyph>
    <TTGlyph name="Yacute" xMin="75" yMin="0" xMax="615" yMax="945">
      <component glyphName="Y" x="0" y="0" flags="0x204"/>
      <component glyphName="acute" x="123" y="207" flags="0x4"/>
    </TTGlyph>
    <TTGlyph name="Ydieresis" xMin="75" yMin="0" xMax="615" yMax="907">
      <component glyphName="Y" x="0" y="0" flags="0x204"/>
      <component glyphName="dieresis" x="71" y="207" flags="0x4"/>
    </TTGlyph>
    <TTGlyph name="Z" xMin="-40" yMin="0" xMax="563" yMax="700">
      <contour>
        <pt x="152" y="99" on="1"/>
        <pt x="416" y="99" on="1"/>
        <pt x="399" y="0" on="1"/>
        <pt x="-40" y="0" on="1"/>
        <pt x="370" y="601" on="1"/>
        <pt x="107" y="601" on="1"/>
        <pt x="124" y="700" on="1"/>
        <pt x="563" y="700" on="1"/>
      </contour>
    </TTGlyph>
    <TTGlyph name="Z.sc" xMin="-35" yMin="0" xMax="483" yMax="567">
      <contour>
        <pt x="152" y="99" on="1"/>
        <pt x="365" y="99" on="1"/>
        <pt x="348" y="0" on="1"/>
        <pt x="-35" y="0" on="1"/>
        <pt x="296" y="468" on="1"/>
        <pt x="83" y="468" on="1"/>
        <pt x="101" y="567" on="1"/>
        <pt x="483" y="567" on="1"/>
      </contour>
    </TTGlyph>
    <TTGlyph name="Zcaron" xMin="-40" yMin="0" xMax="563" yMax="950">
      <component glyphName="Z" x="0" y="0" flags="0x204"/>
      <component glyphName="caron" x="37" y="207" flags="0x4"/>
    </TTGlyph>
    <TTGlyph name="a" xMin="20" yMin="-10" xMax="507" yMax="503">
      <contour>
        <pt x="448" y="148" on="1"/>
        <pt x="446" y="136" on="0"/>
        <pt x="444" y="116" on="0"/>
        <pt x="444" y="110" on="1"/>
        <pt x="444" y="87" on="0"/>
        <pt x="465" y="72" on="0"/>
        <pt x="492" y="72" on="1"/>
        <pt x="466" y="-10" on="1"/>
        <pt x="439" y="-10" on="0"/>
        <pt x="398" y="-7" on="0"/>
        <pt x="368" y="7" on="0"/>
        <pt x="348" y="34" on="0"/>
        <pt x="341" y="57" on="1"/>
        <pt x="314" y="27" on="0"/>
        <pt x="236" y="-10" on="0"/>
        <pt x="192" y="-10" on="1"/>
        <pt x="152" y="-10" on="0"/>
        <pt x="89" y="22" on="0"/>
        <pt x="44" y="78" on="0"/>
        <pt x="20" y="154" on="0"/>
        <pt x="20" y="199" on="1"/>
        <pt x="20" y="256" on="0"/>
        <pt x="59" y="366" on="0"/>
        <pt x="129" y="451" on="0"/>
        <pt x="228" y="503" on="0"/>
        <pt x="288" y="503" on="1"/>
        <pt x="322" y="503" on="0"/>
        <pt x="378" y="481" on="0"/>
        <pt x="398" y="451" on="1"/>
        <pt x="415" y="493" on="1"/>
        <pt x="507" y="493" on="1"/>
      </contour>
      <contour>
        <pt x="278" y="415" on="1"/>
        <pt x="245" y="415" on="0"/>
        <pt x="189" y="382" on="0"/>
        <pt x="149" y="325" on="0"/>
        <pt x="126" y="250" on="0"/>
        <pt x="126" y="208" on="1"/>
        <pt x="126" y="180" on="0"/>
        <pt x="137" y="133" on="0"/>
        <pt x="161" y="98" on="0"/>
        <pt x="198" y="78" on="0"/>
        <pt x="224" y="78" on="1"/>
        <pt x="257" y="78" on="0"/>
        <pt x="312" y="109" on="0"/>
        <pt x="352" y="164" on="0"/>
        <pt x="374" y="239" on="0"/>
        <pt x="374" y="282" on="1"/>
        <pt x="374" y="350" on="0"/>
        <pt x="323" y="415" on="0"/>
      </contour>
    </TTGlyph>
    <TTGlyph name="aacute" xMin="20" yMin="-10" xMax="507" yMax="738">
      <component glyphName="a" x="0" y="0" flags="0x204"/>
      <component glyphName="acute" x="121" y="0" flags="0x4"/>
    </TTGlyph>
    <TTGlyph name="acircumflex" xMin="20" yMin="-10" xMax="507" yMax="747">
      <component glyphName="a" x="0" y="0" flags="0x204"/>
      <component glyphName="circumflex" x="56" y="0" flags="0x4"/>
    </TTGlyph>
    <TTGlyph name="acute" xMin="158" yMin="592" xMax="352" yMax="738">
      <contour>
        <pt x="158" y="592" on="1"/>
        <pt x="167" y="645" on="1"/>
        <pt x="352" y="738" on="1"/>
        <pt x="338" y="655" on="1"/>
      </contour>
    </TTGlyph>
    <TTGlyph name="adieresis" xMin="20" yMin="-10" xMax="507" yMax="700">
      <component glyphName="a" x="0" y="0" flags="0x204"/>
      <component glyphName="dieresis" x="67" y="0" flags="0x4"/>
    </TTGlyph>
    <TTGlyph name="ae" xMin="-8" yMin="-14" xMax="702" yMax="503">
      <contour>
        <pt x="390" y="237" on="1"/>
        <pt x="389" y="229" on="0"/>
        <pt x="388" y="214" on="0"/>
        <pt x="388" y="207" on="1"/>
        <pt x="388" y="138" on="0"/>
        <pt x="449" y="72" on="0"/>
        <pt x="496" y="72" on="1"/>
        <pt x="528" y="72" on="0"/>
        <pt x="602" y="94" on="0"/>
        <pt x="636" y="111" on="1"/>
        <pt x="630" y="29" on="1"/>
        <pt x="598" y="13" on="0"/>
        <pt x="521" y="-10" on="0"/>
        <pt x="474" y="-10" on="1"/>
        <pt x="407" y="-10" on="0"/>
        <pt x="325" y="42" on="0"/>
        <pt x="312" y="96" on="1"/>
        <pt x="275" y="43" on="0"/>
        <pt x="178" y="-14" on="0"/>
        <pt x="115" y="-14" on="1"/>
        <pt x="53" y="-14" on="0"/>
        <pt x="-8" y="45" on="0"/>
        <pt x="-8" y="96" on="1"/>
        <pt x="-8" y="139" on="0"/>
        <pt x="21" y="204" on="0"/>
        <pt x="69" y="250" on="0"/>
        <pt x="131" y="281" on="0"/>
        <pt x="197" y="299" on="0"/>
        <pt x="261" y="307" on="0"/>
        <pt x="287" y="309" on="1"/>
        <pt x="288" y="317" on="0"/>
        <pt x="289" y="332" on="0"/>
        <pt x="289" y="339" on="1"/>
        <pt x="289" y="378" on="0"/>
        <pt x="256" y="413" on="0"/>
        <pt x="216" y="413" on="1"/>
        <pt x="186" y="413" on="0"/>
        <pt x="128" y="398" on="0"/>
        <pt x="91" y="381" on="1"/>
        <pt x="96" y="462" on="1"/>
        <pt x="184" y="503" on="0"/>
        <pt x="260" y="503" on="1"/>
        <pt x="282" y="503" on="0"/>
        <pt x="324" y="494" on="0"/>
        <pt x="356" y="470" on="0"/>
        <pt x="376" y="427" on="0"/>
        <pt x="378" y="393" on="1"/>
        <pt x="401" y="448" on="0"/>
        <pt x="501" y="503" on="0"/>
        <pt x="557" y="503" on="1"/>
        <pt x="624" y="503" on="0"/>
        <pt x="702" y="418" on="0"/>
        <pt x="702" y="341" on="1"/>
        <pt x="702" y="312" on="0"/>
        <pt x="691" y="266" on="0"/>
        <pt x="680" y="237" on="1"/>
      </contour>
      <contour>
        <pt x="538" y="415" on="1"/>
        <pt x="495" y="415" on="0"/>
        <pt x="426" y="361" on="0"/>
        <pt x="406" y="307" on="1"/>
        <pt x="605" y="307" on="1"/>
        <pt x="608" y="326" on="0"/>
        <pt x="608" y="343" on="1"/>
        <pt x="608" y="377" on="0"/>
        <pt x="576" y="415" on="0"/>
      </contour>
      <contour>
        <pt x="282" y="240" on="1"/>
        <pt x="255" y="240" on="0"/>
        <pt x="191" y="227" on="0"/>
        <pt x="137" y="198" on="0"/>
        <pt x="101" y="151" on="0"/>
        <pt x="101" y="117" on="1"/>
        <pt x="101" y="92" on="0"/>
        <pt x="129" y="69" on="0"/>
        <pt x="151" y="69" on="1"/>
        <pt x="173" y="69" on="0"/>
        <pt x="215" y="88" on="0"/>
        <pt x="250" y="129" on="0"/>
        <pt x="276" y="194" on="0"/>
      </contour>
    </TTGlyph>
    <TTGlyph name="agrave" xMin="20" yMin="-10" xMax="507" yMax="738">
      <component glyphName="a" x="0" y="0" flags="0x204"/>
      <component glyphName="grave" x="121" y="0" flags="0x4"/>
    </TTGlyph>
    <TTGlyph name="ampersand" xMin="11" yMin="-23" xMax="530" yMax="703">
      <contour>
        <pt x="394" y="0" on="1"/>
        <pt x="370" y="42" on="1"/>
        <pt x="330" y="7" on="0"/>
        <pt x="246" y="-23" on="0"/>
        <pt x="192" y="-23" on="1"/>
        <pt x="144" y="-23" on="0"/>
        <pt x="75" y="1" on="0"/>
        <pt x="32" y="43" on="0"/>
        <pt x="11" y="100" on="0"/>
        <pt x="11" y="132" on="1"/>
        <pt x="11" y="205" on="0"/>
        <pt x="95" y="315" on="0"/>
        <pt x="162" y="366" on="1"/>
        <pt x="144" y="405" on="0"/>
        <pt x="122" y="480" on="0"/>
        <pt x="122" y="513" on="1"/>
        <pt x="122" y="557" on="0"/>
        <pt x="158" y="627" on="0"/>
        <pt x="218" y="677" on="0"/>
        <pt x="294" y="703" on="0"/>
        <pt x="334" y="703" on="1"/>
        <pt x="394" y="703" on="0"/>
        <pt x="452" y="642" on="0"/>
        <pt x="452" y="595" on="1"/>
        <pt x="452" y="556" on="0"/>
        <pt x="422" y="489" on="0"/>
        <pt x="372" y="431" on="0"/>
        <pt x="310" y="382" on="0"/>
        <pt x="278" y="361" on="1"/>
        <pt x="386" y="178" on="1"/>
        <pt x="393" y="193" on="0"/>
        <pt x="408" y="239" on="0"/>
        <pt x="420" y="288" on="0"/>
        <pt x="430" y="335" on="0"/>
        <pt x="433" y="351" on="1"/>
        <pt x="530" y="351" on="1"/>
        <pt x="526" y="329" on="0"/>
        <pt x="512" y="271" on="0"/>
        <pt x="490" y="206" on="0"/>
        <pt x="460" y="138" on="0"/>
        <pt x="439" y="107" on="1"/>
        <pt x="509" y="0" on="1"/>
      </contour>
      <contour>
        <pt x="313" y="624" on="1"/>
        <pt x="276" y="624" on="0"/>
        <pt x="221" y="568" on="0"/>
        <pt x="221" y="515" on="1"/>
        <pt x="221" y="495" on="0"/>
        <pt x="232" y="444" on="0"/>
        <pt x="245" y="415" on="1"/>
        <pt x="271" y="436" on="0"/>
        <pt x="313" y="472" on="0"/>
        <pt x="343" y="508" on="0"/>
        <pt x="359" y="547" on="0"/>
        <pt x="359" y="572" on="1"/>
        <pt x="359" y="624" on="0"/>
      </contour>
      <contour>
        <pt x="200" y="309" on="1"/>
        <pt x="165" y="277" on="0"/>
        <pt x="118" y="195" on="0"/>
        <pt x="118" y="146" on="1"/>
        <pt x="118" y="127" on="0"/>
        <pt x="128" y="94" on="0"/>
        <pt x="151" y="69" on="0"/>
        <pt x="189" y="54" on="0"/>
        <pt x="217" y="54" on="1"/>
        <pt x="252" y="54" on="0"/>
        <pt x="307" y="82" on="0"/>
        <pt x="329" y="105" on="1"/>
      </contour>
    </TTGlyph>
    <TTGlyph name="aring" xMin="20" yMin="-10" xMax="507" yMax="755">
      <component glyphName="a" x="0" y="0" flags="0x204"/>
      <component glyphName="ring" x="127" y="0" flags="0x4"/>
    </TTGlyph>
    <TTGlyph name="asciicircum" xMin="120" yMin="424" xMax="512" yMax="759">
      <contour>
        <pt x="343" y="639" on="1"/>
        <pt x="120" y="424" on="1"/>
        <pt x="141" y="544" on="1"/>
        <pt x="364" y="759" on="1"/>
        <pt x="512" y="544" on="1"/>
        <pt x="491" y="424" on="1"/>
      </contour>
    </TTGlyph>
    <TTGlyph name="asciitilde" xMin="37" yMin="178" xMax="383" yMax="288">
      <contour>
        <pt x="263" y="178" on="1"/>
        <pt x="246" y="178" on="0"/>
        <pt x="217" y="193" on="0"/>
        <pt x="192" y="211" on="0"/>
        <pt x="167" y="226" on="0"/>
        <pt x="155" y="226" on="1"/>
        <pt x="133" y="226" on="0"/>
        <pt x="105" y="198" on="0"/>
        <pt x="97" y="178" on="1"/>
        <pt x="37" y="190" on="1"/>
        <pt x="45" y="215" on="0"/>
        <pt x="73" y="251" on="0"/>
        <pt x="108" y="273" on="0"/>
        <pt x="144" y="284" on="0"/>
        <pt x="161" y="284" on="1"/>
        <pt x="179" y="284" on="0"/>
        <pt x="206" y="270" on="0"/>
        <pt x="230" y="252" on="0"/>
        <pt x="252" y="238" on="0"/>
        <pt x="265" y="238" on="1"/>
        <pt x="286" y="238" on="0"/>
        <pt x="319" y="267" on="0"/>
        <pt x="328" y="288" on="1"/>
        <pt x="383" y="275" on="1"/>
        <pt x="369" y="233" on="0"/>
        <pt x="305" y="178" on="0"/>
      </contour>
    </TTGlyph>
    <TTGlyph name="asterisk" xMin="92" yMin="419" xMax="432" yMax="749">
      <contour>
        <pt x="250" y="556" on="1"/>
        <pt x="144" y="419" on="1"/>
        <pt x="101" y="462" on="1"/>
        <pt x="226" y="570" on="1"/>
        <pt x="92" y="631" on="1"/>
        <pt x="138" y="686" on="1"/>
        <pt x="247" y="593" on="1"/>
        <pt x="247" y="749" on="1"/>
        <pt x="319" y="749" on="1"/>
        <pt x="265" y="593" on="1"/>
        <pt x="406" y="686" on="1"/>
        <pt x="432" y="630" on="1"/>
        <pt x="278" y="572" on="1"/>
        <pt x="366" y="465" on="1"/>
        <pt x="307" y="422" on="1"/>
      </contour>
    </TTGlyph>
    <TTGlyph name="at" xMin="25" yMin="-87" xMax="624" yMax="553">
      <contour>
        <pt x="515" y="379" on="1"/>
        <pt x="501" y="399" on="0"/>
        <pt x="453" y="432" on="0"/>
        <pt x="415" y="432" on="1"/>
        <pt x="369" y="432" on="0"/>
        <pt x="269" y="376" on="0"/>
        <pt x="187" y="287" on="0"/>
        <pt x="133" y="178" on="0"/>
        <pt x="133" y="124" on="1"/>
        <pt x="133" y="91" on="0"/>
        <pt x="162" y="40" on="0"/>
        <pt x="198" y="40" on="1"/>
        <pt x="218" y="40" on="0"/>
        <pt x="265" y="55" on="0"/>
        <pt x="314" y="85" on="0"/>
        <pt x="361" y="128" on="0"/>
        <pt x="381" y="156" on="1"/>
        <pt x="379" y="148" on="0"/>
        <pt x="370" y="122" on="0"/>
        <pt x="370" y="102" on="1"/>
        <pt x="370" y="81" on="0"/>
        <pt x="387" y="42" on="0"/>
        <pt x="410" y="42" on="1"/>
        <pt x="422" y="42" on="0"/>
        <pt x="456" y="53" on="0"/>
        <pt x="491" y="71" on="0"/>
        <pt x="525" y="94" on="0"/>
        <pt x="538" y="106" on="1"/>
        <pt x="509" y="63" on="0"/>
        <pt x="435" y="-8" on="0"/>
        <pt x="349" y="-59" on="0"/>
        <pt x="256" y="-87" on="0"/>
        <pt x="209" y="-87" on="1"/>
        <pt x="121" y="-87" on="0"/>
        <pt x="25" y="19" on="0"/>
        <pt x="25" y="114" on="1"/>
        <pt x="25" y="174" on="0"/>
        <pt x="58" y="287" on="0"/>
        <pt x="116" y="384" on="0"/>
        <pt x="194" y="464" on="0"/>
        <pt x="286" y="522" on="0"/>
        <pt x="387" y="553" on="0"/>
        <pt x="438" y="553" on="1"/>
        <pt x="529" y="553" on="0"/>
        <pt x="624" y="445" on="0"/>
        <pt x="624" y="353" on="1"/>
        <pt x="624" y="312" on="0"/>
        <pt x="603" y="221" on="0"/>
        <pt x="561" y="144" on="0"/>
        <pt x="497" y="94" on="0"/>
        <pt x="454" y="94" on="1"/>
        <pt x="440" y="94" on="0"/>
        <pt x="422" y="105" on="0"/>
        <pt x="422" y="128" on="1"/>
        <pt x="422" y="150" on="0"/>
        <pt x="437" y="199" on="0"/>
        <pt x="463" y="259" on="0"/>
        <pt x="497" y="332" on="0"/>
      </contour>
      <contour>
        <pt x="412" y="371" on="1"/>
        <pt x="420" y="371" on="0"/>
        <pt x="446" y="365" on="0"/>
        <pt x="449" y="349" on="1"/>
        <pt x="435" y="309" on="0"/>
        <pt x="384" y="223" on="0"/>
        <pt x="323" y="152" on="0"/>
        <pt x="262" y="106" on="0"/>
        <pt x="240" y="106" on="1"/>
        <pt x="223" y="106" on="0"/>
        <pt x="209" y="132" on="0"/>
        <pt x="209" y="152" on="1"/>
        <pt x="209" y="196" on="0"/>
        <pt x="252" y="275" on="0"/>
        <pt x="315" y="335" on="0"/>
        <pt x="385" y="371" on="0"/>
      </contour>
    </TTGlyph>
    <TTGlyph name="atilde" xMin="20" yMin="-10" xMax="542" yMax="709">
      <component glyphName="a" x="0" y="0" flags="0x204"/>
      <component glyphName="tilde" x="12" y="0" flags="0x4"/>
    </TTGlyph>
    <TTGlyph name="b" xMin="8" yMin="-10" xMax="488" yMax="750">
      <contour>
        <pt x="223" y="-10" on="1"/>
        <pt x="153" y="-10" on="0"/>
        <pt x="116" y="50" on="1"/>
        <pt x="102" y="0" on="1"/>
        <pt x="8" y="0" on="1"/>
        <pt x="140" y="750" on="1"/>
        <pt x="243" y="750" on="1"/>
        <pt x="190" y="450" on="1"/>
        <pt x="219" y="481" on="0"/>
        <pt x="280" y="503" on="0"/>
        <pt x="314" y="503" on="1"/>
        <pt x="358" y="503" on="0"/>
        <pt x="423" y="470" on="0"/>
        <pt x="467" y="413" on="0"/>
        <pt x="488" y="338" on="0"/>
        <pt x="488" y="296" on="1"/>
        <pt x="488" y="236" on="0"/>
        <pt x="449" y="125" on="0"/>
        <pt x="379" y="40" on="0"/>
        <pt x="281" y="-10" on="0"/>
      </contour>
      <contour>
        <pt x="291" y="415" on="1"/>
        <pt x="261" y="415" on="0"/>
        <pt x="207" y="388" on="0"/>
        <pt x="167" y="333" on="0"/>
        <pt x="143" y="251" on="0"/>
        <pt x="143" y="196" on="1"/>
        <pt x="143" y="137" on="0"/>
        <pt x="189" y="78" on="0"/>
        <pt x="231" y="78" on="1"/>
        <pt x="264" y="78" on="0"/>
        <pt x="320" y="112" on="0"/>
        <pt x="360" y="170" on="0"/>
        <pt x="382" y="245" on="0"/>
        <pt x="382" y="287" on="1"/>
        <pt x="382" y="344" on="0"/>
        <pt x="336" y="415" on="0"/>
      </contour>
    </TTGlyph>
    <TTGlyph name="backslash" xMin="104" yMin="-85" xMax="408" yMax="700">
      <contour>
        <pt x="298" y="-85" on="1"/>
        <pt x="104" y="700" on="1"/>
        <pt x="214" y="700" on="1"/>
        <pt x="408" y="-85" on="1"/>
      </contour>
    </TTGlyph>
    <TTGlyph name="bar" xMin="-19" yMin="-209" xMax="237" yMax="750">
      <contour>
        <pt x="-19" y="-209" on="1"/>
        <pt x="150" y="750" on="1"/>
        <pt x="237" y="750" on="1"/>
        <pt x="68" y="-209" on="1"/>
      </contour>
    </TTGlyph>
    <TTGlyph name="braceleft" xMin="20" yMin="-135" xMax="358" yMax="750">
      <contour>
        <pt x="30" y="-13" on="1"/>
        <pt x="30" y="9" on="0"/>
        <pt x="43" y="62" on="0"/>
        <pt x="58" y="118" on="0"/>
        <pt x="71" y="175" on="0"/>
        <pt x="71" y="201" on="1"/>
        <pt x="71" y="236" on="0"/>
        <pt x="47" y="287" on="0"/>
        <pt x="20" y="307" on="1"/>
        <pt x="63" y="332" on="0"/>
        <pt x="107" y="398" on="0"/>
        <pt x="117" y="454" on="1"/>
        <pt x="123" y="489" on="0"/>
        <pt x="130" y="566" on="0"/>
        <pt x="135" y="595" on="1"/>
        <pt x="141" y="631" on="0"/>
        <pt x="171" y="687" on="0"/>
        <pt x="223" y="727" on="0"/>
        <pt x="302" y="749" on="0"/>
        <pt x="358" y="750" on="1"/>
        <pt x="343" y="668" on="1"/>
        <pt x="301" y="667" on="0"/>
        <pt x="253" y="652" on="0"/>
        <pt x="225" y="616" on="0"/>
        <pt x="210" y="555" on="0"/>
        <pt x="201" y="507" on="1"/>
        <pt x="197" y="487" on="0"/>
        <pt x="193" y="443" on="0"/>
        <pt x="189" y="422" on="1"/>
        <pt x="183" y="390" on="0"/>
        <pt x="154" y="335" on="0"/>
        <pt x="114" y="307" on="1"/>
        <pt x="137" y="287" on="0"/>
        <pt x="153" y="248" on="0"/>
        <pt x="153" y="228" on="1"/>
        <pt x="153" y="205" on="0"/>
        <pt x="142" y="164" on="0"/>
        <pt x="130" y="119" on="0"/>
        <pt x="119" y="66" on="0"/>
        <pt x="119" y="30" on="1"/>
        <pt x="119" y="7" on="0"/>
        <pt x="128" y="-24" on="0"/>
        <pt x="151" y="-44" on="0"/>
        <pt x="188" y="-52" on="0"/>
        <pt x="216" y="-53" on="1"/>
        <pt x="202" y="-135" on="1"/>
        <pt x="109" y="-133" on="0"/>
        <pt x="30" y="-71" on="0"/>
      </contour>
    </TTGlyph>
    <TTGlyph name="braceright" xMin="-68" yMin="-135" xMax="269" yMax="750">
      <contour>
        <pt x="154" y="19" on="1"/>
        <pt x="141" y="-55" on="0"/>
        <pt x="39" y="-133" on="0"/>
        <pt x="-68" y="-135" on="1"/>
        <pt x="-54" y="-53" on="1"/>
        <pt x="-12" y="-52" on="0"/>
        <pt x="37" y="-37" on="0"/>
        <pt x="65" y="-1" on="0"/>
        <pt x="80" y="60" on="0"/>
        <pt x="88" y="108" on="1"/>
        <pt x="93" y="134" on="0"/>
        <pt x="98" y="179" on="0"/>
        <pt x="102" y="201" on="1"/>
        <pt x="105" y="216" on="0"/>
        <pt x="113" y="243" on="0"/>
        <pt x="130" y="268" on="0"/>
        <pt x="156" y="293" on="0"/>
        <pt x="176" y="307" on="1"/>
        <pt x="153" y="327" on="0"/>
        <pt x="137" y="370" on="0"/>
        <pt x="137" y="392" on="1"/>
        <pt x="137" y="409" on="0"/>
        <pt x="148" y="446" on="0"/>
        <pt x="160" y="491" on="0"/>
        <pt x="171" y="548" on="0"/>
        <pt x="171" y="585" on="1"/>
        <pt x="171" y="608" on="0"/>
        <pt x="161" y="639" on="0"/>
        <pt x="139" y="658" on="0"/>
        <pt x="101" y="668" on="0"/>
        <pt x="73" y="669" on="1"/>
        <pt x="88" y="750" on="1"/>
        <pt x="182" y="748" on="0"/>
        <pt x="260" y="683" on="0"/>
        <pt x="260" y="627" on="1"/>
        <pt x="260" y="605" on="0"/>
        <pt x="247" y="552" on="0"/>
        <pt x="232" y="497" on="0"/>
        <pt x="219" y="440" on="0"/>
        <pt x="219" y="413" on="1"/>
        <pt x="219" y="377" on="0"/>
        <pt x="243" y="326" on="0"/>
        <pt x="269" y="307" on="1"/>
        <pt x="223" y="281" on="0"/>
        <pt x="182" y="213" on="0"/>
        <pt x="173" y="161" on="1"/>
        <pt x="167" y="126" on="0"/>
        <pt x="159" y="48" on="0"/>
      </contour>
    </TTGlyph>
    <TTGlyph name="bracketleft" xMin="-6" yMin="-135" xMax="381" yMax="750">
      <contour>
        <pt x="88" y="-135" on="1"/>
        <pt x="-6" y="-135" on="1"/>
        <pt x="150" y="750" on="1"/>
        <pt x="381" y="750" on="1"/>
        <pt x="367" y="668" on="1"/>
        <pt x="229" y="668" on="1"/>
        <pt x="102" y="-53" on="1"/>
        <pt x="240" y="-53" on="1"/>
        <pt x="225" y="-135" on="1"/>
      </contour>
    </TTGlyph>
    <TTGlyph name="bracketright" xMin="-64" yMin="-135" xMax="323" yMax="750">
      <contour>
        <pt x="323" y="750" on="1"/>
        <pt x="167" y="-135" on="1"/>
        <pt x="73" y="-135" on="1"/>
        <pt x="-64" y="-135" on="1"/>
        <pt x="-50" y="-53" on="1"/>
        <pt x="88" y="-53" on="1"/>
        <pt x="215" y="668" on="1"/>
        <pt x="77" y="668" on="1"/>
        <pt x="92" y="750" on="1"/>
      </contour>
    </TTGlyph>
    <TTGlyph name="brokenbar" xMin="-18" yMin="-210" xMax="230" yMax="750">
      <contour>
        <pt x="72" y="300" on="1"/>
        <pt x="151" y="750" on="1"/>
        <pt x="230" y="750" on="1"/>
        <pt x="151" y="300" on="1"/>
      </contour>
      <contour>
        <pt x="-18" y="-210" on="1"/>
        <pt x="50" y="172" on="1"/>
        <pt x="129" y="172" on="1"/>
        <pt x="61" y="-210" on="1"/>
      </contour>
    </TTGlyph>
    <TTGlyph name="bullet" xMin="40" yMin="169" xMax="240" yMax="387">
      <contour>
        <pt x="121" y="169" on="1"/>
        <pt x="85" y="169" on="0"/>
        <pt x="40" y="223" on="0"/>
        <pt x="40" y="261" on="1"/>
        <pt x="40" y="286" on="0"/>
        <pt x="60" y="332" on="0"/>
        <pt x="94" y="367" on="0"/>
        <pt x="136" y="387" on="0"/>
        <pt x="159" y="387" on="1"/>
        <pt x="195" y="387" on="0"/>
        <pt x="240" y="333" on="0"/>
        <pt x="240" y="295" on="1"/>
        <pt x="240" y="269" on="0"/>
        <pt x="220" y="224" on="0"/>
        <pt x="186" y="189" on="0"/>
        <pt x="143" y="169" on="0"/>
      </contour>
    </TTGlyph>
    <TTGlyph name="c" xMin="21" yMin="-10" xMax="420" yMax="503">
      <contour>
        <pt x="200" y="-10" on="1"/>
        <pt x="154" y="-10" on="0"/>
        <pt x="87" y="23" on="0"/>
        <pt x="43" y="79" on="0"/>
        <pt x="21" y="154" on="0"/>
        <pt x="21" y="196" on="1"/>
        <pt x="21" y="256" on="0"/>
        <pt x="57" y="366" on="0"/>
        <pt x="126" y="452" on="0"/>
        <pt x="226" y="503" on="0"/>
        <pt x="290" y="503" on="1"/>
        <pt x="343" y="503" on="0"/>
        <pt x="401" y="484" on="0"/>
        <pt x="420" y="471" on="1"/>
        <pt x="394" y="381" on="1"/>
        <pt x="369" y="398" on="0"/>
        <pt x="316" y="415" on="0"/>
        <pt x="284" y="415" on="1"/>
        <pt x="246" y="415" on="0"/>
        <pt x="188" y="383" on="0"/>
        <pt x="147" y="326" on="0"/>
        <pt x="126" y="248" on="0"/>
        <pt x="126" y="203" on="1"/>
        <pt x="126" y="146" on="0"/>
        <pt x="176" y="77" on="0"/>
        <pt x="224" y="77" on="1"/>
        <pt x="256" y="77" on="0"/>
        <pt x="316" y="94" on="0"/>
        <pt x="346" y="111" on="1"/>
        <pt x="342" y="27" on="1"/>
        <pt x="318" y="13" on="0"/>
        <pt x="254" y="-10" on="0"/>
      </contour>
    </TTGlyph>
    <TTGlyph name="caron" xMin="192" yMin="595" xMax="466" yMax="743">
      <contour>
        <pt x="307" y="595" on="1"/>
        <pt x="192" y="691" on="1"/>
        <pt x="201" y="743" on="1"/>
        <pt x="320" y="669" on="1"/>
        <pt x="466" y="743" on="1"/>
        <pt x="457" y="691" on="1"/>
      </contour>
    </TTGlyph>
    <TTGlyph name="ccaron" xMin="21" yMin="-10" xMax="436" yMax="743">
      <component glyphName="c" x="0" y="0" flags="0x4"/>
      <component glyphName="caron" x="-30" y="0" flags="0x4"/>
    </TTGlyph>
    <TTGlyph name="ccedilla" xMin="21" yMin="-193" xMax="420" yMax="503">
      <component glyphName="c" x="0" y="0" flags="0x204"/>
      <component glyphName="cedilla" x="-10" y="0" flags="0x4"/>
    </TTGlyph>
    <TTGlyph name="cedilla" xMin="90" yMin="-193" xMax="260" yMax="-53">
      <contour>
        <pt x="150" y="-186" on="1"/>
        <pt x="90" y="-193" on="1"/>
        <pt x="176" y="-60" on="1"/>
        <pt x="260" y="-53" on="1"/>
      </contour>
    </TTGlyph>
    <TTGlyph name="cent" xMin="41" yMin="-31" xMax="441" yMax="748">
      <contour>
        <pt x="239" y="-31" on="1"/>
        <pt x="149" y="-31" on="1"/>
        <pt x="184" y="90" on="1"/>
        <pt x="114" y="101" on="0"/>
        <pt x="41" y="211" on="0"/>
        <pt x="41" y="292" on="1"/>
        <pt x="41" y="349" on="0"/>
        <pt x="74" y="456" on="0"/>
        <pt x="135" y="541" on="0"/>
        <pt x="222" y="598" on="0"/>
        <pt x="275" y="606" on="1"/>
        <pt x="286" y="748" on="1"/>
        <pt x="377" y="748" on="1"/>
        <pt x="338" y="607" on="1"/>
        <pt x="377" y="605" on="0"/>
        <pt x="423" y="588" on="0"/>
        <pt x="441" y="574" on="1"/>
        <pt x="416" y="486" on="1"/>
        <pt x="391" y="503" on="0"/>
        <pt x="339" y="522" on="0"/>
        <pt x="311" y="522" on="1"/>
        <pt x="272" y="522" on="0"/>
        <pt x="212" y="486" on="0"/>
        <pt x="170" y="425" on="0"/>
        <pt x="148" y="346" on="0"/>
        <pt x="148" y="304" on="1"/>
        <pt x="148" y="246" on="0"/>
        <pt x="199" y="174" on="0"/>
        <pt x="250" y="174" on="1"/>
        <pt x="305" y="174" on="0"/>
        <pt x="367" y="209" on="1"/>
        <pt x="360" y="121" on="1"/>
        <pt x="340" y="109" on="0"/>
        <pt x="291" y="91" on="0"/>
        <pt x="250" y="88" on="1"/>
      </contour>
    </TTGlyph>
    <TTGlyph name="circumflex" xMin="175" yMin="597" xMax="448" yMax="747">
      <contour>
        <pt x="321" y="675" on="1"/>
        <pt x="175" y="597" on="1"/>
        <pt x="183" y="646" on="1"/>
        <pt x="333" y="747" on="1"/>
        <pt x="448" y="646" on="1"/>
        <pt x="440" y="597" on="1"/>
      </contour>
    </TTGlyph>
    <TTGlyph name="colon" xMin="6" yMin="0" xMax="186" yMax="440">
      <contour>
        <pt x="66" y="339" on="1"/>
        <pt x="84" y="440" on="1"/>
        <pt x="186" y="440" on="1"/>
        <pt x="168" y="339" on="1"/>
      </contour>
      <contour>
        <pt x="6" y="0" on="1"/>
        <pt x="24" y="101" on="1"/>
        <pt x="127" y="101" on="1"/>
        <pt x="109" y="0" on="1"/>
      </contour>
    </TTGlyph>
    <TTGlyph name="comma" xMin="-11" yMin="-109" xMax="129" yMax="101">
      <contour>
        <pt x="9" y="-109" on="1"/>
        <pt x="-11" y="-96" on="1"/>
        <pt x="34" y="-9" on="1"/>
        <pt x="7" y="0" on="1"/>
        <pt x="24" y="101" on="1"/>
        <pt x="129" y="101" on="1"/>
        <pt x="111" y="0" on="1"/>
      </contour>
    </TTGlyph>
    <TTGlyph name="copyright" xMin="58" yMin="37" xMax="631" yMax="693">
      <contour>
        <pt x="287" y="37" on="1"/>
        <pt x="235" y="37" on="0"/>
        <pt x="150" y="74" on="0"/>
        <pt x="90" y="143" on="0"/>
        <pt x="58" y="241" on="0"/>
        <pt x="58" y="301" on="1"/>
        <pt x="58" y="387" on="0"/>
        <pt x="113" y="531" on="0"/>
        <pt x="208" y="635" on="0"/>
        <pt x="333" y="693" on="0"/>
        <pt x="403" y="693" on="1"/>
        <pt x="455" y="693" on="0"/>
        <pt x="539" y="656" on="0"/>
        <pt x="599" y="587" on="0"/>
        <pt x="631" y="490" on="0"/>
        <pt x="631" y="430" on="1"/>
        <pt x="631" y="344" on="0"/>
        <pt x="576" y="199" on="0"/>
        <pt x="483" y="95" on="0"/>
        <pt x="357" y="37" on="0"/>
      </contour>
      <contour>
        <pt x="394" y="639" on="1"/>
        <pt x="328" y="639" on="0"/>
        <pt x="226" y="584" on="0"/>
        <pt x="157" y="491" on="0"/>
        <pt x="121" y="368" on="0"/>
        <pt x="121" y="301" on="1"/>
        <pt x="121" y="256" on="0"/>
        <pt x="142" y="178" on="0"/>
        <pt x="185" y="122" on="0"/>
        <pt x="251" y="90" on="0"/>
        <pt x="296" y="90" on="1"/>
        <pt x="362" y="90" on="0"/>
        <pt x="463" y="146" on="0"/>
        <pt x="532" y="239" on="0"/>
        <pt x="568" y="361" on="0"/>
        <pt x="568" y="428" on="1"/>
        <pt x="568" y="473" on="0"/>
        <pt x="547" y="551" on="0"/>
        <pt x="504" y="607" on="0"/>
        <pt x="439" y="639" on="0"/>
      </contour>
      <contour>
        <pt x="322" y="195" on="1"/>
        <pt x="267" y="195" on="0"/>
        <pt x="203" y="268" on="0"/>
        <pt x="203" y="330" on="1"/>
        <pt x="203" y="375" on="0"/>
        <pt x="231" y="449" on="0"/>
        <pt x="280" y="502" on="0"/>
        <pt x="345" y="532" on="0"/>
        <pt x="382" y="532" on="1"/>
        <pt x="405" y="532" on="0"/>
        <pt x="450" y="521" on="0"/>
        <pt x="467" y="512" on="1"/>
        <pt x="446" y="443" on="1"/>
        <pt x="428" y="452" on="0"/>
        <pt x="392" y="464" on="0"/>
        <pt x="370" y="464" on="1"/>
        <pt x="349" y="464" on="0"/>
        <pt x="315" y="444" on="0"/>
        <pt x="291" y="409" on="0"/>
        <pt x="279" y="363" on="0"/>
        <pt x="279" y="338" on="1"/>
        <pt x="279" y="305" on="0"/>
        <pt x="306" y="262" on="0"/>
        <pt x="335" y="262" on="1"/>
        <pt x="356" y="262" on="0"/>
        <pt x="396" y="274" on="0"/>
        <pt x="419" y="284" on="1"/>
        <pt x="415" y="216" on="1"/>
        <pt x="395" y="205" on="0"/>
        <pt x="345" y="195" on="0"/>
      </contour>
    </TTGlyph>
    <TTGlyph name="currency" xMin="20" yMin="26" xMax="584" yMax="670">
      <contour>
        <pt x="431" y="26" on="1"/>
        <pt x="380" y="127" on="1"/>
        <pt x="349" y="108" on="0"/>
        <pt x="289" y="92" on="0"/>
        <pt x="257" y="92" on="1"/>
        <pt x="224" y="92" on="0"/>
        <pt x="169" y="108" on="0"/>
        <pt x="146" y="127" on="1"/>
        <pt x="60" y="26" on="1"/>
        <pt x="20" y="59" on="1"/>
        <pt x="104" y="159" on="1"/>
        <pt x="87" y="188" on="0"/>
        <pt x="69" y="263" on="0"/>
        <pt x="69" y="301" on="1"/>
        <pt x="69" y="429" on="0"/>
        <pt x="171" y="537" on="1"/>
        <pt x="122" y="637" on="1"/>
        <pt x="174" y="670" on="1"/>
        <pt x="223" y="569" on="1"/>
        <pt x="283" y="604" on="0"/>
        <pt x="346" y="604" on="1"/>
        <pt x="412" y="604" on="0"/>
        <pt x="458" y="568" on="1"/>
        <pt x="545" y="670" on="1"/>
        <pt x="584" y="637" on="1"/>
        <pt x="499" y="536" on="1"/>
        <pt x="517" y="507" on="0"/>
        <pt x="534" y="432" on="0"/>
        <pt x="534" y="394" on="1"/>
        <pt x="534" y="328" on="0"/>
        <pt x="483" y="213" on="0"/>
        <pt x="432" y="158" on="1"/>
        <pt x="482" y="59" on="1"/>
      </contour>
      <contour>
        <pt x="333" y="528" on="1"/>
        <pt x="297" y="528" on="0"/>
        <pt x="238" y="491" on="0"/>
        <pt x="197" y="429" on="0"/>
        <pt x="174" y="348" on="0"/>
        <pt x="174" y="303" on="1"/>
        <pt x="174" y="245" on="0"/>
        <pt x="222" y="168" on="0"/>
        <pt x="270" y="168" on="1"/>
        <pt x="306" y="168" on="0"/>
        <pt x="365" y="205" on="0"/>
        <pt x="407" y="267" on="0"/>
        <pt x="430" y="348" on="0"/>
        <pt x="430" y="393" on="1"/>
        <pt x="430" y="451" on="0"/>
        <pt x="381" y="528" on="0"/>
      </contour>
    </TTGlyph>
    <TTGlyph name="d" xMin="20" yMin="-10" xMax="545" yMax="750">
      <contour>
        <pt x="318" y="0" on="1"/>
        <pt x="322" y="50" on="1"/>
        <pt x="262" y="-10" on="0"/>
        <pt x="194" y="-10" on="1"/>
        <pt x="151" y="-10" on="0"/>
        <pt x="86" y="22" on="0"/>
        <pt x="42" y="77" on="0"/>
        <pt x="20" y="152" on="0"/>
        <pt x="20" y="196" on="1"/>
        <pt x="20" y="254" on="0"/>
        <pt x="58" y="365" on="0"/>
        <pt x="128" y="451" on="0"/>
        <pt x="225" y="503" on="0"/>
        <pt x="285" y="503" on="1"/>
        <pt x="318" y="503" on="0"/>
        <pt x="372" y="481" on="0"/>
        <pt x="390" y="451" on="1"/>
        <pt x="443" y="750" on="1"/>
        <pt x="545" y="750" on="1"/>
        <pt x="413" y="0" on="1"/>
      </contour>
      <contour>
        <pt x="276" y="415" on="1"/>
        <pt x="243" y="415" on="0"/>
        <pt x="187" y="381" on="0"/>
        <pt x="148" y="324" on="0"/>
        <pt x="126" y="248" on="0"/>
        <pt x="126" y="206" on="1"/>
        <pt x="126" y="151" on="0"/>
        <pt x="172" y="78" on="0"/>
        <pt x="217" y="78" on="1"/>
        <pt x="247" y="78" on="0"/>
        <pt x="301" y="103" on="0"/>
        <pt x="342" y="155" on="0"/>
        <pt x="366" y="237" on="0"/>
        <pt x="366" y="293" on="1"/>
        <pt x="366" y="352" on="0"/>
        <pt x="318" y="415" on="0"/>
      </contour>
    </TTGlyph>
    <TTGlyph name="dagger" xMin="50" yMin="0" xMax="386" yMax="607">
      <contour>
        <pt x="253" y="393" on="1"/>
        <pt x="253" y="254" on="1"/>
        <pt x="181" y="0" on="1"/>
        <pt x="108" y="0" on="1"/>
        <pt x="126" y="254" on="1"/>
        <pt x="180" y="393" on="1"/>
        <pt x="50" y="365" on="1"/>
        <pt x="67" y="466" on="1"/>
        <pt x="189" y="436" on="1"/>
        <pt x="189" y="607" on="1"/>
        <pt x="314" y="607" on="1"/>
        <pt x="256" y="436" on="1"/>
        <pt x="386" y="466" on="1"/>
        <pt x="369" y="365" on="1"/>
      </contour>
    </TTGlyph>
    <TTGlyph name="daggerdbl" xMin="17" yMin="-59" xMax="403" yMax="607">
      <contour>
        <pt x="214" y="110" on="1"/>
        <pt x="214" y="-59" on="1"/>
        <pt x="89" y="-59" on="1"/>
        <pt x="146" y="110" on="1"/>
        <pt x="17" y="81" on="1"/>
        <pt x="34" y="181" on="1"/>
        <pt x="155" y="153" on="1"/>
        <pt x="146" y="274" on="1"/>
        <pt x="198" y="396" on="1"/>
        <pt x="67" y="367" on="1"/>
        <pt x="85" y="468" on="1"/>
        <pt x="207" y="439" on="1"/>
        <pt x="207" y="607" on="1"/>
        <pt x="331" y="607" on="1"/>
        <pt x="274" y="439" on="1"/>
        <pt x="403" y="468" on="1"/>
        <pt x="386" y="367" on="1"/>
        <pt x="265" y="396" on="1"/>
        <pt x="273" y="274" on="1"/>
        <pt x="222" y="153" on="1"/>
        <pt x="353" y="181" on="1"/>
        <pt x="336" y="81" on="1"/>
      </contour>
    </TTGlyph>
    <TTGlyph name="degree" xMin="89" yMin="482" xMax="333" yMax="755">
      <contour>
        <pt x="187" y="482" on="1"/>
        <pt x="139" y="482" on="0"/>
        <pt x="89" y="546" on="0"/>
        <pt x="89" y="592" on="1"/>
        <pt x="89" y="624" on="0"/>
        <pt x="110" y="683" on="0"/>
        <pt x="149" y="728" on="0"/>
        <pt x="203" y="755" on="0"/>
        <pt x="235" y="755" on="1"/>
        <pt x="284" y="755" on="0"/>
        <pt x="333" y="691" on="0"/>
        <pt x="333" y="644" on="1"/>
        <pt x="333" y="612" on="0"/>
        <pt x="312" y="553" on="0"/>
        <pt x="273" y="508" on="0"/>
        <pt x="220" y="482" on="0"/>
      </contour>
      <contour>
        <pt x="229" y="720" on="1"/>
        <pt x="211" y="720" on="0"/>
        <pt x="179" y="698" on="0"/>
        <pt x="157" y="662" on="0"/>
        <pt x="144" y="616" on="0"/>
        <pt x="144" y="593" on="1"/>
        <pt x="144" y="561" on="0"/>
        <pt x="168" y="517" on="0"/>
        <pt x="193" y="517" on="1"/>
        <pt x="212" y="517" on="0"/>
        <pt x="244" y="539" on="0"/>
        <pt x="266" y="575" on="0"/>
        <pt x="278" y="621" on="0"/>
        <pt x="278" y="644" on="1"/>
        <pt x="278" y="675" on="0"/>
        <pt x="254" y="720" on="0"/>
      </contour>
    </TTGlyph>
    <TTGlyph name="dieresis" xMin="185" yMin="598" xMax="426" yMax="700">
      <contour>
        <pt x="327" y="598" on="1"/>
        <pt x="346" y="700" on="1"/>
        <pt x="426" y="700" on="1"/>
        <pt x="408" y="598" on="1"/>
      </contour>
      <contour>
        <pt x="185" y="598" on="1"/>
        <pt x="203" y="700" on="1"/>
        <pt x="282" y="700" on="1"/>
        <pt x="265" y="598" on="1"/>
      </contour>
    </TTGlyph>
    <TTGlyph name="divide" xMin="52" yMin="20" xMax="480" yMax="534">
      <contour>
        <pt x="237" y="428" on="1"/>
        <pt x="256" y="534" on="1"/>
        <pt x="358" y="534" on="1"/>
        <pt x="340" y="428" on="1"/>
      </contour>
      <contour>
        <pt x="52" y="240" on="1"/>
        <pt x="66" y="321" on="1"/>
        <pt x="480" y="321" on="1"/>
        <pt x="466" y="240" on="1"/>
      </contour>
      <contour>
        <pt x="165" y="20" on="1"/>
        <pt x="184" y="126" on="1"/>
        <pt x="286" y="126" on="1"/>
        <pt x="268" y="20" on="1"/>
      </contour>
    </TTGlyph>
    <TTGlyph name="dollar" xMin="20" yMin="-32" xMax="468" yMax="748">
      <contour>
        <pt x="228" y="-32" on="1"/>
        <pt x="136" y="-32" on="1"/>
        <pt x="171" y="80" on="1"/>
        <pt x="117" y="83" on="0"/>
        <pt x="40" y="105" on="0"/>
        <pt x="20" y="119" on="1"/>
        <pt x="54" y="234" on="1"/>
        <pt x="74" y="211" on="0"/>
        <pt x="153" y="174" on="0"/>
        <pt x="213" y="174" on="1"/>
        <pt x="263" y="174" on="0"/>
        <pt x="318" y="204" on="0"/>
        <pt x="318" y="243" on="1"/>
        <pt x="318" y="267" on="0"/>
        <pt x="282" y="298" on="0"/>
        <pt x="227" y="322" on="0"/>
        <pt x="164" y="344" on="0"/>
        <pt x="109" y="375" on="0"/>
        <pt x="73" y="421" on="0"/>
        <pt x="73" y="456" on="1"/>
        <pt x="73" y="481" on="0"/>
        <pt x="93" y="538" on="0"/>
        <pt x="139" y="589" on="0"/>
        <pt x="213" y="626" on="0"/>
        <pt x="268" y="632" on="1"/>
        <pt x="274" y="748" on="1"/>
        <pt x="366" y="748" on="1"/>
        <pt x="331" y="632" on="1"/>
        <pt x="376" y="629" on="0"/>
        <pt x="451" y="606" on="0"/>
        <pt x="468" y="594" on="1"/>
        <pt x="441" y="492" on="1"/>
        <pt x="406" y="512" on="0"/>
        <pt x="329" y="542" on="0"/>
        <pt x="296" y="542" on="1"/>
        <pt x="276" y="542" on="0"/>
        <pt x="236" y="536" on="0"/>
        <pt x="203" y="522" on="0"/>
        <pt x="182" y="498" on="0"/>
        <pt x="182" y="480" on="1"/>
        <pt x="182" y="457" on="0"/>
        <pt x="220" y="430" on="0"/>
        <pt x="276" y="409" on="0"/>
        <pt x="342" y="387" on="0"/>
        <pt x="398" y="353" on="0"/>
        <pt x="436" y="301" on="0"/>
        <pt x="436" y="260" on="1"/>
        <pt x="436" y="242" on="0"/>
        <pt x="425" y="187" on="0"/>
        <pt x="383" y="132" on="0"/>
        <pt x="303" y="87" on="0"/>
        <pt x="234" y="81" on="1"/>
      </contour>
    </TTGlyph>
    <TTGlyph name="dotlessi" xMin="9" yMin="0" xMax="199" yMax="493">
      <contour>
        <pt x="9" y="0" on="1"/>
        <pt x="96" y="493" on="1"/>
        <pt x="199" y="493" on="1"/>
        <pt x="112" y="0" on="1"/>
      </contour>
    </TTGlyph>
    <TTGlyph name="dotlessj" xMin="-84" yMin="-242" xMax="196" yMax="493">
      <contour>
        <pt x="-84" y="-242" on="1"/>
        <pt x="-79" y="-162" on="1"/>
        <pt x="-61" y="-161" on="0"/>
        <pt x="-37" y="-153" on="0"/>
        <pt x="-22" y="-134" on="0"/>
        <pt x="-11" y="-99" on="0"/>
        <pt x="-6" y="-69" on="1"/>
        <pt x="93" y="493" on="1"/>
        <pt x="196" y="493" on="1"/>
        <pt x="90" y="-108" on="1"/>
        <pt x="78" y="-174" on="0"/>
        <pt x="7" y="-234" on="0"/>
        <pt x="-47" y="-239" on="1"/>
      </contour>
    </TTGlyph>
    <TTGlyph name="e" xMin="20" yMin="-10" xMax="444" yMax="503">
      <contour>
        <pt x="444" y="371" on="1"/>
        <pt x="444" y="337" on="0"/>
        <pt x="416" y="277" on="0"/>
        <pt x="359" y="232" on="0"/>
        <pt x="272" y="206" on="0"/>
        <pt x="213" y="206" on="1"/>
        <pt x="184" y="206" on="0"/>
        <pt x="139" y="212" on="0"/>
        <pt x="129" y="214" on="1"/>
        <pt x="129" y="174" on="0"/>
        <pt x="149" y="122" on="0"/>
        <pt x="183" y="91" on="0"/>
        <pt x="227" y="78" on="0"/>
        <pt x="252" y="78" on="1"/>
        <pt x="283" y="78" on="0"/>
        <pt x="362" y="95" on="0"/>
        <pt x="394" y="111" on="1"/>
        <pt x="387" y="28" on="1"/>
        <pt x="358" y="14" on="0"/>
        <pt x="276" y="-10" on="0"/>
        <pt x="228" y="-10" on="1"/>
        <pt x="175" y="-10" on="0"/>
        <pt x="96" y="23" on="0"/>
        <pt x="45" y="81" on="0"/>
        <pt x="20" y="158" on="0"/>
        <pt x="20" y="203" on="1"/>
        <pt x="20" y="261" on="0"/>
        <pt x="59" y="369" on="0"/>
        <pt x="131" y="453" on="0"/>
        <pt x="231" y="503" on="0"/>
        <pt x="292" y="503" on="1"/>
        <pt x="367" y="503" on="0"/>
        <pt x="444" y="430" on="0"/>
      </contour>
      <contour>
        <pt x="285" y="415" on="1"/>
        <pt x="234" y="415" on="0"/>
        <pt x="159" y="342" on="0"/>
        <pt x="139" y="282" on="1"/>
        <pt x="152" y="280" on="0"/>
        <pt x="174" y="274" on="0"/>
        <pt x="200" y="274" on="1"/>
        <pt x="245" y="274" on="0"/>
        <pt x="305" y="290" on="0"/>
        <pt x="340" y="316" on="0"/>
        <pt x="354" y="347" on="0"/>
        <pt x="354" y="362" on="1"/>
        <pt x="354" y="377" on="0"/>
        <pt x="341" y="398" on="0"/>
        <pt x="322" y="410" on="0"/>
        <pt x="297" y="415" on="0"/>
      </contour>
    </TTGlyph>
    <TTGlyph name="eacute" xMin="20" yMin="-10" xMax="444" yMax="738">
      <component glyphName="e" x="0" y="0" flags="0x204"/>
      <component glyphName="acute" x="48" y="0" flags="0x4"/>
    </TTGlyph>
    <TTGlyph name="ecircumflex" xMin="20" yMin="-10" xMax="444" yMax="747">
      <component glyphName="e" x="0" y="0" flags="0x204"/>
      <component glyphName="circumflex" x="-15" y="0" flags="0x4"/>
    </TTGlyph>
    <TTGlyph name="edieresis" xMin="20" yMin="-10" xMax="444" yMax="700">
      <component glyphName="e" x="0" y="0" flags="0x204"/>
      <component glyphName="dieresis" x="-5" y="0" flags="0x4"/>
    </TTGlyph>
    <TTGlyph name="egrave" xMin="20" yMin="-10" xMax="444" yMax="738">
      <component glyphName="e" x="0" y="0" flags="0x204"/>
      <component glyphName="grave" x="47" y="0" flags="0x4"/>
    </TTGlyph>
    <TTGlyph name="eight" xMin="39" yMin="-14" xMax="516" yMax="713">
      <contour>
        <pt x="218" y="-14" on="1"/>
        <pt x="170" y="-14" on="0"/>
        <pt x="102" y="15" on="0"/>
        <pt x="59" y="63" on="0"/>
        <pt x="39" y="124" on="0"/>
        <pt x="39" y="156" on="1"/>
        <pt x="39" y="180" on="0"/>
        <pt x="51" y="235" on="0"/>
        <pt x="82" y="292" on="0"/>
        <pt x="137" y="349" on="0"/>
        <pt x="180" y="376" on="1"/>
        <pt x="156" y="405" on="0"/>
        <pt x="136" y="472" on="0"/>
        <pt x="136" y="504" on="1"/>
        <pt x="136" y="539" on="0"/>
        <pt x="158" y="613" on="0"/>
        <pt x="209" y="674" on="0"/>
        <pt x="295" y="713" on="0"/>
        <pt x="359" y="713" on="1"/>
        <pt x="403" y="713" on="0"/>
        <pt x="463" y="691" on="0"/>
        <pt x="500" y="654" on="0"/>
        <pt x="516" y="606" on="0"/>
        <pt x="516" y="581" on="1"/>
        <pt x="516" y="550" on="0"/>
        <pt x="504" y="502" on="0"/>
        <pt x="477" y="459" on="0"/>
        <pt x="432" y="414" on="0"/>
        <pt x="398" y="387" on="1"/>
        <pt x="441" y="364" on="0"/>
        <pt x="489" y="288" on="0"/>
        <pt x="489" y="234" on="1"/>
        <pt x="489" y="193" on="0"/>
        <pt x="455" y="106" on="0"/>
        <pt x="387" y="33" on="0"/>
        <pt x="285" y="-14" on="0"/>
      </contour>
      <contour>
        <pt x="338" y="623" on="1"/>
        <pt x="285" y="623" on="0"/>
        <pt x="231" y="563" on="0"/>
        <pt x="231" y="512" on="1"/>
        <pt x="231" y="486" on="0"/>
        <pt x="262" y="437" on="0"/>
        <pt x="298" y="422" on="1"/>
        <pt x="358" y="442" on="0"/>
        <pt x="413" y="514" on="0"/>
        <pt x="413" y="558" on="1"/>
        <pt x="413" y="587" on="0"/>
        <pt x="377" y="623" on="0"/>
      </contour>
      <contour>
        <pt x="291" y="336" on="1"/>
        <pt x="264" y="330" on="0"/>
        <pt x="211" y="303" on="0"/>
        <pt x="170" y="261" on="0"/>
        <pt x="145" y="204" on="0"/>
        <pt x="145" y="167" on="1"/>
        <pt x="145" y="123" on="0"/>
        <pt x="194" y="78" on="0"/>
        <pt x="239" y="78" on="1"/>
        <pt x="270" y="78" on="0"/>
        <pt x="323" y="100" on="0"/>
        <pt x="360" y="138" on="0"/>
        <pt x="381" y="190" on="0"/>
        <pt x="381" y="220" on="1"/>
        <pt x="381" y="266" on="0"/>
        <pt x="329" y="325" on="0"/>
      </contour>
    </TTGlyph>
    <TTGlyph name="eightinferior" xMin="9" yMin="-7" xMax="273" yMax="387">
      <component glyphName="eightsuperior" x="-43" y="-319" flags="0x4"/>
    </TTGlyph>
    <TTGlyph name="eightsuperior" xMin="52" yMin="312" xMax="316" yMax="706">
      <contour>
        <pt x="157" y="312" on="1"/>
        <pt x="103" y="312" on="0"/>
        <pt x="52" y="365" on="0"/>
        <pt x="52" y="402" on="1"/>
        <pt x="52" y="432" on="0"/>
        <pt x="85" y="495" on="0"/>
        <pt x="116" y="524" on="1"/>
        <pt x="109" y="532" on="0"/>
        <pt x="104" y="563" on="0"/>
        <pt x="104" y="578" on="1"/>
        <pt x="104" y="603" on="0"/>
        <pt x="117" y="650" on="0"/>
        <pt x="147" y="685" on="0"/>
        <pt x="197" y="706" on="0"/>
        <pt x="234" y="706" on="1"/>
        <pt x="285" y="706" on="0"/>
        <pt x="316" y="656" on="0"/>
        <pt x="316" y="603" on="1"/>
        <pt x="316" y="581" on="0"/>
        <pt x="294" y="542" on="0"/>
        <pt x="280" y="528" on="1"/>
        <pt x="291" y="517" on="0"/>
        <pt x="313" y="472" on="0"/>
        <pt x="313" y="446" on="1"/>
        <pt x="313" y="425" on="0"/>
        <pt x="294" y="377" on="0"/>
        <pt x="255" y="338" on="0"/>
        <pt x="196" y="312" on="0"/>
      </contour>
      <contour>
        <pt x="222" y="647" on="1"/>
        <pt x="196" y="647" on="0"/>
        <pt x="172" y="613" on="0"/>
        <pt x="172" y="584" on="1"/>
        <pt x="172" y="574" on="0"/>
        <pt x="184" y="556" on="0"/>
        <pt x="202" y="551" on="1"/>
        <pt x="229" y="558" on="0"/>
        <pt x="252" y="589" on="0"/>
        <pt x="252" y="616" on="1"/>
        <pt x="252" y="628" on="0"/>
        <pt x="239" y="647" on="0"/>
      </contour>
      <contour>
        <pt x="198" y="497" on="1"/>
        <pt x="189" y="495" on="0"/>
        <pt x="164" y="484" on="0"/>
        <pt x="142" y="463" on="0"/>
        <pt x="127" y="435" on="0"/>
        <pt x="127" y="417" on="1"/>
        <pt x="127" y="397" on="0"/>
        <pt x="150" y="373" on="0"/>
        <pt x="170" y="373" on="1"/>
        <pt x="204" y="373" on="0"/>
        <pt x="234" y="410" on="0"/>
        <pt x="234" y="442" on="1"/>
        <pt x="234" y="466" on="0"/>
        <pt x="212" y="494" on="0"/>
      </contour>
    </TTGlyph>
    <TTGlyph name="ellipsis" xMin="6" yMin="0" xMax="552" yMax="101">
      <contour>
        <pt x="6" y="0" on="1"/>
        <pt x="24" y="101" on="1"/>
        <pt x="127" y="101" on="1"/>
        <pt x="109" y="0" on="1"/>
      </contour>
      <contour>
        <pt x="218" y="0" on="1"/>
        <pt x="237" y="101" on="1"/>
        <pt x="339" y="101" on="1"/>
        <pt x="321" y="0" on="1"/>
      </contour>
      <contour>
        <pt x="431" y="0" on="1"/>
        <pt x="449" y="101" on="1"/>
        <pt x="552" y="101" on="1"/>
        <pt x="534" y="0" on="1"/>
      </contour>
    </TTGlyph>
    <TTGlyph name="emdash" xMin="47" yMin="235" xMax="494" yMax="324">
      <contour>
        <pt x="47" y="235" on="1"/>
        <pt x="62" y="324" on="1"/>
        <pt x="494" y="324" on="1"/>
        <pt x="479" y="235" on="1"/>
      </contour>
    </TTGlyph>
    <TTGlyph name="endash" xMin="47" yMin="235" xMax="411" yMax="324">
      <contour>
        <pt x="47" y="235" on="1"/>
        <pt x="62" y="324" on="1"/>
        <pt x="411" y="324" on="1"/>
        <pt x="396" y="235" on="1"/>
      </contour>
    </TTGlyph>
    <TTGlyph name="equal" xMin="42" yMin="157" xMax="418" yMax="397">
      <contour>
        <pt x="70" y="315" on="1"/>
        <pt x="85" y="397" on="1"/>
        <pt x="418" y="397" on="1"/>
        <pt x="403" y="315" on="1"/>
      </contour>
      <contour>
        <pt x="42" y="157" on="1"/>
        <pt x="57" y="239" on="1"/>
        <pt x="390" y="239" on="1"/>
        <pt x="375" y="157" on="1"/>
      </contour>
    </TTGlyph>
    <TTGlyph name="eth" xMin="5" yMin="-12" xMax="448" yMax="710">
      <contour>
        <pt x="173" y="-12" on="1"/>
        <pt x="135" y="-12" on="0"/>
        <pt x="73" y="14" on="0"/>
        <pt x="29" y="62" on="0"/>
        <pt x="5" y="128" on="0"/>
        <pt x="5" y="167" on="1"/>
        <pt x="5" y="209" on="0"/>
        <pt x="37" y="300" on="0"/>
        <pt x="97" y="377" on="0"/>
        <pt x="184" y="426" on="0"/>
        <pt x="239" y="426" on="1"/>
        <pt x="259" y="426" on="0"/>
        <pt x="291" y="417" on="0"/>
        <pt x="315" y="403" on="0"/>
        <pt x="333" y="385" on="0"/>
        <pt x="340" y="377" on="1"/>
        <pt x="341" y="382" on="0"/>
        <pt x="341" y="395" on="0"/>
        <pt x="341" y="402" on="1"/>
        <pt x="341" y="421" on="0"/>
        <pt x="336" y="465" on="0"/>
        <pt x="327" y="507" on="0"/>
        <pt x="314" y="542" on="0"/>
        <pt x="305" y="552" on="1"/>
        <pt x="236" y="501" on="0"/>
        <pt x="170" y="492" on="1"/>
        <pt x="148" y="553" on="1"/>
        <pt x="172" y="556" on="0"/>
        <pt x="232" y="578" on="0"/>
        <pt x="267" y="603" on="1"/>
        <pt x="247" y="628" on="0"/>
        <pt x="196" y="651" on="0"/>
        <pt x="169" y="655" on="1"/>
        <pt x="212" y="701" on="1"/>
        <pt x="243" y="701" on="0"/>
        <pt x="305" y="675" on="0"/>
        <pt x="334" y="647" on="1"/>
        <pt x="354" y="664" on="0"/>
        <pt x="384" y="694" on="0"/>
        <pt x="396" y="710" on="1"/>
        <pt x="448" y="697" on="1"/>
        <pt x="430" y="674" on="0"/>
        <pt x="394" y="633" on="0"/>
        <pt x="371" y="610" on="1"/>
        <pt x="387" y="587" on="0"/>
        <pt x="412" y="527" on="0"/>
        <pt x="429" y="457" on="0"/>
        <pt x="438" y="381" on="0"/>
        <pt x="438" y="343" on="1"/>
        <pt x="438" y="237" on="0"/>
        <pt x="386" y="99" on="0"/>
        <pt x="307" y="19" on="0"/>
        <pt x="214" y="-12" on="0"/>
      </contour>
      <contour>
        <pt x="235" y="338" on="1"/>
        <pt x="206" y="338" on="0"/>
        <pt x="159" y="311" on="0"/>
        <pt x="126" y="268" on="0"/>
        <pt x="108" y="212" on="0"/>
        <pt x="108" y="183" on="1"/>
        <pt x="108" y="139" on="0"/>
        <pt x="148" y="77" on="0"/>
        <pt x="191" y="77" on="1"/>
        <pt x="214" y="77" on="0"/>
        <pt x="260" y="100" on="0"/>
        <pt x="296" y="142" on="0"/>
        <pt x="318" y="201" on="0"/>
        <pt x="318" y="238" on="1"/>
        <pt x="318" y="283" on="0"/>
        <pt x="277" y="338" on="0"/>
      </contour>
    </TTGlyph>
    <TTGlyph name="exclam" xMin="19" yMin="0" xMax="258" yMax="750">
      <contour>
        <pt x="140" y="200" on="1"/>
        <pt x="70" y="200" on="1"/>
        <pt x="146" y="750" on="1"/>
        <pt x="258" y="750" on="1"/>
      </contour>
      <contour>
        <pt x="19" y="0" on="1"/>
        <pt x="37" y="99" on="1"/>
        <pt x="137" y="99" on="1"/>
        <pt x="120" y="0" on="1"/>
      </contour>
    </TTGlyph>
    <TTGlyph name="exclamdown" xMin="-34" yMin="-250" xMax="205" yMax="500">
      <contour>
        <pt x="84" y="300" on="1"/>
        <pt x="153" y="300" on="1"/>
        <pt x="78" y="-250" on="1"/>
        <pt x="-34" y="-250" on="1"/>
      </contour>
      <contour>
        <pt x="205" y="500" on="1"/>
        <pt x="187" y="401" on="1"/>
        <pt x="86" y="401" on="1"/>
        <pt x="103" y="500" on="1"/>
      </contour>
    </TTGlyph>
    <TTGlyph name="f" xMin="34" yMin="0" xMax="369" yMax="750">
      <contour>
        <pt x="209" y="412" on="1"/>
        <pt x="137" y="0" on="1"/>
        <pt x="34" y="0" on="1"/>
        <pt x="106" y="412" on="1"/>
        <pt x="39" y="412" on="1"/>
        <pt x="63" y="493" on="1"/>
        <pt x="121" y="493" on="1"/>
        <pt x="142" y="616" on="1"/>
        <pt x="147" y="644" on="0"/>
        <pt x="169" y="693" on="0"/>
        <pt x="202" y="729" on="0"/>
        <pt x="246" y="750" on="0"/>
        <pt x="273" y="750" on="1"/>
        <pt x="294" y="750" on="0"/>
        <pt x="322" y="749" on="0"/>
        <pt x="343" y="746" on="0"/>
        <pt x="359" y="742" on="0"/>
        <pt x="369" y="739" on="1"/>
        <pt x="344" y="654" on="1"/>
        <pt x="330" y="659" on="0"/>
        <pt x="303" y="662" on="0"/>
        <pt x="295" y="662" on="1"/>
        <pt x="281" y="662" on="0"/>
        <pt x="264" y="654" on="0"/>
        <pt x="252" y="630" on="0"/>
        <pt x="241" y="589" on="0"/>
        <pt x="235" y="556" on="1"/>
        <pt x="223" y="493" on="1"/>
        <pt x="328" y="493" on="1"/>
        <pt x="314" y="412" on="1"/>
      </contour>
    </TTGlyph>
    <TTGlyph name="five" xMin="9" yMin="-14" xMax="487" yMax="700">
      <contour>
        <pt x="162" y="-14" on="1"/>
        <pt x="134" y="-14" on="0"/>
        <pt x="81" y="-4" on="0"/>
        <pt x="38" y="9" on="0"/>
        <pt x="10" y="25" on="0"/>
        <pt x="9" y="31" on="1"/>
        <pt x="51" y="129" on="1"/>
        <pt x="72" y="109" on="0"/>
        <pt x="139" y="84" on="0"/>
        <pt x="177" y="84" on="1"/>
        <pt x="206" y="84" on="0"/>
        <pt x="262" y="108" on="0"/>
        <pt x="307" y="153" on="0"/>
        <pt x="335" y="216" on="0"/>
        <pt x="335" y="256" on="1"/>
        <pt x="335" y="278" on="0"/>
        <pt x="320" y="312" on="0"/>
        <pt x="286" y="335" on="0"/>
        <pt x="230" y="347" on="0"/>
        <pt x="188" y="347" on="1"/>
        <pt x="98" y="347" on="1"/>
        <pt x="199" y="700" on="1"/>
        <pt x="487" y="700" on="1"/>
        <pt x="459" y="601" on="1"/>
        <pt x="262" y="601" on="1"/>
        <pt x="218" y="440" on="1"/>
        <pt x="336" y="438" on="0"/>
        <pt x="444" y="359" on="0"/>
        <pt x="444" y="277" on="1"/>
        <pt x="444" y="209" on="0"/>
        <pt x="394" y="101" on="0"/>
        <pt x="313" y="26" on="0"/>
        <pt x="212" y="-14" on="0"/>
      </contour>
    </TTGlyph>
    <TTGlyph name="fiveinferior" xMin="-14" yMin="-6" xMax="259" yMax="379">
      <component glyphName="fivesuperior" x="-50" y="-319" flags="0x4"/>
    </TTGlyph>
    <TTGlyph name="fivesuperior" xMin="36" yMin="313" xMax="309" yMax="698">
      <contour>
        <pt x="132" y="313" on="1"/>
        <pt x="111" y="313" on="0"/>
        <pt x="76" y="322" on="0"/>
        <pt x="51" y="334" on="0"/>
        <pt x="36" y="346" on="0"/>
        <pt x="36" y="349" on="1"/>
        <pt x="68" y="422" on="1"/>
        <pt x="75" y="409" on="0"/>
        <pt x="113" y="390" on="0"/>
        <pt x="143" y="390" on="1"/>
        <pt x="154" y="390" on="0"/>
        <pt x="178" y="393" on="0"/>
        <pt x="197" y="406" on="0"/>
        <pt x="210" y="432" on="0"/>
        <pt x="210" y="455" on="1"/>
        <pt x="210" y="468" on="0"/>
        <pt x="186" y="491" on="0"/>
        <pt x="146" y="491" on="1"/>
        <pt x="80" y="491" on="1"/>
        <pt x="140" y="698" on="1"/>
        <pt x="309" y="698" on="1"/>
        <pt x="286" y="618" on="1"/>
        <pt x="185" y="618" on="1"/>
        <pt x="168" y="557" on="1"/>
        <pt x="226" y="556" on="0"/>
        <pt x="284" y="513" on="0"/>
        <pt x="284" y="466" on="1"/>
        <pt x="284" y="426" on="0"/>
        <pt x="257" y="368" on="0"/>
        <pt x="213" y="331" on="0"/>
        <pt x="159" y="313" on="0"/>
      </contour>
    </TTGlyph>
    <TTGlyph name="florin" xMin="-109" yMin="-241" xMax="414" yMax="714">
      <contour>
        <pt x="393" y="634" on="1"/>
        <pt x="383" y="639" on="0"/>
        <pt x="364" y="642" on="0"/>
        <pt x="355" y="642" on="1"/>
        <pt x="333" y="642" on="0"/>
        <pt x="299" y="626" on="0"/>
        <pt x="272" y="590" on="0"/>
        <pt x="248" y="533" on="0"/>
        <pt x="236" y="493" on="1"/>
        <pt x="357" y="493" on="1"/>
        <pt x="339" y="428" on="1"/>
        <pt x="214" y="428" on="1"/>
        <pt x="50" y="-88" on="1"/>
        <pt x="36" y="-133" on="0"/>
        <pt x="-1" y="-193" on="0"/>
        <pt x="-38" y="-227" on="0"/>
        <pt x="-72" y="-241" on="0"/>
        <pt x="-83" y="-241" on="1"/>
        <pt x="-106" y="-241" on="1"/>
        <pt x="-109" y="-165" on="1"/>
        <pt x="-82" y="-161" on="0"/>
        <pt x="-45" y="-122" on="0"/>
        <pt x="-30" y="-71" on="1"/>
        <pt x="124" y="428" on="1"/>
        <pt x="50" y="428" on="1"/>
        <pt x="69" y="493" on="1"/>
        <pt x="146" y="493" on="1"/>
        <pt x="161" y="547" on="1"/>
        <pt x="172" y="588" on="0"/>
        <pt x="213" y="650" on="0"/>
        <pt x="265" y="692" on="0"/>
        <pt x="326" y="714" on="0"/>
        <pt x="357" y="714" on="1"/>
        <pt x="372" y="714" on="0"/>
        <pt x="400" y="708" on="0"/>
        <pt x="414" y="703" on="1"/>
      </contour>
    </TTGlyph>
    <TTGlyph name="four" xMin="-2" yMin="0" xMax="470" yMax="700">
      <contour>
        <pt x="377" y="190" on="1"/>
        <pt x="343" y="0" on="1"/>
        <pt x="235" y="0" on="1"/>
        <pt x="269" y="190" on="1"/>
        <pt x="-2" y="190" on="1"/>
        <pt x="378" y="700" on="1"/>
        <pt x="467" y="700" on="1"/>
        <pt x="393" y="282" on="1"/>
        <pt x="470" y="282" on="1"/>
        <pt x="453" y="190" on="1"/>
      </contour>
      <contour>
        <pt x="327" y="521" on="1"/>
        <pt x="164" y="282" on="1"/>
        <pt x="285" y="282" on="1"/>
      </contour>
    </TTGlyph>
    <TTGlyph name="fourinferior" xMin="-14" yMin="1" xMax="279" yMax="379">
      <component glyphName="foursuperior" x="-43" y="-319" flags="0x4"/>
    </TTGlyph>
    <TTGlyph name="foursuperior" xMin="29" yMin="320" xMax="322" yMax="698">
      <contour>
        <pt x="267" y="423" on="1"/>
        <pt x="249" y="320" on="1"/>
        <pt x="168" y="320" on="1"/>
        <pt x="187" y="423" on="1"/>
        <pt x="29" y="423" on="1"/>
        <pt x="246" y="698" on="1"/>
        <pt x="316" y="698" on="1"/>
        <pt x="278" y="485" on="1"/>
        <pt x="322" y="485" on="1"/>
        <pt x="312" y="423" on="1"/>
      </contour>
      <contour>
        <pt x="215" y="583" on="1"/>
        <pt x="144" y="485" on="1"/>
        <pt x="198" y="485" on="1"/>
      </contour>
    </TTGlyph>
    <TTGlyph name="g" xMin="-44" yMin="-250" xMax="481" yMax="503">
      <contour>
        <pt x="144" y="-250" on="1"/>
        <pt x="92" y="-250" on="0"/>
        <pt x="21" y="-227" on="0"/>
        <pt x="-24" y="-190" on="0"/>
        <pt x="-44" y="-144" on="0"/>
        <pt x="-44" y="-122" on="1"/>
        <pt x="-44" y="-87" on="0"/>
        <pt x="3" y="-15" on="0"/>
        <pt x="52" y="9" on="1"/>
        <pt x="36" y="21" on="0"/>
        <pt x="21" y="51" on="0"/>
        <pt x="21" y="65" on="1"/>
        <pt x="21" y="84" on="0"/>
        <pt x="51" y="128" on="0"/>
        <pt x="82" y="145" on="1"/>
        <pt x="57" y="172" on="0"/>
        <pt x="35" y="241" on="0"/>
        <pt x="35" y="276" on="1"/>
        <pt x="35" y="319" on="0"/>
        <pt x="65" y="401" on="0"/>
        <pt x="122" y="464" on="0"/>
        <pt x="203" y="503" on="0"/>
        <pt x="254" y="503" on="1"/>
        <pt x="317" y="503" on="0"/>
        <pt x="355" y="469" on="1"/>
        <pt x="372" y="480" on="0"/>
        <pt x="427" y="495" on="0"/>
        <pt x="459" y="495" on="1"/>
        <pt x="481" y="495" on="1"/>
        <pt x="462" y="429" on="1"/>
        <pt x="427" y="429" on="1"/>
        <pt x="422" y="429" on="0"/>
        <pt x="403" y="426" on="0"/>
        <pt x="393" y="424" on="1"/>
        <pt x="401" y="404" on="0"/>
        <pt x="407" y="361" on="0"/>
        <pt x="407" y="342" on="1"/>
        <pt x="407" y="299" on="0"/>
        <pt x="376" y="217" on="0"/>
        <pt x="319" y="152" on="0"/>
        <pt x="239" y="113" on="0"/>
        <pt x="190" y="113" on="1"/>
        <pt x="174" y="113" on="0"/>
        <pt x="149" y="117" on="0"/>
        <pt x="137" y="121" on="1"/>
        <pt x="129" y="115" on="0"/>
        <pt x="120" y="100" on="0"/>
        <pt x="120" y="92" on="1"/>
        <pt x="120" y="75" on="0"/>
        <pt x="171" y="59" on="0"/>
        <pt x="231" y="48" on="1"/>
        <pt x="253" y="44" on="0"/>
        <pt x="308" y="30" on="0"/>
        <pt x="356" y="2" on="0"/>
        <pt x="389" y="-43" on="0"/>
        <pt x="389" y="-77" on="1"/>
        <pt x="389" y="-110" on="0"/>
        <pt x="355" y="-173" on="0"/>
        <pt x="292" y="-221" on="0"/>
        <pt x="201" y="-250" on="0"/>
      </contour>
      <contour>
        <pt x="241" y="424" on="1"/>
        <pt x="214" y="424" on="0"/>
        <pt x="173" y="400" on="0"/>
        <pt x="144" y="361" on="0"/>
        <pt x="129" y="309" on="0"/>
        <pt x="129" y="281" on="1"/>
        <pt x="129" y="237" on="0"/>
        <pt x="166" y="190" on="0"/>
        <pt x="202" y="190" on="1"/>
        <pt x="228" y="190" on="0"/>
        <pt x="270" y="215" on="0"/>
        <pt x="299" y="256" on="0"/>
        <pt x="314" y="308" on="0"/>
        <pt x="314" y="336" on="1"/>
        <pt x="314" y="424" on="0"/>
      </contour>
      <contour>
        <pt x="185" y="-30" on="1"/>
        <pt x="182" y="-29" on="0"/>
        <pt x="165" y="-25" on="0"/>
        <pt x="146" y="-20" on="0"/>
        <pt x="129" y="-16" on="0"/>
        <pt x="125" y="-16" on="1"/>
        <pt x="95" y="-27" on="0"/>
        <pt x="46" y="-76" on="0"/>
        <pt x="46" y="-106" on="1"/>
        <pt x="46" y="-135" on="0"/>
        <pt x="100" y="-174" on="0"/>
        <pt x="153" y="-174" on="1"/>
        <pt x="184" y="-174" on="0"/>
        <pt x="235" y="-160" on="0"/>
        <pt x="272" y="-138" on="0"/>
        <pt x="293" y="-108" on="0"/>
        <pt x="293" y="-91" on="1"/>
        <pt x="293" y="-85" on="0"/>
        <pt x="287" y="-71" on="0"/>
        <pt x="265" y="-56" on="0"/>
        <pt x="222" y="-39" on="0"/>
      </contour>
    </TTGlyph>
    <TTGlyph name="germandbls" xMin="8" yMin="-136" xMax="491" yMax="750">
      <contour>
        <pt x="240" y="-10" on="1"/>
        <pt x="226" y="-10" on="0"/>
        <pt x="200" y="-8" on="0"/>
        <pt x="189" y="-6" on="1"/>
        <pt x="204" y="78" on="1"/>
        <pt x="245" y="78" on="0"/>
        <pt x="305" y="81" on="0"/>
        <pt x="345" y="97" on="0"/>
        <pt x="364" y="133" on="0"/>
        <pt x="364" y="166" on="1"/>
        <pt x="364" y="200" on="0"/>
        <pt x="334" y="254" on="0"/>
        <pt x="297" y="300" on="0"/>
        <pt x="267" y="340" on="0"/>
        <pt x="267" y="360" on="1"/>
        <pt x="267" y="382" on="0"/>
        <pt x="305" y="427" on="0"/>
        <pt x="352" y="482" on="0"/>
        <pt x="390" y="550" on="0"/>
        <pt x="390" y="595" on="1"/>
        <pt x="390" y="633" on="0"/>
        <pt x="353" y="662" on="0"/>
        <pt x="327" y="662" on="1"/>
        <pt x="288" y="662" on="0"/>
        <pt x="243" y="614" on="0"/>
        <pt x="232" y="552" on="1"/>
        <pt x="111" y="-136" on="1"/>
        <pt x="8" y="-136" on="1"/>
        <pt x="105" y="412" on="1"/>
        <pt x="37" y="412" on="1"/>
        <pt x="61" y="493" on="1"/>
        <pt x="119" y="493" on="1"/>
        <pt x="133" y="569" on="1"/>
        <pt x="140" y="612" on="0"/>
        <pt x="178" y="679" on="0"/>
        <pt x="233" y="726" on="0"/>
        <pt x="301" y="750" on="0"/>
        <pt x="340" y="750" on="1"/>
        <pt x="365" y="750" on="0"/>
        <pt x="419" y="734" on="0"/>
        <pt x="463" y="699" on="0"/>
        <pt x="491" y="645" on="0"/>
        <pt x="491" y="607" on="1"/>
        <pt x="491" y="556" on="0"/>
        <pt x="456" y="479" on="0"/>
        <pt x="413" y="422" on="0"/>
        <pt x="378" y="384" on="0"/>
        <pt x="378" y="372" on="1"/>
        <pt x="378" y="360" on="0"/>
        <pt x="407" y="327" on="0"/>
        <pt x="441" y="281" on="0"/>
        <pt x="470" y="218" on="0"/>
        <pt x="470" y="176" on="1"/>
        <pt x="470" y="125" on="0"/>
        <pt x="431" y="54" on="0"/>
        <pt x="366" y="10" on="0"/>
        <pt x="283" y="-10" on="0"/>
      </contour>
    </TTGlyph>
    <TTGlyph name="grave" xMin="169" yMin="592" xMax="335" yMax="738">
      <contour>
        <pt x="169" y="655" on="1"/>
        <pt x="184" y="738" on="1"/>
        <pt x="335" y="645" on="1"/>
        <pt x="326" y="592" on="1"/>
      </contour>
    </TTGlyph>
    <TTGlyph name="greater" xMin="22" yMin="78" xMax="369" yMax="490">
      <contour>
        <pt x="140" y="78" on="1"/>
        <pt x="22" y="78" on="1"/>
        <pt x="251" y="284" on="1"/>
        <pt x="95" y="490" on="1"/>
        <pt x="213" y="490" on="1"/>
        <pt x="369" y="284" on="1"/>
      </contour>
    </TTGlyph>
    <TTGlyph name="guillemotleft" xMin="18" yMin="78" xMax="544" yMax="490">
      <contour>
        <pt x="351" y="78" on="1"/>
        <pt x="252" y="284" on="1"/>
        <pt x="424" y="490" on="1"/>
        <pt x="544" y="490" on="1"/>
        <pt x="373" y="284" on="1"/>
        <pt x="472" y="78" on="1"/>
      </contour>
      <contour>
        <pt x="117" y="78" on="1"/>
        <pt x="18" y="284" on="1"/>
        <pt x="190" y="490" on="1"/>
        <pt x="310" y="490" on="1"/>
        <pt x="139" y="284" on="1"/>
        <pt x="237" y="78" on="1"/>
      </contour>
    </TTGlyph>
    <TTGlyph name="guillemotright" xMin="3" yMin="78" xMax="529" yMax="490">
      <contour>
        <pt x="358" y="78" on="1"/>
        <pt x="237" y="78" on="1"/>
        <pt x="409" y="284" on="1"/>
        <pt x="310" y="490" on="1"/>
        <pt x="430" y="490" on="1"/>
        <pt x="529" y="284" on="1"/>
      </contour>
      <contour>
        <pt x="123" y="78" on="1"/>
        <pt x="3" y="78" on="1"/>
        <pt x="176" y="284" on="1"/>
        <pt x="76" y="490" on="1"/>
        <pt x="196" y="490" on="1"/>
        <pt x="295" y="284" on="1"/>
      </contour>
    </TTGlyph>
    <TTGlyph name="guilsinglleft" xMin="15" yMin="78" xMax="312" yMax="490">
      <contour>
        <pt x="118" y="78" on="1"/>
        <pt x="15" y="284" on="1"/>
        <pt x="190" y="490" on="1"/>
        <pt x="312" y="490" on="1"/>
        <pt x="137" y="284" on="1"/>
        <pt x="240" y="78" on="1"/>
      </contour>
    </TTGlyph>
    <TTGlyph name="guilsinglright" xMin="2" yMin="78" xMax="299" yMax="490">
      <contour>
        <pt x="124" y="78" on="1"/>
        <pt x="2" y="78" on="1"/>
        <pt x="177" y="284" on="1"/>
        <pt x="75" y="490" on="1"/>
        <pt x="197" y="490" on="1"/>
        <pt x="299" y="284" on="1"/>
      </contour>
    </TTGlyph>
    <TTGlyph name="h" xMin="8" yMin="0" xMax="455" yMax="750">
      <contour>
        <pt x="298" y="0" on="1"/>
        <pt x="345" y="264" on="1"/>
        <pt x="349" y="284" on="0"/>
        <pt x="352" y="317" on="0"/>
        <pt x="352" y="331" on="1"/>
        <pt x="352" y="376" on="0"/>
        <pt x="315" y="415" on="0"/>
        <pt x="277" y="415" on="1"/>
        <pt x="216" y="415" on="0"/>
        <pt x="174" y="358" on="1"/>
        <pt x="110" y="0" on="1"/>
        <pt x="8" y="0" on="1"/>
        <pt x="140" y="750" on="1"/>
        <pt x="243" y="750" on="1"/>
        <pt x="190" y="450" on="1"/>
        <pt x="241" y="503" on="0"/>
        <pt x="303" y="503" on="1"/>
        <pt x="385" y="503" on="0"/>
        <pt x="455" y="417" on="0"/>
        <pt x="455" y="344" on="1"/>
        <pt x="455" y="310" on="0"/>
        <pt x="447" y="264" on="1"/>
        <pt x="401" y="0" on="1"/>
      </contour>
    </TTGlyph>
    <TTGlyph name="hyphen" xMin="47" yMin="235" xMax="341" yMax="324">
      <contour>
        <pt x="47" y="235" on="1"/>
        <pt x="62" y="324" on="1"/>
        <pt x="341" y="324" on="1"/>
        <pt x="326" y="235" on="1"/>
      </contour>
    </TTGlyph>
    <TTGlyph name="i" xMin="9" yMin="0" xMax="235" yMax="700">
      <contour>
        <pt x="114" y="592" on="1"/>
        <pt x="132" y="700" on="1"/>
        <pt x="235" y="700" on="1"/>
        <pt x="216" y="592" on="1"/>
      </contour>
      <contour>
        <pt x="9" y="0" on="1"/>
        <pt x="96" y="493" on="1"/>
        <pt x="199" y="493" on="1"/>
        <pt x="112" y="0" on="1"/>
      </contour>
    </TTGlyph>
    <TTGlyph name="iacute" xMin="9" yMin="0" xMax="275" yMax="738">
      <component glyphName="dotlessi" x="0" y="0" flags="0x204"/>
      <component glyphName="acute" x="-77" y="0" flags="0x4"/>
    </TTGlyph>
    <TTGlyph name="icircumflex" xMin="9" yMin="0" xMax="307" yMax="747">
      <component glyphName="dotlessi" x="0" y="0" flags="0x204"/>
      <component glyphName="circumflex" x="-141" y="0" flags="0x4"/>
    </TTGlyph>
    <TTGlyph name="idieresis" xMin="9" yMin="0" xMax="296" yMax="700">
      <component glyphName="dotlessi" x="0" y="0" flags="0x204"/>
      <component glyphName="dieresis" x="-130" y="0" flags="0x4"/>
    </TTGlyph>
    <TTGlyph name="igrave" xMin="9" yMin="0" xMax="259" yMax="738">
      <component glyphName="dotlessi" x="0" y="0" flags="0x204"/>
      <component glyphName="grave" x="-76" y="0" flags="0x4"/>
    </TTGlyph>
    <TTGlyph name="j" xMin="-84" yMin="-242" xMax="233" yMax="700">
      <contour>
        <pt x="-84" y="-242" on="1"/>
        <pt x="-79" y="-162" on="1"/>
        <pt x="-61" y="-161" on="0"/>
        <pt x="-37" y="-153" on="0"/>
        <pt x="-22" y="-134" on="0"/>
        <pt x="-11" y="-99" on="0"/>
        <pt x="-6" y="-69" on="1"/>
        <pt x="93" y="493" on="1"/>
        <pt x="196" y="493" on="1"/>
        <pt x="90" y="-108" on="1"/>
        <pt x="78" y="-174" on="0"/>
        <pt x="7" y="-234" on="0"/>
        <pt x="-47" y="-239" on="1"/>
      </contour>
      <contour>
        <pt x="111" y="592" on="1"/>
        <pt x="130" y="700" on="1"/>
        <pt x="233" y="700" on="1"/>
        <pt x="213" y="592" on="1"/>
      </contour>
    </TTGlyph>
    <TTGlyph name="k" xMin="8" yMin="0" xMax="465" yMax="750">
      <contour>
        <pt x="8" y="0" on="1"/>
        <pt x="140" y="750" on="1"/>
        <pt x="243" y="750" on="1"/>
        <pt x="160" y="278" on="1"/>
        <pt x="346" y="493" on="1"/>
        <pt x="465" y="493" on="1"/>
        <pt x="254" y="263" on="1"/>
        <pt x="378" y="0" on="1"/>
        <pt x="261" y="0" on="1"/>
        <pt x="153" y="240" on="1"/>
        <pt x="111" y="0" on="1"/>
      </contour>
    </TTGlyph>
    <TTGlyph name="l" xMin="25" yMin="-10" xMax="242" yMax="750">
      <contour>
        <pt x="157" y="-10" on="1"/>
        <pt x="121" y="-10" on="1"/>
        <pt x="69" y="-10" on="0"/>
        <pt x="25" y="45" on="0"/>
        <pt x="25" y="83" on="1"/>
        <pt x="25" y="97" on="0"/>
        <pt x="28" y="112" on="1"/>
        <pt x="140" y="750" on="1"/>
        <pt x="242" y="750" on="1"/>
        <pt x="139" y="164" on="1"/>
        <pt x="136" y="145" on="0"/>
        <pt x="132" y="120" on="0"/>
        <pt x="132" y="110" on="1"/>
        <pt x="132" y="85" on="0"/>
        <pt x="156" y="72" on="0"/>
        <pt x="182" y="72" on="1"/>
      </contour>
    </TTGlyph>
    <TTGlyph name="less" xMin="31" yMin="78" xMax="378" yMax="490">
      <contour>
        <pt x="187" y="78" on="1"/>
        <pt x="31" y="284" on="1"/>
        <pt x="260" y="490" on="1"/>
        <pt x="378" y="490" on="1"/>
        <pt x="149" y="284" on="1"/>
        <pt x="305" y="78" on="1"/>
      </contour>
    </TTGlyph>
    <TTGlyph name="logicalnot" xMin="68" yMin="151" xMax="495" yMax="406">
      <contour>
        <pt x="376" y="151" on="1"/>
        <pt x="408" y="334" on="1"/>
        <pt x="68" y="334" on="1"/>
        <pt x="81" y="406" on="1"/>
        <pt x="495" y="406" on="1"/>
        <pt x="450" y="151" on="1"/>
      </contour>
    </TTGlyph>
    <TTGlyph name="m" xMin="8" yMin="0" xMax="746" yMax="503">
      <contour>
        <pt x="587" y="0" on="1"/>
        <pt x="636" y="281" on="1"/>
        <pt x="639" y="297" on="0"/>
        <pt x="641" y="325" on="0"/>
        <pt x="641" y="337" on="1"/>
        <pt x="641" y="378" on="0"/>
        <pt x="608" y="415" on="0"/>
        <pt x="570" y="415" on="1"/>
        <pt x="539" y="415" on="0"/>
        <pt x="496" y="392" on="0"/>
        <pt x="469" y="356" on="0"/>
        <pt x="454" y="313" on="0"/>
        <pt x="451" y="293" on="1"/>
        <pt x="400" y="0" on="1"/>
        <pt x="297" y="0" on="1"/>
        <pt x="345" y="270" on="1"/>
        <pt x="349" y="290" on="0"/>
        <pt x="352" y="322" on="0"/>
        <pt x="352" y="336" on="1"/>
        <pt x="352" y="383" on="0"/>
        <pt x="313" y="415" on="0"/>
        <pt x="277" y="415" on="1"/>
        <pt x="214" y="415" on="0"/>
        <pt x="174" y="359" on="1"/>
        <pt x="111" y="0" on="1"/>
        <pt x="8" y="0" on="1"/>
        <pt x="95" y="493" on="1"/>
        <pt x="177" y="493" on="1"/>
        <pt x="177" y="446" on="1"/>
        <pt x="207" y="477" on="0"/>
        <pt x="272" y="503" on="0"/>
        <pt x="307" y="503" on="1"/>
        <pt x="326" y="503" on="0"/>
        <pt x="365" y="495" on="0"/>
        <pt x="398" y="474" on="0"/>
        <pt x="425" y="439" on="0"/>
        <pt x="433" y="412" on="1"/>
        <pt x="454" y="450" on="0"/>
        <pt x="540" y="503" on="0"/>
        <pt x="601" y="503" on="1"/>
        <pt x="674" y="503" on="0"/>
        <pt x="746" y="427" on="0"/>
        <pt x="746" y="354" on="1"/>
        <pt x="746" y="337" on="0"/>
        <pt x="743" y="302" on="0"/>
        <pt x="739" y="282" on="1"/>
        <pt x="689" y="0" on="1"/>
      </contour>
    </TTGlyph>
    <TTGlyph name="mu" xMin="-20" yMin="-242" xMax="499" yMax="493">
      <contour>
        <pt x="455" y="-10" on="1"/>
        <pt x="420" y="-10" on="1"/>
        <pt x="350" y="-10" on="0"/>
        <pt x="335" y="56" on="1"/>
        <pt x="309" y="27" on="0"/>
        <pt x="243" y="-10" on="0"/>
        <pt x="208" y="-10" on="1"/>
        <pt x="184" y="-10" on="0"/>
        <pt x="146" y="1" on="0"/>
        <pt x="128" y="20" on="1"/>
        <pt x="82" y="-242" on="1"/>
        <pt x="-20" y="-242" on="1"/>
        <pt x="109" y="493" on="1"/>
        <pt x="211" y="493" on="1"/>
        <pt x="166" y="232" on="1"/>
        <pt x="163" y="213" on="0"/>
        <pt x="159" y="180" on="0"/>
        <pt x="159" y="166" on="1"/>
        <pt x="159" y="122" on="0"/>
        <pt x="193" y="78" on="0"/>
        <pt x="233" y="78" on="1"/>
        <pt x="263" y="78" on="0"/>
        <pt x="310" y="103" on="0"/>
        <pt x="333" y="130" on="1"/>
        <pt x="397" y="493" on="1"/>
        <pt x="499" y="493" on="1"/>
        <pt x="442" y="171" on="1"/>
        <pt x="435" y="136" on="0"/>
        <pt x="435" y="111" on="1"/>
        <pt x="435" y="91" on="0"/>
        <pt x="448" y="72" on="0"/>
        <pt x="465" y="72" on="1"/>
        <pt x="481" y="72" on="1"/>
      </contour>
    </TTGlyph>
    <TTGlyph name="multiply" xMin="35" yMin="116" xMax="374" yMax="438">
      <contour>
        <pt x="276" y="116" on="1"/>
        <pt x="196" y="233" on="1"/>
        <pt x="75" y="116" on="1"/>
        <pt x="35" y="160" on="1"/>
        <pt x="157" y="277" on="1"/>
        <pt x="77" y="394" on="1"/>
        <pt x="133" y="438" on="1"/>
        <pt x="212" y="321" on="1"/>
        <pt x="334" y="438" on="1"/>
        <pt x="374" y="394" on="1"/>
        <pt x="253" y="277" on="1"/>
        <pt x="333" y="160" on="1"/>
      </contour>
    </TTGlyph>
    <TTGlyph name="n" xMin="8" yMin="0" xMax="460" yMax="503">
      <contour>
        <pt x="302" y="0" on="1"/>
        <pt x="350" y="270" on="1"/>
        <pt x="356" y="304" on="0"/>
        <pt x="356" y="330" on="1"/>
        <pt x="356" y="415" on="0"/>
        <pt x="279" y="415" on="1"/>
        <pt x="248" y="415" on="0"/>
        <pt x="194" y="387" on="0"/>
        <pt x="174" y="358" on="1"/>
        <pt x="111" y="0" on="1"/>
        <pt x="8" y="0" on="1"/>
        <pt x="95" y="493" on="1"/>
        <pt x="187" y="493" on="1"/>
        <pt x="183" y="449" on="1"/>
        <pt x="214" y="479" on="0"/>
        <pt x="277" y="503" on="0"/>
        <pt x="306" y="503" on="1"/>
        <pt x="389" y="503" on="0"/>
        <pt x="460" y="419" on="0"/>
        <pt x="460" y="346" on="1"/>
        <pt x="460" y="308" on="0"/>
        <pt x="453" y="270" on="1"/>
        <pt x="405" y="0" on="1"/>
      </contour>
    </TTGlyph>
    <TTGlyph name="nine" xMin="76" yMin="0" xMax="501" yMax="714">
      <contour>
        <pt x="341" y="714" on="1"/>
        <pt x="375" y="714" on="0"/>
        <pt x="433" y="694" on="0"/>
        <pt x="476" y="650" on="0"/>
        <pt x="501" y="578" on="0"/>
        <pt x="501" y="526" on="1"/>
        <pt x="501" y="449" on="0"/>
        <pt x="465" y="311" on="0"/>
        <pt x="407" y="194" on="0"/>
        <pt x="332" y="100" on="0"/>
        <pt x="252" y="35" on="0"/>
        <pt x="176" y="0" on="0"/>
        <pt x="145" y="0" on="1"/>
        <pt x="81" y="42" on="1"/>
        <pt x="108" y="53" on="0"/>
        <pt x="189" y="99" on="0"/>
        <pt x="272" y="170" on="0"/>
        <pt x="343" y="267" on="0"/>
        <pt x="358" y="329" on="1"/>
        <pt x="347" y="316" on="0"/>
        <pt x="313" y="297" on="0"/>
        <pt x="277" y="285" on="0"/>
        <pt x="245" y="279" on="0"/>
        <pt x="236" y="279" on="1"/>
        <pt x="163" y="279" on="0"/>
        <pt x="76" y="358" on="0"/>
        <pt x="76" y="437" on="1"/>
        <pt x="76" y="493" on="0"/>
        <pt x="116" y="594" on="0"/>
        <pt x="186" y="670" on="0"/>
        <pt x="284" y="714" on="0"/>
      </contour>
      <contour>
        <pt x="261" y="369" on="1"/>
        <pt x="288" y="369" on="0"/>
        <pt x="338" y="391" on="0"/>
        <pt x="377" y="431" on="0"/>
        <pt x="400" y="488" on="0"/>
        <pt x="400" y="524" on="1"/>
        <pt x="400" y="574" on="0"/>
        <pt x="348" y="620" on="0"/>
        <pt x="317" y="620" on="1"/>
        <pt x="287" y="620" on="0"/>
        <pt x="237" y="591" on="0"/>
        <pt x="203" y="545" on="0"/>
        <pt x="184" y="489" on="0"/>
        <pt x="184" y="461" on="1"/>
        <pt x="184" y="444" on="0"/>
        <pt x="192" y="412" on="0"/>
        <pt x="210" y="385" on="0"/>
        <pt x="239" y="369" on="0"/>
      </contour>
    </TTGlyph>
    <TTGlyph name="nineinferior" xMin="25" yMin="1" xMax="274" yMax="387">
      <component glyphName="ninesuperior" x="-43" y="-319" flags="0x4"/>
    </TTGlyph>
    <TTGlyph name="ninesuperior" xMin="68" yMin="320" xMax="317" yMax="706">
      <contour>
        <pt x="224" y="706" on="1"/>
        <pt x="267" y="706" on="0"/>
        <pt x="317" y="653" on="0"/>
        <pt x="317" y="596" on="1"/>
        <pt x="317" y="543" on="0"/>
        <pt x="277" y="444" on="0"/>
        <pt x="215" y="367" on="0"/>
        <pt x="142" y="320" on="0"/>
        <pt x="109" y="320" on="1"/>
        <pt x="68" y="351" on="1"/>
        <pt x="81" y="351" on="0"/>
        <pt x="130" y="375" on="0"/>
        <pt x="180" y="414" on="0"/>
        <pt x="220" y="463" on="0"/>
        <pt x="225" y="488" on="1"/>
        <pt x="212" y="477" on="0"/>
        <pt x="180" y="471" on="0"/>
        <pt x="166" y="471" on="1"/>
        <pt x="149" y="471" on="0"/>
        <pt x="116" y="483" on="0"/>
        <pt x="89" y="505" on="0"/>
        <pt x="72" y="539" on="0"/>
        <pt x="72" y="561" on="1"/>
        <pt x="72" y="588" on="0"/>
        <pt x="95" y="640" on="0"/>
        <pt x="136" y="681" on="0"/>
        <pt x="191" y="706" on="0"/>
      </contour>
      <contour>
        <pt x="184" y="535" on="1"/>
        <pt x="210" y="535" on="0"/>
        <pt x="245" y="563" on="0"/>
        <pt x="245" y="596" on="1"/>
        <pt x="245" y="621" on="0"/>
        <pt x="219" y="634" on="0"/>
        <pt x="210" y="634" on="1"/>
        <pt x="198" y="634" on="0"/>
        <pt x="177" y="622" on="0"/>
        <pt x="162" y="604" on="0"/>
        <pt x="153" y="581" on="0"/>
        <pt x="153" y="571" on="1"/>
        <pt x="153" y="555" on="0"/>
        <pt x="170" y="535" on="0"/>
      </contour>
    </TTGlyph>
    <TTGlyph name="ntilde" xMin="8" yMin="0" xMax="494" yMax="709">
      <component glyphName="n" x="0" y="0" flags="0x204"/>
      <component glyphName="tilde" x="-36" y="0" flags="0x4"/>
    </TTGlyph>
    <TTGlyph name="numbersign" xMin="11" yMin="-11" xMax="652" yMax="700">
      <contour>
        <pt x="607" y="420" on="1"/>
        <pt x="504" y="420" on="1"/>
        <pt x="445" y="303" on="1"/>
        <pt x="558" y="303" on="1"/>
        <pt x="505" y="214" on="1"/>
        <pt x="397" y="214" on="1"/>
        <pt x="281" y="-11" on="1"/>
        <pt x="200" y="-11" on="1"/>
        <pt x="314" y="214" on="1"/>
        <pt x="209" y="214" on="1"/>
        <pt x="92" y="-11" on="1"/>
        <pt x="11" y="-11" on="1"/>
        <pt x="127" y="214" on="1"/>
        <pt x="20" y="214" on="1"/>
        <pt x="73" y="303" on="1"/>
        <pt x="174" y="303" on="1"/>
        <pt x="233" y="420" on="1"/>
        <pt x="123" y="420" on="1"/>
        <pt x="166" y="509" on="1"/>
        <pt x="281" y="509" on="1"/>
        <pt x="381" y="700" on="1"/>
        <pt x="462" y="700" on="1"/>
        <pt x="363" y="509" on="1"/>
        <pt x="470" y="509" on="1"/>
        <pt x="568" y="700" on="1"/>
        <pt x="651" y="700" on="1"/>
        <pt x="552" y="509" on="1"/>
        <pt x="652" y="509" on="1"/>
      </contour>
      <contour>
        <pt x="315" y="420" on="1"/>
        <pt x="256" y="303" on="1"/>
        <pt x="362" y="303" on="1"/>
        <pt x="422" y="420" on="1"/>
      </contour>
    </TTGlyph>
    <TTGlyph name="o" xMin="20" yMin="-10" xMax="481" yMax="503">
      <contour>
        <pt x="205" y="-10" on="1"/>
        <pt x="159" y="-10" on="0"/>
        <pt x="90" y="22" on="0"/>
        <pt x="43" y="79" on="0"/>
        <pt x="20" y="154" on="0"/>
        <pt x="20" y="198" on="1"/>
        <pt x="20" y="258" on="0"/>
        <pt x="60" y="369" on="0"/>
        <pt x="132" y="453" on="0"/>
        <pt x="234" y="503" on="0"/>
        <pt x="296" y="503" on="1"/>
        <pt x="342" y="503" on="0"/>
        <pt x="411" y="471" on="0"/>
        <pt x="457" y="414" on="0"/>
        <pt x="481" y="338" on="0"/>
        <pt x="481" y="295" on="1"/>
        <pt x="481" y="235" on="0"/>
        <pt x="441" y="124" on="0"/>
        <pt x="369" y="40" on="0"/>
        <pt x="267" y="-10" on="0"/>
      </contour>
      <contour>
        <pt x="280" y="415" on="1"/>
        <pt x="245" y="415" on="0"/>
        <pt x="187" y="383" on="0"/>
        <pt x="147" y="326" on="0"/>
        <pt x="125" y="248" on="0"/>
        <pt x="125" y="203" on="1"/>
        <pt x="125" y="145" on="0"/>
        <pt x="173" y="78" on="0"/>
        <pt x="221" y="78" on="1"/>
        <pt x="257" y="78" on="0"/>
        <pt x="314" y="110" on="0"/>
        <pt x="354" y="167" on="0"/>
        <pt x="376" y="245" on="0"/>
        <pt x="376" y="290" on="1"/>
        <pt x="376" y="348" on="0"/>
        <pt x="328" y="415" on="0"/>
      </contour>
    </TTGlyph>
    <TTGlyph name="oacute" xMin="20" yMin="-10" xMax="481" yMax="738">
      <component glyphName="o" x="0" y="0" flags="0x204"/>
      <component glyphName="acute" x="68" y="0" flags="0x4"/>
    </TTGlyph>
    <TTGlyph name="ocircumflex" xMin="20" yMin="-10" xMax="481" yMax="747">
      <component glyphName="o" x="0" y="0" flags="0x204"/>
      <component glyphName="circumflex" x="4" y="0" flags="0x4"/>
    </TTGlyph>
    <TTGlyph name="odieresis" xMin="20" yMin="-10" xMax="481" yMax="700">
      <component glyphName="o" x="0" y="0" flags="0x204"/>
      <component glyphName="dieresis" x="16" y="0" flags="0x4"/>
    </TTGlyph>
    <TTGlyph name="oe" xMin="20" yMin="-10" xMax="794" yMax="503">
      <contour>
        <pt x="477" y="237" on="1"/>
        <pt x="475" y="226" on="0"/>
        <pt x="475" y="208" on="0"/>
        <pt x="475" y="200" on="1"/>
        <pt x="475" y="161" on="0"/>
        <pt x="495" y="111" on="0"/>
        <pt x="526" y="83" on="0"/>
        <pt x="565" y="72" on="0"/>
        <pt x="584" y="72" on="1"/>
        <pt x="618" y="72" on="0"/>
        <pt x="699" y="94" on="0"/>
        <pt x="730" y="111" on="1"/>
        <pt x="721" y="24" on="1"/>
        <pt x="693" y="10" on="0"/>
        <pt x="616" y="-10" on="0"/>
        <pt x="569" y="-10" on="1"/>
        <pt x="498" y="-10" on="0"/>
        <pt x="415" y="40" on="0"/>
        <pt x="396" y="88" on="1"/>
        <pt x="361" y="40" on="0"/>
        <pt x="262" y="-10" on="0"/>
        <pt x="205" y="-10" on="1"/>
        <pt x="159" y="-10" on="0"/>
        <pt x="90" y="23" on="0"/>
        <pt x="43" y="80" on="0"/>
        <pt x="20" y="157" on="0"/>
        <pt x="20" y="201" on="1"/>
        <pt x="20" y="261" on="0"/>
        <pt x="60" y="371" on="0"/>
        <pt x="133" y="454" on="0"/>
        <pt x="235" y="503" on="0"/>
        <pt x="297" y="503" on="1"/>
        <pt x="350" y="503" on="0"/>
        <pt x="432" y="456" on="0"/>
        <pt x="451" y="409" on="1"/>
        <pt x="486" y="456" on="0"/>
        <pt x="579" y="503" on="0"/>
        <pt x="630" y="503" on="1"/>
        <pt x="704" y="503" on="0"/>
        <pt x="794" y="413" on="0"/>
        <pt x="794" y="333" on="1"/>
        <pt x="794" y="313" on="0"/>
        <pt x="790" y="285" on="0"/>
        <pt x="784" y="263" on="0"/>
        <pt x="776" y="246" on="0"/>
        <pt x="773" y="237" on="1"/>
      </contour>
      <contour>
        <pt x="617" y="415" on="1"/>
        <pt x="529" y="415" on="0"/>
        <pt x="492" y="307" on="1"/>
        <pt x="687" y="307" on="1"/>
        <pt x="689" y="315" on="0"/>
        <pt x="689" y="329" on="0"/>
        <pt x="689" y="337" on="1"/>
        <pt x="689" y="372" on="0"/>
        <pt x="655" y="415" on="0"/>
      </contour>
      <contour>
        <pt x="281" y="415" on="1"/>
        <pt x="245" y="415" on="0"/>
        <pt x="186" y="383" on="0"/>
        <pt x="146" y="326" on="0"/>
        <pt x="124" y="248" on="0"/>
        <pt x="124" y="203" on="1"/>
        <pt x="124" y="145" on="0"/>
        <pt x="174" y="78" on="0"/>
        <pt x="222" y="78" on="1"/>
        <pt x="258" y="78" on="0"/>
        <pt x="315" y="113" on="0"/>
        <pt x="355" y="171" on="0"/>
        <pt x="376" y="247" on="0"/>
        <pt x="376" y="289" on="1"/>
        <pt x="376" y="345" on="0"/>
        <pt x="329" y="415" on="0"/>
      </contour>
    </TTGlyph>
    <TTGlyph name="ograve" xMin="20" yMin="-10" xMax="481" yMax="738">
      <component glyphName="o" x="0" y="0" flags="0x204"/>
      <component glyphName="grave" x="69" y="0" flags="0x4"/>
    </TTGlyph>
    <TTGlyph name="one" xMin="91" yMin="0" xMax="322" yMax="700">
      <contour>
        <pt x="91" y="0" on="1"/>
        <pt x="188" y="548" on="1"/>
        <pt x="162" y="524" on="0"/>
        <pt x="118" y="501" on="0"/>
        <pt x="95" y="495" on="1"/>
        <pt x="101" y="591" on="1"/>
        <pt x="117" y="597" on="0"/>
        <pt x="157" y="619" on="0"/>
        <pt x="196" y="648" on="0"/>
        <pt x="230" y="682" on="0"/>
        <pt x="241" y="700" on="1"/>
        <pt x="322" y="700" on="1"/>
        <pt x="199" y="0" on="1"/>
      </contour>
    </TTGlyph>
    <TTGlyph name="onehalf" xMin="-7" yMin="-85" xMax="623" yMax="700">
      <component glyphName="onesuperior" x="13" y="0" flags="0x4"/>
      <component glyphName="slash" x="38" y="0" flags="0x4"/>
      <component glyphName="twosuperior" x="325" y="-319" flags="0x4"/>
    </TTGlyph>
    <TTGlyph name="oneinferior" xMin="33" yMin="1" xMax="180" yMax="379">
      <component glyphName="onesuperior" x="-43" y="-319" flags="0x4"/>
    </TTGlyph>
    <TTGlyph name="onequarter" xMin="-5" yMin="-85" xMax="611" yMax="700">
      <component glyphName="onesuperior" x="14" y="0" flags="0x4"/>
      <component glyphName="slash" x="40" y="0" flags="0x4"/>
      <component glyphName="foursuperior" x="289" y="-319" flags="0x4"/>
    </TTGlyph>
    <TTGlyph name="onesuperior" xMin="76" yMin="320" xMax="223" yMax="698">
      <contour>
        <pt x="76" y="320" on="1"/>
        <pt x="123" y="585" on="1"/>
        <pt x="121" y="583" on="0"/>
        <pt x="98" y="576" on="0"/>
        <pt x="82" y="574" on="1"/>
        <pt x="91" y="639" on="1"/>
        <pt x="97" y="640" on="0"/>
        <pt x="118" y="651" on="0"/>
        <pt x="138" y="668" on="0"/>
        <pt x="156" y="688" on="0"/>
        <pt x="159" y="698" on="1"/>
        <pt x="223" y="698" on="1"/>
        <pt x="157" y="320" on="1"/>
      </contour>
    </TTGlyph>
    <TTGlyph name="ordfeminine" xMin="72" yMin="434" xMax="333" yMax="727">
      <contour>
        <pt x="316" y="434" on="1"/>
        <pt x="273" y="434" on="1"/>
        <pt x="253" y="434" on="0"/>
        <pt x="225" y="448" on="0"/>
        <pt x="223" y="461" on="1"/>
        <pt x="210" y="448" on="0"/>
        <pt x="158" y="434" on="0"/>
        <pt x="138" y="434" on="1"/>
        <pt x="106" y="434" on="0"/>
        <pt x="72" y="473" on="0"/>
        <pt x="72" y="504" on="1"/>
        <pt x="72" y="540" on="0"/>
        <pt x="113" y="586" on="0"/>
        <pt x="169" y="612" on="0"/>
        <pt x="224" y="622" on="0"/>
        <pt x="238" y="623" on="1"/>
        <pt x="238" y="642" on="0"/>
        <pt x="226" y="657" on="0"/>
        <pt x="202" y="657" on="1"/>
        <pt x="182" y="657" on="0"/>
        <pt x="145" y="647" on="0"/>
        <pt x="123" y="639" on="1"/>
        <pt x="129" y="706" on="1"/>
        <pt x="164" y="718" on="0"/>
        <pt x="217" y="727" on="0"/>
        <pt x="236" y="727" on="1"/>
        <pt x="277" y="727" on="0"/>
        <pt x="327" y="690" on="0"/>
        <pt x="327" y="649" on="1"/>
        <pt x="327" y="619" on="0"/>
        <pt x="307" y="552" on="0"/>
        <pt x="307" y="520" on="1"/>
        <pt x="307" y="510" on="0"/>
        <pt x="312" y="503" on="0"/>
        <pt x="320" y="503" on="1"/>
        <pt x="333" y="503" on="1"/>
      </contour>
      <contour>
        <pt x="229" y="568" on="1"/>
        <pt x="224" y="568" on="0"/>
        <pt x="203" y="562" on="0"/>
        <pt x="181" y="550" on="0"/>
        <pt x="164" y="531" on="0"/>
        <pt x="164" y="517" on="1"/>
        <pt x="164" y="496" on="0"/>
        <pt x="189" y="496" on="1"/>
        <pt x="196" y="496" on="0"/>
        <pt x="211" y="500" on="0"/>
        <pt x="218" y="505" on="1"/>
      </contour>
    </TTGlyph>
    <TTGlyph name="ordmasculine" xMin="81" yMin="434" xMax="370" yMax="727">
      <contour>
        <pt x="199" y="434" on="1"/>
        <pt x="170" y="434" on="0"/>
        <pt x="126" y="454" on="0"/>
        <pt x="96" y="487" on="0"/>
        <pt x="81" y="532" on="0"/>
        <pt x="81" y="557" on="1"/>
        <pt x="81" y="590" on="0"/>
        <pt x="106" y="651" on="0"/>
        <pt x="151" y="698" on="0"/>
        <pt x="213" y="727" on="0"/>
        <pt x="251" y="727" on="1"/>
        <pt x="281" y="727" on="0"/>
        <pt x="325" y="707" on="0"/>
        <pt x="355" y="674" on="0"/>
        <pt x="370" y="630" on="0"/>
        <pt x="370" y="605" on="1"/>
        <pt x="370" y="572" on="0"/>
        <pt x="345" y="511" on="0"/>
        <pt x="300" y="463" on="0"/>
        <pt x="237" y="434" on="0"/>
      </contour>
      <contour>
        <pt x="240" y="662" on="1"/>
        <pt x="225" y="662" on="0"/>
        <pt x="199" y="645" on="0"/>
        <pt x="180" y="617" on="0"/>
        <pt x="169" y="581" on="0"/>
        <pt x="169" y="561" on="1"/>
        <pt x="169" y="535" on="0"/>
        <pt x="190" y="500" on="0"/>
        <pt x="211" y="500" on="1"/>
        <pt x="227" y="500" on="0"/>
        <pt x="253" y="517" on="0"/>
        <pt x="272" y="545" on="0"/>
        <pt x="283" y="581" on="0"/>
        <pt x="283" y="601" on="1"/>
        <pt x="283" y="627" on="0"/>
        <pt x="261" y="662" on="0"/>
      </contour>
    </TTGlyph>
    <TTGlyph name="oslash" xMin="21" yMin="-37" xMax="487" yMax="532">
      <contour>
        <pt x="209" y="-11" on="1"/>
        <pt x="174" y="-11" on="0"/>
        <pt x="143" y="-1" on="1"/>
        <pt x="122" y="-37" on="1"/>
        <pt x="35" y="-37" on="1"/>
        <pt x="79" y="32" on="1"/>
        <pt x="50" y="62" on="0"/>
        <pt x="21" y="151" on="0"/>
        <pt x="21" y="199" on="1"/>
        <pt x="21" y="259" on="0"/>
        <pt x="61" y="369" on="0"/>
        <pt x="135" y="454" on="0"/>
        <pt x="237" y="505" on="0"/>
        <pt x="299" y="505" on="1"/>
        <pt x="333" y="505" on="0"/>
        <pt x="362" y="494" on="1"/>
        <pt x="384" y="532" on="1"/>
        <pt x="473" y="532" on="1"/>
        <pt x="428" y="463" on="1"/>
        <pt x="457" y="431" on="0"/>
        <pt x="487" y="342" on="0"/>
        <pt x="487" y="294" on="1"/>
        <pt x="487" y="234" on="0"/>
        <pt x="447" y="124" on="0"/>
        <pt x="373" y="40" on="0"/>
        <pt x="271" y="-11" on="0"/>
      </contour>
      <contour>
        <pt x="194" y="75" on="1"/>
        <pt x="205" y="72" on="0"/>
        <pt x="217" y="70" on="0"/>
        <pt x="223" y="70" on="1"/>
        <pt x="258" y="70" on="0"/>
        <pt x="316" y="107" on="0"/>
        <pt x="358" y="171" on="0"/>
        <pt x="381" y="257" on="0"/>
        <pt x="381" y="307" on="1"/>
        <pt x="381" y="325" on="0"/>
        <pt x="377" y="370" on="0"/>
        <pt x="371" y="379" on="1"/>
      </contour>
      <contour>
        <pt x="285" y="424" on="1"/>
        <pt x="250" y="424" on="0"/>
        <pt x="192" y="388" on="0"/>
        <pt x="150" y="325" on="0"/>
        <pt x="127" y="242" on="0"/>
        <pt x="127" y="196" on="1"/>
        <pt x="127" y="180" on="0"/>
        <pt x="131" y="136" on="0"/>
        <pt x="136" y="115" on="1"/>
        <pt x="311" y="418" on="1"/>
        <pt x="301" y="422" on="0"/>
        <pt x="290" y="424" on="0"/>
      </contour>
    </TTGlyph>
    <TTGlyph name="otilde" xMin="20" yMin="-10" xMax="496" yMax="709">
      <component glyphName="o" x="0" y="0" flags="0x204"/>
      <component glyphName="tilde" x="-34" y="0" flags="0x4"/>
    </TTGlyph>
    <TTGlyph name="p" xMin="-35" yMin="-242" xMax="487" yMax="503">
      <contour>
        <pt x="223" y="-10" on="1"/>
        <pt x="190" y="-10" on="0"/>
        <pt x="136" y="20" on="0"/>
        <pt x="118" y="49" on="1"/>
        <pt x="67" y="-242" on="1"/>
        <pt x="-35" y="-242" on="1"/>
        <pt x="94" y="493" on="1"/>
        <pt x="181" y="493" on="1"/>
        <pt x="181" y="438" on="1"/>
        <pt x="210" y="469" on="0"/>
        <pt x="271" y="503" on="0"/>
        <pt x="314" y="503" on="1"/>
        <pt x="358" y="503" on="0"/>
        <pt x="423" y="470" on="0"/>
        <pt x="466" y="413" on="0"/>
        <pt x="487" y="338" on="0"/>
        <pt x="487" y="296" on="1"/>
        <pt x="487" y="237" on="0"/>
        <pt x="451" y="126" on="0"/>
        <pt x="383" y="41" on="0"/>
        <pt x="285" y="-10" on="0"/>
      </contour>
      <contour>
        <pt x="290" y="415" on="1"/>
        <pt x="260" y="415" on="0"/>
        <pt x="207" y="388" on="0"/>
        <pt x="166" y="333" on="0"/>
        <pt x="142" y="251" on="0"/>
        <pt x="142" y="196" on="1"/>
        <pt x="142" y="137" on="0"/>
        <pt x="189" y="78" on="0"/>
        <pt x="231" y="78" on="1"/>
        <pt x="264" y="78" on="0"/>
        <pt x="319" y="112" on="0"/>
        <pt x="360" y="170" on="0"/>
        <pt x="382" y="246" on="0"/>
        <pt x="382" y="288" on="1"/>
        <pt x="382" y="344" on="0"/>
        <pt x="335" y="415" on="0"/>
      </contour>
    </TTGlyph>
    <TTGlyph name="paragraph" xMin="62" yMin="0" xMax="599" yMax="700">
      <contour>
        <pt x="521" y="619" on="1"/>
        <pt x="411" y="0" on="1"/>
        <pt x="343" y="0" on="1"/>
        <pt x="452" y="619" on="1"/>
        <pt x="386" y="619" on="1"/>
        <pt x="277" y="0" on="1"/>
        <pt x="222" y="0" on="1"/>
        <pt x="264" y="238" on="1"/>
        <pt x="211" y="242" on="0"/>
        <pt x="135" y="278" on="0"/>
        <pt x="86" y="333" on="0"/>
        <pt x="62" y="402" on="0"/>
        <pt x="62" y="438" on="1"/>
        <pt x="62" y="484" on="0"/>
        <pt x="102" y="578" on="0"/>
        <pt x="178" y="653" on="0"/>
        <pt x="291" y="700" on="0"/>
        <pt x="365" y="700" on="1"/>
        <pt x="599" y="700" on="1"/>
        <pt x="584" y="619" on="1"/>
      </contour>
    </TTGlyph>
    <TTGlyph name="parenleft" xMin="30" yMin="-136" xMax="317" yMax="750">
      <contour>
        <pt x="68" y="-136" on="1"/>
        <pt x="51" y="-87" on="0"/>
        <pt x="30" y="49" on="0"/>
        <pt x="30" y="129" on="1"/>
        <pt x="30" y="211" on="0"/>
        <pt x="50" y="369" on="0"/>
        <pt x="96" y="523" on="0"/>
        <pt x="170" y="674" on="0"/>
        <pt x="224" y="750" on="1"/>
        <pt x="317" y="750" on="1"/>
        <pt x="277" y="692" on="0"/>
        <pt x="205" y="565" on="0"/>
        <pt x="150" y="420" on="0"/>
        <pt x="118" y="254" on="0"/>
        <pt x="118" y="158" on="1"/>
        <pt x="118" y="72" on="0"/>
        <pt x="142" y="-82" on="0"/>
        <pt x="161" y="-136" on="1"/>
      </contour>
    </TTGlyph>
    <TTGlyph name="parenright" xMin="-50" yMin="-136" xMax="238" yMax="750">
      <contour>
        <pt x="-50" y="-136" on="1"/>
        <pt x="-10" y="-78" on="0"/>
        <pt x="63" y="49" on="0"/>
        <pt x="118" y="194" on="0"/>
        <pt x="150" y="360" on="0"/>
        <pt x="150" y="456" on="1"/>
        <pt x="150" y="542" on="0"/>
        <pt x="126" y="696" on="0"/>
        <pt x="106" y="750" on="1"/>
        <pt x="199" y="750" on="1"/>
        <pt x="217" y="701" on="0"/>
        <pt x="238" y="565" on="0"/>
        <pt x="238" y="485" on="1"/>
        <pt x="238" y="321" on="0"/>
        <pt x="150" y="15" on="0"/>
        <pt x="43" y="-136" on="1"/>
      </contour>
    </TTGlyph>
    <TTGlyph name="percent" xMin="71" yMin="-12" xMax="717" yMax="705">
      <contour>
        <pt x="174" y="-12" on="1"/>
        <pt x="88" y="-12" on="1"/>
        <pt x="593" y="700" on="1"/>
        <pt x="678" y="700" on="1"/>
      </contour>
      <contour>
        <pt x="178" y="334" on="1"/>
        <pt x="127" y="334" on="0"/>
        <pt x="71" y="406" on="0"/>
        <pt x="71" y="471" on="1"/>
        <pt x="71" y="525" on="0"/>
        <pt x="101" y="611" on="0"/>
        <pt x="150" y="672" on="0"/>
        <pt x="214" y="705" on="0"/>
        <pt x="248" y="705" on="1"/>
        <pt x="296" y="705" on="0"/>
        <pt x="354" y="632" on="0"/>
        <pt x="354" y="566" on="1"/>
        <pt x="354" y="514" on="0"/>
        <pt x="327" y="429" on="0"/>
        <pt x="279" y="368" on="0"/>
        <pt x="215" y="334" on="0"/>
      </contour>
      <contour>
        <pt x="236" y="646" on="1"/>
        <pt x="219" y="646" on="0"/>
        <pt x="184" y="623" on="0"/>
        <pt x="156" y="579" on="0"/>
        <pt x="137" y="518" on="0"/>
        <pt x="137" y="480" on="1"/>
        <pt x="137" y="438" on="0"/>
        <pt x="166" y="393" on="0"/>
        <pt x="189" y="393" on="1"/>
        <pt x="209" y="393" on="0"/>
        <pt x="245" y="417" on="0"/>
        <pt x="272" y="461" on="0"/>
        <pt x="288" y="521" on="0"/>
        <pt x="288" y="557" on="1"/>
        <pt x="288" y="599" on="0"/>
        <pt x="259" y="646" on="0"/>
      </contour>
      <contour>
        <pt x="540" y="-12" on="1"/>
        <pt x="490" y="-12" on="0"/>
        <pt x="434" y="60" on="0"/>
        <pt x="434" y="125" on="1"/>
        <pt x="434" y="179" on="0"/>
        <pt x="464" y="265" on="0"/>
        <pt x="513" y="326" on="0"/>
        <pt x="576" y="359" on="0"/>
        <pt x="610" y="359" on="1"/>
        <pt x="659" y="359" on="0"/>
        <pt x="717" y="286" on="0"/>
        <pt x="717" y="220" on="1"/>
        <pt x="717" y="168" on="0"/>
        <pt x="690" y="83" on="0"/>
        <pt x="642" y="22" on="0"/>
        <pt x="577" y="-12" on="0"/>
      </contour>
      <contour>
        <pt x="599" y="300" on="1"/>
        <pt x="582" y="300" on="0"/>
        <pt x="547" y="277" on="0"/>
        <pt x="518" y="233" on="0"/>
        <pt x="500" y="172" on="0"/>
        <pt x="500" y="134" on="1"/>
        <pt x="500" y="92" on="0"/>
        <pt x="529" y="47" on="0"/>
        <pt x="552" y="47" on="1"/>
        <pt x="572" y="47" on="0"/>
        <pt x="608" y="71" on="0"/>
        <pt x="635" y="115" on="0"/>
        <pt x="651" y="175" on="0"/>
        <pt x="651" y="211" on="1"/>
        <pt x="651" y="253" on="0"/>
        <pt x="621" y="300" on="0"/>
      </contour>
    </TTGlyph>
    <TTGlyph name="period" xMin="6" yMin="0" xMax="127" yMax="101">
      <contour>
        <pt x="6" y="0" on="1"/>
        <pt x="24" y="101" on="1"/>
        <pt x="127" y="101" on="1"/>
        <pt x="109" y="0" on="1"/>
      </contour>
    </TTGlyph>
    <TTGlyph name="periodcentered" xMin="43" yMin="213" xMax="178" yMax="343">
      <contour>
        <pt x="43" y="213" on="1"/>
        <pt x="66" y="343" on="1"/>
        <pt x="178" y="343" on="1"/>
        <pt x="155" y="213" on="1"/>
      </contour>
    </TTGlyph>
    <TTGlyph name="perthousand" xMin="72" yMin="-12" xMax="1042" yMax="705">
      <contour>
        <pt x="175" y="-12" on="1"/>
        <pt x="89" y="-12" on="1"/>
        <pt x="594" y="700" on="1"/>
        <pt x="679" y="700" on="1"/>
      </contour>
      <contour>
        <pt x="179" y="334" on="1"/>
        <pt x="128" y="334" on="0"/>
        <pt x="72" y="406" on="0"/>
        <pt x="72" y="471" on="1"/>
        <pt x="72" y="525" on="0"/>
        <pt x="102" y="611" on="0"/>
        <pt x="151" y="672" on="0"/>
        <pt x="215" y="705" on="0"/>
        <pt x="249" y="705" on="1"/>
        <pt x="297" y="705" on="0"/>
        <pt x="355" y="632" on="0"/>
        <pt x="355" y="566" on="1"/>
        <pt x="355" y="514" on="0"/>
        <pt x="328" y="429" on="0"/>
        <pt x="280" y="368" on="0"/>
        <pt x="216" y="334" on="0"/>
      </contour>
      <contour>
        <pt x="237" y="646" on="1"/>
        <pt x="220" y="646" on="0"/>
        <pt x="185" y="623" on="0"/>
        <pt x="157" y="579" on="0"/>
        <pt x="138" y="518" on="0"/>
        <pt x="138" y="480" on="1"/>
        <pt x="138" y="438" on="0"/>
        <pt x="167" y="393" on="0"/>
        <pt x="190" y="393" on="1"/>
        <pt x="210" y="393" on="0"/>
        <pt x="246" y="417" on="0"/>
        <pt x="273" y="461" on="0"/>
        <pt x="289" y="521" on="0"/>
        <pt x="289" y="557" on="1"/>
        <pt x="289" y="599" on="0"/>
        <pt x="260" y="646" on="0"/>
      </contour>
      <contour>
        <pt x="541" y="-12" on="1"/>
        <pt x="491" y="-12" on="0"/>
        <pt x="435" y="60" on="0"/>
        <pt x="435" y="125" on="1"/>
        <pt x="435" y="179" on="0"/>
        <pt x="465" y="265" on="0"/>
        <pt x="514" y="326" on="0"/>
        <pt x="577" y="359" on="0"/>
        <pt x="611" y="359" on="1"/>
        <pt x="660" y="359" on="0"/>
        <pt x="718" y="286" on="0"/>
        <pt x="718" y="220" on="1"/>
        <pt x="718" y="168" on="0"/>
        <pt x="691" y="83" on="0"/>
        <pt x="643" y="22" on="0"/>
        <pt x="578" y="-12" on="0"/>
      </contour>
      <contour>
        <pt x="600" y="300" on="1"/>
        <pt x="583" y="300" on="0"/>
        <pt x="548" y="277" on="0"/>
        <pt x="519" y="233" on="0"/>
        <pt x="501" y="172" on="0"/>
        <pt x="501" y="134" on="1"/>
        <pt x="501" y="92" on="0"/>
        <pt x="530" y="47" on="0"/>
        <pt x="553" y="47" on="1"/>
        <pt x="573" y="47" on="0"/>
        <pt x="609" y="71" on="0"/>
        <pt x="636" y="115" on="0"/>
        <pt x="652" y="175" on="0"/>
        <pt x="652" y="211" on="1"/>
        <pt x="652" y="253" on="0"/>
        <pt x="622" y="300" on="0"/>
      </contour>
      <contour>
        <pt x="865" y="-12" on="1"/>
        <pt x="815" y="-12" on="0"/>
        <pt x="758" y="60" on="0"/>
        <pt x="758" y="125" on="1"/>
        <pt x="758" y="179" on="0"/>
        <pt x="788" y="265" on="0"/>
        <pt x="837" y="326" on="0"/>
        <pt x="901" y="359" on="0"/>
        <pt x="935" y="359" on="1"/>
        <pt x="984" y="359" on="0"/>
        <pt x="1042" y="286" on="0"/>
        <pt x="1042" y="220" on="1"/>
        <pt x="1042" y="168" on="0"/>
        <pt x="1015" y="83" on="0"/>
        <pt x="967" y="22" on="0"/>
        <pt x="902" y="-12" on="0"/>
      </contour>
      <contour>
        <pt x="924" y="300" on="1"/>
        <pt x="907" y="300" on="0"/>
        <pt x="871" y="277" on="0"/>
        <pt x="843" y="233" on="0"/>
        <pt x="825" y="172" on="0"/>
        <pt x="825" y="134" on="1"/>
        <pt x="825" y="92" on="0"/>
        <pt x="854" y="47" on="0"/>
        <pt x="877" y="47" on="1"/>
        <pt x="897" y="47" on="0"/>
        <pt x="933" y="71" on="0"/>
        <pt x="960" y="115" on="0"/>
        <pt x="976" y="175" on="0"/>
        <pt x="976" y="211" on="1"/>
        <pt x="976" y="253" on="0"/>
        <pt x="946" y="300" on="0"/>
      </contour>
    </TTGlyph>
    <TTGlyph name="plus" xMin="34" yMin="102" xMax="383" yMax="452">
      <contour>
        <pt x="242" y="235" on="1"/>
        <pt x="218" y="102" on="1"/>
        <pt x="137" y="102" on="1"/>
        <pt x="160" y="235" on="1"/>
        <pt x="34" y="235" on="1"/>
        <pt x="50" y="324" on="1"/>
        <pt x="176" y="324" on="1"/>
        <pt x="199" y="452" on="1"/>
        <pt x="279" y="452" on="1"/>
        <pt x="257" y="324" on="1"/>
        <pt x="383" y="324" on="1"/>
        <pt x="367" y="235" on="1"/>
      </contour>
    </TTGlyph>
    <TTGlyph name="plusminus" xMin="20" yMin="38" xMax="416" yMax="532">
      <contour>
        <pt x="275" y="321" on="1"/>
        <pt x="250" y="183" on="1"/>
        <pt x="173" y="183" on="1"/>
        <pt x="198" y="321" on="1"/>
        <pt x="70" y="321" on="1"/>
        <pt x="83" y="397" on="1"/>
        <pt x="211" y="397" on="1"/>
        <pt x="235" y="532" on="1"/>
        <pt x="312" y="532" on="1"/>
        <pt x="289" y="397" on="1"/>
        <pt x="416" y="397" on="1"/>
        <pt x="403" y="321" on="1"/>
      </contour>
      <contour>
        <pt x="20" y="38" on="1"/>
        <pt x="34" y="114" on="1"/>
        <pt x="367" y="114" on="1"/>
        <pt x="353" y="38" on="1"/>
      </contour>
    </TTGlyph>
    <TTGlyph name="q" xMin="20" yMin="-242" xMax="501" yMax="503">
      <contour>
        <pt x="194" y="-10" on="1"/>
        <pt x="150" y="-10" on="0"/>
        <pt x="84" y="21" on="0"/>
        <pt x="41" y="76" on="0"/>
        <pt x="20" y="150" on="0"/>
        <pt x="20" y="193" on="1"/>
        <pt x="20" y="252" on="0"/>
        <pt x="58" y="364" on="0"/>
        <pt x="127" y="451" on="0"/>
        <pt x="225" y="503" on="0"/>
        <pt x="285" y="503" on="1"/>
        <pt x="327" y="503" on="0"/>
        <pt x="375" y="469" on="0"/>
        <pt x="395" y="438" on="1"/>
        <pt x="414" y="493" on="1"/>
        <pt x="501" y="493" on="1"/>
        <pt x="371" y="-242" on="1"/>
        <pt x="269" y="-242" on="1"/>
        <pt x="320" y="49" on="1"/>
        <pt x="263" y="-10" on="0"/>
      </contour>
      <contour>
        <pt x="277" y="415" on="1"/>
        <pt x="244" y="415" on="0"/>
        <pt x="188" y="381" on="0"/>
        <pt x="149" y="324" on="0"/>
        <pt x="127" y="248" on="0"/>
        <pt x="127" y="206" on="1"/>
        <pt x="127" y="151" on="0"/>
        <pt x="172" y="78" on="0"/>
        <pt x="218" y="78" on="1"/>
        <pt x="248" y="78" on="0"/>
        <pt x="301" y="104" on="0"/>
        <pt x="342" y="158" on="0"/>
        <pt x="366" y="240" on="0"/>
        <pt x="366" y="296" on="1"/>
        <pt x="366" y="354" on="0"/>
        <pt x="319" y="415" on="0"/>
      </contour>
    </TTGlyph>
    <TTGlyph name="question" xMin="87" yMin="0" xMax="418" yMax="750">
      <contour>
        <pt x="139" y="200" on="1"/>
        <pt x="141" y="225" on="0"/>
        <pt x="143" y="245" on="0"/>
        <pt x="144" y="248" on="1"/>
        <pt x="150" y="282" on="0"/>
        <pt x="181" y="339" on="0"/>
        <pt x="220" y="391" on="0"/>
        <pt x="263" y="440" on="0"/>
        <pt x="298" y="493" on="0"/>
        <pt x="321" y="550" on="0"/>
        <pt x="321" y="584" on="1"/>
        <pt x="321" y="630" on="0"/>
        <pt x="275" y="673" on="0"/>
        <pt x="241" y="673" on="1"/>
        <pt x="221" y="673" on="0"/>
        <pt x="183" y="660" on="0"/>
        <pt x="150" y="640" on="0"/>
        <pt x="124" y="616" on="0"/>
        <pt x="115" y="606" on="1"/>
        <pt x="104" y="682" on="1"/>
        <pt x="130" y="713" on="0"/>
        <pt x="214" y="750" on="0"/>
        <pt x="259" y="750" on="1"/>
        <pt x="301" y="750" on="0"/>
        <pt x="361" y="720" on="0"/>
        <pt x="400" y="673" on="0"/>
        <pt x="418" y="615" on="0"/>
        <pt x="418" y="587" on="1"/>
        <pt x="418" y="552" on="0"/>
        <pt x="390" y="488" on="0"/>
        <pt x="347" y="428" on="0"/>
        <pt x="295" y="371" on="0"/>
        <pt x="249" y="313" on="0"/>
        <pt x="215" y="254" on="0"/>
        <pt x="211" y="222" on="1"/>
        <pt x="208" y="200" on="1"/>
      </contour>
      <contour>
        <pt x="87" y="0" on="1"/>
        <pt x="104" y="99" on="1"/>
        <pt x="207" y="99" on="1"/>
        <pt x="189" y="0" on="1"/>
      </contour>
    </TTGlyph>
    <TTGlyph name="questiondown" xMin="-10" yMin="-250" xMax="321" yMax="500">
      <contour>
        <pt x="269" y="300" on="1"/>
        <pt x="267" y="275" on="0"/>
        <pt x="265" y="255" on="0"/>
        <pt x="264" y="252" on="1"/>
        <pt x="258" y="218" on="0"/>
        <pt x="227" y="161" on="0"/>
        <pt x="188" y="109" on="0"/>
        <pt x="145" y="60" on="0"/>
        <pt x="110" y="7" on="0"/>
        <pt x="87" y="-50" on="0"/>
        <pt x="87" y="-84" on="1"/>
        <pt x="87" y="-130" on="0"/>
        <pt x="134" y="-173" on="0"/>
        <pt x="167" y="-173" on="1"/>
        <pt x="187" y="-173" on="0"/>
        <pt x="225" y="-160" on="0"/>
        <pt x="258" y="-140" on="0"/>
        <pt x="284" y="-117" on="0"/>
        <pt x="293" y="-106" on="1"/>
        <pt x="304" y="-182" on="1"/>
        <pt x="278" y="-213" on="0"/>
        <pt x="194" y="-250" on="0"/>
        <pt x="148" y="-250" on="1"/>
        <pt x="106" y="-250" on="0"/>
        <pt x="47" y="-220" on="0"/>
        <pt x="8" y="-173" on="0"/>
        <pt x="-10" y="-115" on="0"/>
        <pt x="-10" y="-87" on="1"/>
        <pt x="-10" y="-52" on="0"/>
        <pt x="17" y="12" on="0"/>
        <pt x="60" y="72" on="0"/>
        <pt x="110" y="129" on="0"/>
        <pt x="156" y="187" on="0"/>
        <pt x="190" y="246" on="0"/>
        <pt x="196" y="278" on="1"/>
        <pt x="200" y="300" on="1"/>
      </contour>
      <contour>
        <pt x="321" y="500" on="1"/>
        <pt x="304" y="401" on="1"/>
        <pt x="201" y="401" on="1"/>
        <pt x="218" y="500" on="1"/>
      </contour>
    </TTGlyph>
    <TTGlyph name="quotedbl" xMin="86" yMin="450" xMax="412" yMax="750">
      <contour>
        <pt x="341" y="450" on="1"/>
        <pt x="274" y="450" on="1"/>
        <pt x="309" y="750" on="1"/>
        <pt x="412" y="750" on="1"/>
      </contour>
      <contour>
        <pt x="153" y="450" on="1"/>
        <pt x="86" y="450" on="1"/>
        <pt x="121" y="750" on="1"/>
        <pt x="224" y="750" on="1"/>
      </contour>
    </TTGlyph>
    <TTGlyph name="quotedblbase" xMin="-11" yMin="-109" xMax="336" yMax="101">
      <contour>
        <pt x="9" y="-109" on="1"/>
        <pt x="-11" y="-96" on="1"/>
        <pt x="34" y="-9" on="1"/>
        <pt x="7" y="0" on="1"/>
        <pt x="24" y="101" on="1"/>
        <pt x="129" y="101" on="1"/>
        <pt x="111" y="0" on="1"/>
      </contour>
      <contour>
        <pt x="216" y="-109" on="1"/>
        <pt x="196" y="-96" on="1"/>
        <pt x="241" y="-9" on="1"/>
        <pt x="214" y="0" on="1"/>
        <pt x="231" y="101" on="1"/>
        <pt x="336" y="101" on="1"/>
        <pt x="318" y="0" on="1"/>
      </contour>
    </TTGlyph>
    <TTGlyph name="quotedblleft" xMin="87" yMin="540" xMax="416" yMax="750">
      <contour>
        <pt x="207" y="750" on="1"/>
        <pt x="227" y="737" on="1"/>
        <pt x="181" y="650" on="1"/>
        <pt x="210" y="641" on="1"/>
        <pt x="192" y="540" on="1"/>
        <pt x="87" y="540" on="1"/>
        <pt x="105" y="641" on="1"/>
      </contour>
      <contour>
        <pt x="396" y="750" on="1"/>
        <pt x="416" y="737" on="1"/>
        <pt x="370" y="650" on="1"/>
        <pt x="399" y="641" on="1"/>
        <pt x="381" y="540" on="1"/>
        <pt x="276" y="540" on="1"/>
        <pt x="294" y="641" on="1"/>
      </contour>
    </TTGlyph>
    <TTGlyph name="quotedblright" xMin="87" yMin="540" xMax="416" yMax="750">
      <contour>
        <pt x="296" y="540" on="1"/>
        <pt x="276" y="553" on="1"/>
        <pt x="321" y="640" on="1"/>
        <pt x="294" y="649" on="1"/>
        <pt x="311" y="750" on="1"/>
        <pt x="416" y="750" on="1"/>
        <pt x="398" y="649" on="1"/>
      </contour>
      <contour>
        <pt x="107" y="540" on="1"/>
        <pt x="87" y="553" on="1"/>
        <pt x="132" y="640" on="1"/>
        <pt x="105" y="649" on="1"/>
        <pt x="122" y="750" on="1"/>
        <pt x="227" y="750" on="1"/>
        <pt x="209" y="649" on="1"/>
      </contour>
    </TTGlyph>
    <TTGlyph name="quoteleft" xMin="87" yMin="540" xMax="227" yMax="750">
      <contour>
        <pt x="207" y="750" on="1"/>
        <pt x="227" y="737" on="1"/>
        <pt x="181" y="650" on="1"/>
        <pt x="210" y="641" on="1"/>
        <pt x="192" y="540" on="1"/>
        <pt x="87" y="540" on="1"/>
        <pt x="105" y="641" on="1"/>
      </contour>
    </TTGlyph>
    <TTGlyph name="quoteright" xMin="87" yMin="540" xMax="227" yMax="750">
      <contour>
        <pt x="107" y="540" on="1"/>
        <pt x="87" y="553" on="1"/>
        <pt x="132" y="640" on="1"/>
        <pt x="105" y="649" on="1"/>
        <pt x="122" y="750" on="1"/>
        <pt x="227" y="750" on="1"/>
        <pt x="209" y="649" on="1"/>
      </contour>
    </TTGlyph>
    <TTGlyph name="quotesinglbase" xMin="-11" yMin="-109" xMax="129" yMax="101">
      <contour>
        <pt x="9" y="-109" on="1"/>
        <pt x="-11" y="-96" on="1"/>
        <pt x="34" y="-9" on="1"/>
        <pt x="7" y="0" on="1"/>
        <pt x="24" y="101" on="1"/>
        <pt x="129" y="101" on="1"/>
        <pt x="111" y="0" on="1"/>
      </contour>
    </TTGlyph>
    <TTGlyph name="quotesingle" xMin="86" yMin="450" xMax="226" yMax="750">
      <contour>
        <pt x="155" y="450" on="1"/>
        <pt x="86" y="450" on="1"/>
        <pt x="121" y="750" on="1"/>
        <pt x="226" y="750" on="1"/>
      </contour>
    </TTGlyph>
    <TTGlyph name="r" xMin="9" yMin="0" xMax="348" yMax="508">
      <contour>
        <pt x="309" y="403" on="1"/>
        <pt x="272" y="403" on="1"/>
        <pt x="244" y="403" on="0"/>
        <pt x="188" y="367" on="0"/>
        <pt x="174" y="344" on="1"/>
        <pt x="113" y="0" on="1"/>
        <pt x="9" y="0" on="1"/>
        <pt x="96" y="493" on="1"/>
        <pt x="189" y="493" on="1"/>
        <pt x="181" y="422" on="1"/>
        <pt x="213" y="462" on="0"/>
        <pt x="287" y="508" on="0"/>
        <pt x="326" y="508" on="1"/>
        <pt x="348" y="508" on="1"/>
      </contour>
    </TTGlyph>
    <TTGlyph name="registered" xMin="58" yMin="37" xMax="631" yMax="693">
      <contour>
        <pt x="287" y="37" on="1"/>
        <pt x="235" y="37" on="0"/>
        <pt x="150" y="74" on="0"/>
        <pt x="90" y="143" on="0"/>
        <pt x="58" y="241" on="0"/>
        <pt x="58" y="301" on="1"/>
        <pt x="58" y="387" on="0"/>
        <pt x="113" y="531" on="0"/>
        <pt x="208" y="635" on="0"/>
        <pt x="333" y="693" on="0"/>
        <pt x="403" y="693" on="1"/>
        <pt x="455" y="693" on="0"/>
        <pt x="539" y="656" on="0"/>
        <pt x="599" y="587" on="0"/>
        <pt x="631" y="490" on="0"/>
        <pt x="631" y="430" on="1"/>
        <pt x="631" y="344" on="0"/>
        <pt x="576" y="199" on="0"/>
        <pt x="483" y="95" on="0"/>
        <pt x="357" y="37" on="0"/>
      </contour>
      <contour>
        <pt x="393" y="640" on="1"/>
        <pt x="327" y="640" on="0"/>
        <pt x="226" y="584" on="0"/>
        <pt x="157" y="491" on="0"/>
        <pt x="121" y="369" on="0"/>
        <pt x="121" y="302" on="1"/>
        <pt x="121" y="257" on="0"/>
        <pt x="142" y="179" on="0"/>
        <pt x="185" y="122" on="0"/>
        <pt x="252" y="89" on="0"/>
        <pt x="297" y="89" on="1"/>
        <pt x="363" y="89" on="0"/>
        <pt x="464" y="145" on="0"/>
        <pt x="533" y="239" on="0"/>
        <pt x="568" y="362" on="0"/>
        <pt x="568" y="428" on="1"/>
        <pt x="568" y="474" on="0"/>
        <pt x="547" y="551" on="0"/>
        <pt x="504" y="608" on="0"/>
        <pt x="438" y="640" on="0"/>
      </contour>
      <contour>
        <pt x="369" y="208" on="1"/>
        <pt x="333" y="323" on="1"/>
        <pt x="299" y="323" on="1"/>
        <pt x="279" y="208" on="1"/>
        <pt x="206" y="208" on="1"/>
        <pt x="264" y="533" on="1"/>
        <pt x="376" y="533" on="1"/>
        <pt x="416" y="533" on="0"/>
        <pt x="465" y="500" on="0"/>
        <pt x="465" y="455" on="1"/>
        <pt x="465" y="414" on="0"/>
        <pt x="427" y="360" on="0"/>
        <pt x="403" y="343" on="1"/>
        <pt x="445" y="208" on="1"/>
      </contour>
      <contour>
        <pt x="326" y="475" on="1"/>
        <pt x="311" y="387" on="1"/>
        <pt x="337" y="387" on="1"/>
        <pt x="390" y="387" on="0"/>
        <pt x="390" y="445" on="1"/>
        <pt x="390" y="459" on="0"/>
        <pt x="375" y="475" on="0"/>
        <pt x="354" y="475" on="1"/>
      </contour>
    </TTGlyph>
    <TTGlyph name="ring" xMin="154" yMin="576" xMax="344" yMax="755">
      <contour>
        <pt x="234" y="576" on="1"/>
        <pt x="195" y="576" on="0"/>
        <pt x="154" y="621" on="0"/>
        <pt x="154" y="651" on="1"/>
        <pt x="154" y="671" on="0"/>
        <pt x="170" y="708" on="0"/>
        <pt x="200" y="737" on="0"/>
        <pt x="241" y="755" on="0"/>
        <pt x="265" y="755" on="1"/>
        <pt x="305" y="755" on="0"/>
        <pt x="344" y="710" on="0"/>
        <pt x="344" y="679" on="1"/>
        <pt x="344" y="659" on="0"/>
        <pt x="328" y="622" on="0"/>
        <pt x="300" y="594" on="0"/>
        <pt x="259" y="576" on="0"/>
      </contour>
      <contour>
        <pt x="259" y="718" on="1"/>
        <pt x="238" y="718" on="0"/>
        <pt x="205" y="682" on="0"/>
        <pt x="205" y="654" on="1"/>
        <pt x="205" y="634" on="0"/>
        <pt x="224" y="612" on="0"/>
        <pt x="240" y="612" on="1"/>
        <pt x="261" y="612" on="0"/>
        <pt x="294" y="646" on="0"/>
        <pt x="294" y="675" on="1"/>
        <pt x="294" y="694" on="0"/>
        <pt x="275" y="718" on="0"/>
      </contour>
    </TTGlyph>
    <TTGlyph name="s" xMin="-11" yMin="-10" xMax="372" yMax="503">
      <contour>
        <pt x="134" y="-10" on="1"/>
        <pt x="79" y="-10" on="0"/>
        <pt x="6" y="18" on="0"/>
        <pt x="-11" y="31" on="1"/>
        <pt x="16" y="124" on="1"/>
        <pt x="24" y="116" on="0"/>
        <pt x="51" y="99" on="0"/>
        <pt x="85" y="84" on="0"/>
        <pt x="124" y="74" on="0"/>
        <pt x="145" y="74" on="1"/>
        <pt x="191" y="74" on="0"/>
        <pt x="231" y="113" on="0"/>
        <pt x="231" y="144" on="1"/>
        <pt x="231" y="174" on="0"/>
        <pt x="186" y="203" on="0"/>
        <pt x="159" y="211" on="1"/>
        <pt x="139" y="217" on="0"/>
        <pt x="100" y="234" on="0"/>
        <pt x="69" y="259" on="0"/>
        <pt x="49" y="298" on="0"/>
        <pt x="49" y="327" on="1"/>
        <pt x="49" y="355" on="0"/>
        <pt x="69" y="418" on="0"/>
        <pt x="114" y="469" on="0"/>
        <pt x="188" y="503" on="0"/>
        <pt x="243" y="503" on="1"/>
        <pt x="288" y="503" on="0"/>
        <pt x="355" y="481" on="0"/>
        <pt x="372" y="469" on="1"/>
        <pt x="346" y="379" on="1"/>
        <pt x="332" y="397" on="0"/>
        <pt x="273" y="426" on="0"/>
        <pt x="236" y="426" on="1"/>
        <pt x="201" y="426" on="0"/>
        <pt x="146" y="392" on="0"/>
        <pt x="146" y="354" on="1"/>
        <pt x="146" y="339" on="0"/>
        <pt x="159" y="319" on="0"/>
        <pt x="183" y="304" on="0"/>
        <pt x="216" y="292" on="0"/>
        <pt x="236" y="286" on="1"/>
        <pt x="253" y="280" on="0"/>
        <pt x="289" y="263" on="0"/>
        <pt x="318" y="235" on="0"/>
        <pt x="337" y="194" on="0"/>
        <pt x="337" y="164" on="1"/>
        <pt x="337" y="137" on="0"/>
        <pt x="321" y="76" on="0"/>
        <pt x="277" y="24" on="0"/>
        <pt x="197" y="-10" on="0"/>
      </contour>
    </TTGlyph>
    <TTGlyph name="scaron" xMin="-11" yMin="-10" xMax="405" yMax="743">
      <component glyphName="s" x="0" y="0" flags="0x204"/>
      <component glyphName="caron" x="-61" y="0" flags="0x4"/>
    </TTGlyph>
    <TTGlyph name="section" xMin="6" yMin="-84" xMax="437" yMax="750">
      <contour>
        <pt x="286" y="187" on="1"/>
        <pt x="300" y="167" on="0"/>
        <pt x="312" y="127" on="0"/>
        <pt x="312" y="104" on="1"/>
        <pt x="312" y="76" on="0"/>
        <pt x="294" y="10" on="0"/>
        <pt x="252" y="-46" on="0"/>
        <pt x="181" y="-84" on="0"/>
        <pt x="128" y="-84" on="1"/>
        <pt x="109" y="-84" on="0"/>
        <pt x="71" y="-78" on="0"/>
        <pt x="38" y="-67" on="0"/>
        <pt x="12" y="-53" on="0"/>
        <pt x="6" y="-45" on="1"/>
        <pt x="29" y="33" on="1"/>
        <pt x="51" y="14" on="0"/>
        <pt x="110" y="-11" on="0"/>
        <pt x="138" y="-11" on="1"/>
        <pt x="157" y="-11" on="0"/>
        <pt x="192" y="-1" on="0"/>
        <pt x="220" y="20" on="0"/>
        <pt x="237" y="53" on="0"/>
        <pt x="237" y="77" on="1"/>
        <pt x="237" y="103" on="0"/>
        <pt x="209" y="134" on="0"/>
        <pt x="166" y="157" on="0"/>
        <pt x="116" y="177" on="0"/>
        <pt x="73" y="209" on="0"/>
        <pt x="45" y="258" on="0"/>
        <pt x="45" y="298" on="1"/>
        <pt x="45" y="361" on="0"/>
        <pt x="101" y="457" on="0"/>
        <pt x="158" y="479" on="1"/>
        <pt x="143" y="499" on="0"/>
        <pt x="131" y="541" on="0"/>
        <pt x="131" y="562" on="1"/>
        <pt x="131" y="589" on="0"/>
        <pt x="148" y="655" on="0"/>
        <pt x="190" y="712" on="0"/>
        <pt x="261" y="750" on="0"/>
        <pt x="315" y="750" on="1"/>
        <pt x="334" y="750" on="0"/>
        <pt x="372" y="743" on="0"/>
        <pt x="405" y="731" on="0"/>
        <pt x="430" y="717" on="0"/>
        <pt x="437" y="710" on="1"/>
        <pt x="415" y="632" on="1"/>
        <pt x="392" y="651" on="0"/>
        <pt x="335" y="678" on="0"/>
        <pt x="307" y="678" on="1"/>
        <pt x="289" y="678" on="0"/>
        <pt x="253" y="665" on="0"/>
        <pt x="226" y="642" on="0"/>
        <pt x="209" y="610" on="0"/>
        <pt x="209" y="590" on="1"/>
        <pt x="209" y="566" on="0"/>
        <pt x="237" y="535" on="0"/>
        <pt x="279" y="511" on="0"/>
        <pt x="327" y="488" on="0"/>
        <pt x="369" y="455" on="0"/>
        <pt x="397" y="404" on="0"/>
        <pt x="397" y="364" on="1"/>
        <pt x="397" y="341" on="0"/>
        <pt x="387" y="291" on="0"/>
        <pt x="362" y="243" on="0"/>
        <pt x="319" y="202" on="0"/>
      </contour>
      <contour>
        <pt x="211" y="428" on="1"/>
        <pt x="202" y="428" on="0"/>
        <pt x="175" y="417" on="0"/>
        <pt x="148" y="395" on="0"/>
        <pt x="129" y="359" on="0"/>
        <pt x="129" y="333" on="1"/>
        <pt x="129" y="312" on="0"/>
        <pt x="149" y="279" on="0"/>
        <pt x="180" y="254" on="0"/>
        <pt x="218" y="236" on="0"/>
        <pt x="236" y="229" on="1"/>
        <pt x="248" y="232" on="0"/>
        <pt x="276" y="252" on="0"/>
        <pt x="299" y="281" on="0"/>
        <pt x="314" y="315" on="0"/>
        <pt x="314" y="333" on="1"/>
        <pt x="314" y="357" on="0"/>
        <pt x="293" y="389" on="0"/>
        <pt x="261" y="411" on="0"/>
        <pt x="226" y="424" on="0"/>
      </contour>
    </TTGlyph>
    <TTGlyph name="semicolon" xMin="-11" yMin="-109" xMax="197" yMax="440">
      <contour>
        <pt x="66" y="339" on="1"/>
        <pt x="84" y="440" on="1"/>
        <pt x="197" y="440" on="1"/>
        <pt x="180" y="339" on="1"/>
      </contour>
      <contour>
        <pt x="9" y="-109" on="1"/>
        <pt x="-11" y="-96" on="1"/>
        <pt x="34" y="-9" on="1"/>
        <pt x="7" y="0" on="1"/>
        <pt x="24" y="101" on="1"/>
        <pt x="129" y="101" on="1"/>
        <pt x="111" y="-1" on="1"/>
      </contour>
    </TTGlyph>
    <TTGlyph name="seven" xMin="27" yMin="0" xMax="528" yMax="700">
      <contour>
        <pt x="139" y="0" on="1"/>
        <pt x="27" y="0" on="1"/>
        <pt x="356" y="601" on="1"/>
        <pt x="99" y="601" on="1"/>
        <pt x="116" y="700" on="1"/>
        <pt x="528" y="700" on="1"/>
      </contour>
    </TTGlyph>
    <TTGlyph name="seveninferior" xMin="6" yMin="1" xMax="306" yMax="379">
      <component glyphName="sevensuperior" x="-37" y="-319" flags="0x4"/>
    </TTGlyph>
    <TTGlyph name="sevensuperior" xMin="43" yMin="320" xMax="343" yMax="698">
      <contour>
        <pt x="129" y="320" on="1"/>
        <pt x="43" y="320" on="1"/>
        <pt x="208" y="618" on="1"/>
        <pt x="85" y="618" on="1"/>
        <pt x="99" y="698" on="1"/>
        <pt x="343" y="698" on="1"/>
      </contour>
    </TTGlyph>
    <TTGlyph name="six" xMin="49" yMin="-14" xMax="472" yMax="700">
      <contour>
        <pt x="207" y="-14" on="1"/>
        <pt x="135" y="-14" on="0"/>
        <pt x="49" y="83" on="0"/>
        <pt x="49" y="179" on="1"/>
        <pt x="49" y="243" on="0"/>
        <pt x="87" y="370" on="0"/>
        <pt x="148" y="486" on="0"/>
        <pt x="225" y="585" on="0"/>
        <pt x="305" y="657" on="0"/>
        <pt x="379" y="699" on="0"/>
        <pt x="407" y="700" on="1"/>
        <pt x="470" y="658" on="1"/>
        <pt x="438" y="641" on="0"/>
        <pt x="355" y="584" on="0"/>
        <pt x="275" y="509" on="0"/>
        <pt x="208" y="418" on="0"/>
        <pt x="192" y="366" on="1"/>
        <pt x="217" y="396" on="0"/>
        <pt x="284" y="420" on="0"/>
        <pt x="313" y="420" on="1"/>
        <pt x="385" y="420" on="0"/>
        <pt x="472" y="334" on="0"/>
        <pt x="472" y="257" on="1"/>
        <pt x="472" y="201" on="0"/>
        <pt x="432" y="103" on="0"/>
        <pt x="361" y="29" on="0"/>
        <pt x="264" y="-14" on="0"/>
      </contour>
      <contour>
        <pt x="290" y="331" on="1"/>
        <pt x="262" y="331" on="0"/>
        <pt x="212" y="309" on="0"/>
        <pt x="174" y="269" on="0"/>
        <pt x="152" y="213" on="0"/>
        <pt x="152" y="179" on="1"/>
        <pt x="152" y="132" on="0"/>
        <pt x="201" y="80" on="0"/>
        <pt x="235" y="80" on="1"/>
        <pt x="263" y="80" on="0"/>
        <pt x="313" y="106" on="0"/>
        <pt x="349" y="150" on="0"/>
        <pt x="370" y="208" on="0"/>
        <pt x="370" y="241" on="1"/>
        <pt x="370" y="280" on="0"/>
        <pt x="331" y="331" on="0"/>
      </contour>
    </TTGlyph>
    <TTGlyph name="sixinferior" xMin="16" yMin="-7" xMax="267" yMax="379">
      <component glyphName="sixsuperior" x="-43" y="-319" flags="0x4"/>
    </TTGlyph>
    <TTGlyph name="sixsuperior" xMin="59" yMin="312" xMax="310" yMax="698">
      <contour>
        <pt x="151" y="312" on="1"/>
        <pt x="111" y="312" on="0"/>
        <pt x="59" y="363" on="0"/>
        <pt x="59" y="422" on="1"/>
        <pt x="59" y="483" on="0"/>
        <pt x="108" y="584" on="0"/>
        <pt x="175" y="657" on="0"/>
        <pt x="243" y="698" on="0"/>
        <pt x="262" y="698" on="1"/>
        <pt x="310" y="667" on="1"/>
        <pt x="296" y="667" on="0"/>
        <pt x="249" y="637" on="0"/>
        <pt x="201" y="594" on="0"/>
        <pt x="163" y="548" on="0"/>
        <pt x="160" y="532" on="1"/>
        <pt x="164" y="537" on="0"/>
        <pt x="180" y="543" on="0"/>
        <pt x="196" y="546" on="0"/>
        <pt x="210" y="547" on="0"/>
        <pt x="213" y="547" on="1"/>
        <pt x="253" y="547" on="0"/>
        <pt x="303" y="503" on="0"/>
        <pt x="303" y="459" on="1"/>
        <pt x="303" y="431" on="0"/>
        <pt x="280" y="378" on="0"/>
        <pt x="239" y="337" on="0"/>
        <pt x="184" y="312" on="0"/>
      </contour>
      <contour>
        <pt x="196" y="483" on="1"/>
        <pt x="167" y="483" on="0"/>
        <pt x="135" y="455" on="0"/>
        <pt x="135" y="424" on="1"/>
        <pt x="135" y="405" on="0"/>
        <pt x="160" y="385" on="0"/>
        <pt x="171" y="385" on="1"/>
        <pt x="192" y="385" on="0"/>
        <pt x="230" y="423" on="0"/>
        <pt x="230" y="447" on="1"/>
        <pt x="230" y="461" on="0"/>
        <pt x="211" y="483" on="0"/>
      </contour>
    </TTGlyph>
    <TTGlyph name="slash" xMin="-45" yMin="-85" xMax="537" yMax="700">
      <contour>
        <pt x="66" y="-85" on="1"/>
        <pt x="-45" y="-85" on="1"/>
        <pt x="425" y="700" on="1"/>
        <pt x="537" y="700" on="1"/>
      </contour>
    </TTGlyph>
    <TTGlyph name="sterling" xMin="-18" yMin="0" xMax="508" yMax="711">
      <contour>
        <pt x="432" y="563" on="1"/>
        <pt x="421" y="619" on="0"/>
        <pt x="371" y="619" on="1"/>
        <pt x="346" y="619" on="0"/>
        <pt x="315" y="603" on="0"/>
        <pt x="296" y="570" on="0"/>
        <pt x="284" y="519" on="0"/>
        <pt x="278" y="485" on="1"/>
        <pt x="263" y="399" on="1"/>
        <pt x="431" y="399" on="1"/>
        <pt x="396" y="307" on="1"/>
        <pt x="242" y="307" on="1"/>
        <pt x="234" y="273" on="0"/>
        <pt x="221" y="222" on="0"/>
        <pt x="205" y="177" on="0"/>
        <pt x="184" y="130" on="0"/>
        <pt x="168" y="99" on="1"/>
        <pt x="385" y="99" on="1"/>
        <pt x="368" y="0" on="1"/>
        <pt x="-18" y="0" on="1"/>
        <pt x="14" y="35" on="0"/>
        <pt x="62" y="104" on="0"/>
        <pt x="98" y="178" on="0"/>
        <pt x="127" y="259" on="0"/>
        <pt x="139" y="307" on="1"/>
        <pt x="57" y="307" on="1"/>
        <pt x="92" y="399" on="1"/>
        <pt x="161" y="399" on="1"/>
        <pt x="180" y="507" on="1"/>
        <pt x="187" y="546" on="0"/>
        <pt x="211" y="619" on="0"/>
        <pt x="256" y="676" on="0"/>
        <pt x="326" y="711" on="0"/>
        <pt x="377" y="711" on="1"/>
        <pt x="432" y="711" on="0"/>
        <pt x="504" y="664" on="0"/>
        <pt x="508" y="622" on="1"/>
      </contour>
    </TTGlyph>
    <TTGlyph name="t" xMin="37" yMin="-10" xMax="326" yMax="621">
      <contour>
        <pt x="227" y="-10" on="1"/>
        <pt x="149" y="-10" on="1"/>
        <pt x="122" y="-10" on="0"/>
        <pt x="84" y="5" on="0"/>
        <pt x="60" y="31" on="0"/>
        <pt x="49" y="66" on="0"/>
        <pt x="49" y="85" on="1"/>
        <pt x="49" y="98" on="0"/>
        <pt x="52" y="112" on="1"/>
        <pt x="104" y="412" on="1"/>
        <pt x="37" y="412" on="1"/>
        <pt x="60" y="493" on="1"/>
        <pt x="119" y="493" on="1"/>
        <pt x="140" y="611" on="1"/>
        <pt x="244" y="621" on="1"/>
        <pt x="221" y="493" on="1"/>
        <pt x="326" y="493" on="1"/>
        <pt x="311" y="412" on="1"/>
        <pt x="207" y="412" on="1"/>
        <pt x="163" y="165" on="1"/>
        <pt x="159" y="145" on="0"/>
        <pt x="156" y="119" on="0"/>
        <pt x="156" y="108" on="1"/>
        <pt x="156" y="83" on="0"/>
        <pt x="185" y="72" on="0"/>
        <pt x="222" y="72" on="1"/>
        <pt x="250" y="72" on="1"/>
      </contour>
    </TTGlyph>
    <TTGlyph name="thorn" xMin="-34" yMin="-241" xMax="496" yMax="750">
      <contour>
        <pt x="224" y="-10" on="1"/>
        <pt x="186" y="-10" on="0"/>
        <pt x="136" y="18" on="0"/>
        <pt x="119" y="45" on="1"/>
        <pt x="69" y="-241" on="1"/>
        <pt x="-34" y="-241" on="1"/>
        <pt x="141" y="750" on="1"/>
        <pt x="244" y="750" on="1"/>
        <pt x="191" y="451" on="1"/>
        <pt x="220" y="477" on="0"/>
        <pt x="279" y="503" on="0"/>
        <pt x="316" y="503" on="1"/>
        <pt x="361" y="503" on="0"/>
        <pt x="428" y="470" on="0"/>
        <pt x="473" y="414" on="0"/>
        <pt x="496" y="339" on="0"/>
        <pt x="496" y="296" on="1"/>
        <pt x="496" y="237" on="0"/>
        <pt x="458" y="127" on="0"/>
        <pt x="387" y="41" on="0"/>
        <pt x="287" y="-10" on="0"/>
      </contour>
      <contour>
        <pt x="292" y="415" on="1"/>
        <pt x="253" y="415" on="0"/>
        <pt x="196" y="378" on="0"/>
        <pt x="160" y="316" on="0"/>
        <pt x="143" y="238" on="0"/>
        <pt x="143" y="197" on="1"/>
        <pt x="143" y="144" on="0"/>
        <pt x="184" y="72" on="0"/>
        <pt x="231" y="72" on="1"/>
        <pt x="267" y="72" on="0"/>
        <pt x="326" y="107" on="0"/>
        <pt x="368" y="166" on="0"/>
        <pt x="390" y="244" on="0"/>
        <pt x="390" y="288" on="1"/>
        <pt x="390" y="345" on="0"/>
        <pt x="341" y="415" on="0"/>
      </contour>
    </TTGlyph>
</ttFont>
